{
.appVersion = "3258";
.formatVersion = 3;
DisplayStrings = (
"A A"
);
axes = (
{
name = Weight;
tag = wght;
}
);
customParameters = (
{
name = "Use Typo Metrics";
value = 1;
}
);
date = "2024-02-26 13:56:12 +0000";
familyName = "Ring Link";
featurePrefixes = (
{
automatic = 1;
code = "languagesystem DFLT dflt;

languagesystem cyrl dflt;
languagesystem cyrl BGR;

languagesystem latn dflt;
languagesystem latn NLD;
";
name = Languagesystems;
}
);
features = (
{
automatic = 1;
code = "feature locl;
feature sups;
feature ordn;
";
tag = aalt;
},
{
automatic = 1;
code = "lookup ccmp_Other_1 {
	@CombiningTopAccents = [acutecomb circumflexcomb dieresiscomb dotaccentcomb gravecomb ringcomb tildecomb];
	@CombiningNonTopAccents = [cedillacomb];
	sub [i j]' @CombiningTopAccents by [idotless jdotless];
	sub [i j]' @CombiningNonTopAccents @CombiningTopAccents by [idotless jdotless];
} ccmp_Other_1;
";
tag = ccmp;
},
{
automatic = 1;
code = "sub one by onesuperior;
sub two by twosuperior;
sub three by threesuperior;
";
tag = sups;
},
{
automatic = 1;
code = "sub [zero one two three four five six seven eight nine] [A a]' by ordfeminine;
sub [zero one two three four five six seven eight nine] [O o]' by ordmasculine;
";
tag = ordn;
}
);
fontMaster = (
{
axesValues = (
0
);
customParameters = (
{
name = hheaAscender;
value = 1980;
},
{
name = hheaDescender;
value = -490;
},
{
name = hheaLineGap;
value = 310;
},
{
name = typoAscender;
value = 1980;
},
{
name = typoDescender;
value = -490;
},
{
name = typoLineGap;
value = 310;
},
{
name = winDescent;
value = 490;
}
);
id = "09B1AECD-0C97-4FC2-B876-53C5EBE935B2";
metricValues = (
{
pos = 1589;
},
{
pos = 1462;
},
{
pos = 984;
},
{
},
{
pos = -459;
}
);
name = Regular;
}
);
glyphs = (
{
glyphname = A;
kernLeft = "20";
kernRight = "20";
lastChange = "2024-04-18 14:55:36 +0000";
layers = (
{
anchors = (
{
name = top;
pos = (271,1546);
}
);
hints = (
{
name = _corner.serif;
origin = (1,3);
type = Corner;
},
{
name = _corner.serif;
options = 1;
origin = (3,0);
scale = (-1,1);
type = Corner;
}
);
layerId = "09B1AECD-0C97-4FC2-B876-53C5EBE935B2";
shapes = (
{
closed = 1;
nodes = (
(158,396,l),
(158,456,o),
(208,507,o),
(272,507,cs),
(332,507,o),
(383,456,o),
(383,396,c),
(473,396,l),
(473,507,o),
(383,597,o),
(272,597,cs),
(158,597,o),
(68,507,o),
(68,396,c)
);
},
{
closed = 1;
nodes = (
(158,0,l),
(158,1260,l),
(68,1260,l),
(68,0,l)
);
},
{
closed = 1;
nodes = (
(158,1260,l),
(158,1320,o),
(208,1371,o),
(272,1371,cs),
(332,1371,o),
(383,1320,o),
(383,1260,c),
(473,1260,l),
(473,1371,o),
(383,1461,o),
(272,1461,cs),
(158,1461,o),
(68,1371,o),
(68,1260,c)
);
},
{
closed = 1;
nodes = (
(473,0,l),
(473,1260,l),
(383,1260,l),
(383,0,l)
);
}
);
width = 541;
}
);
unicode = 65;
},
{
glyphname = AE;
kernLeft = "20";
kernRight = "20";
lastChange = "2024-04-18 14:55:36 +0000";
layers = (
{
hints = (
{
name = _corner.serif;
origin = (0,42);
type = Corner;
}
);
layerId = "09B1AECD-0C97-4FC2-B876-53C5EBE935B2";
shapes = (
{
closed = 1;
nodes = (
(158,0,l),
(158,396,ls),
(158,456,o),
(208,507,o),
(272,507,cs),
(332,507,o),
(383,456,o),
(383,396,cs),
(383,0,l),
(587,0,ls),
(698,0,o),
(789,90,o),
(789,201,c),
(699,201,l),
(699,141,o),
(648,90,o),
(587,90,cs),
(473,90,l),
(473,686,l),
(611,686,l),
(611,776,l),
(473,776,l),
(473,1260,ls),
(473,1320,o),
(524,1371,o),
(587,1371,cs),
(648,1371,o),
(699,1320,o),
(699,1260,c),
(789,1260,l),
(789,1371,o),
(698,1461,o),
(587,1461,cs),
(521,1461,o),
(464,1428,o),
(429,1381,c),
(393,1428,o),
(336,1461,o),
(272,1461,cs),
(158,1461,o),
(68,1371,o),
(68,1260,cs),
(68,0,l)
);
},
{
closed = 1;
nodes = (
(158,1260,ls),
(158,1320,o),
(208,1371,o),
(272,1371,cs),
(332,1371,o),
(383,1320,o),
(383,1260,cs),
(383,555,l),
(354,580,o),
(315,597,o),
(272,597,cs),
(226,597,o),
(188,580,o),
(158,555,c)
);
}
);
width = 824;
}
);
unicode = 198;
},
{
glyphname = B;
kernLeft = "20";
kernRight = "20";
lastChange = "2024-04-18 14:55:36 +0000";
layers = (
{
hints = (
{
name = _corner.serif;
origin = (0,17);
type = Corner;
}
);
layerId = "09B1AECD-0C97-4FC2-B876-53C5EBE935B2";
shapes = (
{
closed = 1;
nodes = (
(272,0,ls),
(383,0,o),
(473,90,o),
(473,201,cs),
(473,947,ls),
(473,1011,o),
(440,1069,o),
(393,1104,c),
(440,1139,o),
(473,1197,o),
(473,1260,cs),
(473,1371,o),
(383,1461,o),
(272,1461,cs),
(158,1461,o),
(68,1371,o),
(68,1260,cs),
(68,0,l)
);
},
{
closed = 1;
nodes = (
(158,1260,ls),
(158,1320,o),
(208,1371,o),
(272,1371,cs),
(332,1371,o),
(383,1320,o),
(383,1260,cs),
(383,1199,o),
(332,1148,o),
(272,1148,c),
(272,1058,l),
(332,1058,o),
(383,1008,o),
(383,947,cs),
(383,201,ls),
(383,141,o),
(332,90,o),
(272,90,cs),
(158,90,l)
);
}
);
width = 508;
}
);
unicode = 66;
},
{
glyphname = C;
kernLeft = "20";
kernRight = "20";
lastChange = "2024-04-18 14:55:36 +0000";
layers = (
{
anchors = (
{
name = bottom;
pos = (296,25);
}
);
hints = (
{
name = _corner.serif;
origin = (0,23);
type = Corner;
}
);
layerId = "09B1AECD-0C97-4FC2-B876-53C5EBE935B2";
shapes = (
{
closed = 1;
nodes = (
(272,0,ls),
(383,0,o),
(473,90,o),
(473,201,c),
(383,201,l),
(383,141,o),
(332,90,o),
(272,90,cs),
(158,90,l),
(158,1260,ls),
(158,1320,o),
(208,1371,o),
(272,1371,cs),
(332,1371,o),
(383,1320,o),
(383,1260,c),
(473,1260,l),
(473,1371,o),
(383,1461,o),
(272,1461,cs),
(158,1461,o),
(68,1371,o),
(68,1260,cs),
(68,0,l)
);
}
);
width = 508;
}
);
unicode = 67;
},
{
glyphname = D;
kernLeft = "20";
kernRight = "20";
lastChange = "2024-04-18 14:55:36 +0000";
layers = (
{
hints = (
{
name = _corner.serif;
origin = (0,23);
type = Corner;
}
);
layerId = "09B1AECD-0C97-4FC2-B876-53C5EBE935B2";
shapes = (
{
closed = 1;
nodes = (
(158,0,l),
(158,1260,ls),
(158,1320,o),
(208,1371,o),
(272,1371,cs),
(332,1371,o),
(383,1320,o),
(383,1260,cs),
(383,201,ls),
(383,141,o),
(332,90,o),
(272,90,c),
(272,0,l),
(383,0,o),
(473,90,o),
(473,201,cs),
(473,1260,ls),
(473,1371,o),
(383,1461,o),
(272,1461,cs),
(158,1461,o),
(68,1371,o),
(68,1260,cs),
(68,0,l)
);
}
);
width = 508;
}
);
unicode = 68;
},
{
glyphname = Eth;
lastChange = "2024-04-18 14:55:36 +0000";
layers = (
{
hints = (
{
horizontal = 1;
origin = (0,31);
target = (0,15);
type = Stem;
},
{
horizontal = 1;
origin = (0,29);
target = (0,28);
type = Stem;
},
{
horizontal = 1;
origin = (0,23);
target = (0,8);
type = Stem;
},
{
origin = (0,31);
target = (0,0);
type = Stem;
},
{
origin = (0,12);
target = (0,19);
type = Stem;
},
{
name = _corner.serif;
origin = (0,31);
type = Corner;
}
);
layerId = "09B1AECD-0C97-4FC2-B876-53C5EBE935B2";
shapes = (
{
closed = 1;
nodes = (
(225,0,l),
(225,686,l),
(320,686,l),
(320,776,l),
(225,776,l),
(225,1260,ls),
(225,1320,o),
(275,1371,o),
(338,1371,cs),
(399,1371,o),
(450,1320,o),
(450,1260,cs),
(450,201,ls),
(450,141,o),
(399,90,o),
(338,90,c),
(338,0,l),
(449,0,o),
(540,90,o),
(540,201,cs),
(540,1260,ls),
(540,1371,o),
(449,1461,o),
(338,1461,cs),
(225,1461,o),
(135,1371,o),
(135,1260,cs),
(135,776,l),
(35,776,l),
(35,686,l),
(135,686,l),
(135,0,l)
);
}
);
width = 575;
}
);
unicode = 208;
},
{
glyphname = E;
kernLeft = "20";
kernRight = "20";
lastChange = "2024-04-18 14:55:36 +0000";
layers = (
{
anchors = (
{
name = top;
pos = (271,1546);
}
);
hints = (
{
name = _corner.serif;
origin = (0,27);
type = Corner;
}
);
layerId = "09B1AECD-0C97-4FC2-B876-53C5EBE935B2";
shapes = (
{
closed = 1;
nodes = (
(272,0,ls),
(383,0,o),
(473,90,o),
(473,201,c),
(383,201,l),
(383,141,o),
(332,90,o),
(272,90,cs),
(158,90,l),
(158,686,l),
(295,686,l),
(295,776,l),
(158,776,l),
(158,1260,ls),
(158,1320,o),
(208,1371,o),
(272,1371,cs),
(332,1371,o),
(383,1320,o),
(383,1260,c),
(473,1260,l),
(473,1371,o),
(383,1461,o),
(272,1461,cs),
(158,1461,o),
(68,1371,o),
(68,1260,cs),
(68,0,l)
);
}
);
width = 508;
}
);
unicode = 69;
},
{
glyphname = F;
kernLeft = "20";
kernRight = "20";
lastChange = "2024-04-18 14:55:36 +0000";
layers = (
{
hints = (
{
name = _corner.serif;
origin = (0,19);
type = Corner;
}
);
layerId = "09B1AECD-0C97-4FC2-B876-53C5EBE935B2";
shapes = (
{
closed = 1;
nodes = (
(158,0,l),
(158,447,l),
(272,447,l),
(272,537,l),
(158,537,l),
(158,1260,ls),
(158,1320,o),
(208,1371,o),
(272,1371,cs),
(332,1371,o),
(383,1320,o),
(383,1260,c),
(473,1260,l),
(473,1371,o),
(383,1461,o),
(272,1461,cs),
(158,1461,o),
(68,1371,o),
(68,1260,cs),
(68,0,l)
);
}
);
width = 508;
}
);
unicode = 70;
userData = {
KernOnName = F;
};
},
{
glyphname = G;
kernLeft = "20";
kernRight = "20";
lastChange = "2024-04-18 14:55:36 +0000";
layers = (
{
hints = (
{
name = _corner.serif;
origin = (0,29);
type = Corner;
}
);
layerId = "09B1AECD-0C97-4FC2-B876-53C5EBE935B2";
shapes = (
{
closed = 1;
nodes = (
(272,0,ls),
(316,0,o),
(354,16,o),
(383,43,c),
(383,0,l),
(473,0,l),
(473,582,l),
(272,582,l),
(272,492,l),
(383,492,l),
(383,201,ls),
(383,141,o),
(332,90,o),
(272,90,cs),
(158,90,l),
(158,1260,ls),
(158,1320,o),
(208,1371,o),
(272,1371,cs),
(332,1371,o),
(383,1320,o),
(383,1260,c),
(473,1260,l),
(473,1371,o),
(383,1461,o),
(272,1461,cs),
(158,1461,o),
(68,1371,o),
(68,1260,cs),
(68,0,l)
);
}
);
width = 508;
}
);
unicode = 71;
},
{
glyphname = H;
kernLeft = "20";
kernRight = "20";
lastChange = "2024-04-18 14:55:36 +0000";
layers = (
{
hints = (
{
name = _corner.serif;
origin = (0,12);
type = Corner;
},
{
name = _corner.serif;
options = 1;
origin = (0,0);
scale = (-1,1);
type = Corner;
}
);
layerId = "09B1AECD-0C97-4FC2-B876-53C5EBE935B2";
shapes = (
{
closed = 1;
nodes = (
(473,0,l),
(473,1461,l),
(383,1461,l),
(383,554,l),
(355,580,o),
(315,597,o),
(272,597,cs),
(227,597,o),
(186,580,o),
(158,554,c),
(158,1461,l),
(68,1461,l),
(68,0,l),
(158,0,l),
(158,396,ls),
(158,456,o),
(208,507,o),
(272,507,cs),
(332,507,o),
(383,456,o),
(383,396,cs),
(383,0,l)
);
}
);
width = 541;
}
);
unicode = 72;
userData = {
KernOnName = H;
};
},
{
glyphname = I;
kernLeft = "20";
kernRight = "20";
lastChange = "2024-04-18 14:55:36 +0000";
layers = (
{
anchors = (
{
name = top;
pos = (112,1546);
}
);
hints = (
{
name = _corner.serif;
options = 1;
origin = (0,0);
scale = (-1,1);
type = Corner;
},
{
name = _corner.serif;
options = 2;
origin = (0,1);
type = Corner;
},
{
name = _corner.serif;
options = 1;
origin = (0,2);
scale = (-1,1);
type = Corner;
},
{
name = _corner.serif;
options = 2;
origin = (0,3);
type = Corner;
}
);
layerId = "09B1AECD-0C97-4FC2-B876-53C5EBE935B2";
shapes = (
{
closed = 1;
nodes = (
(158,0,l),
(158,1461,l),
(68,1461,l),
(68,0,l)
);
}
);
width = 225;
}
);
unicode = 73;
userData = {
KernOnName = I;
};
},
{
glyphname = IJ;
lastChange = "2024-04-18 14:55:36 +0000";
layers = (
{
hints = (
{
name = _corner.serif;
options = 1;
origin = (0,2);
scale = (-1,1);
type = Corner;
},
{
name = _corner.serif;
origin = (1,1);
type = Corner;
}
);
layerId = "09B1AECD-0C97-4FC2-B876-53C5EBE935B2";
shapes = (
{
closed = 1;
nodes = (
(158,623,l),
(158,1461,l),
(68,1461,l),
(68,623,l)
);
},
{
closed = 1;
nodes = (
(472,201,l),
(472,1461,l),
(382,1461,l),
(382,201,l)
);
},
{
closed = 1;
nodes = (
(270,90,l),
(208,90,o),
(158,141,o),
(158,201,c),
(68,201,l),
(68,90,o),
(158,0,o),
(270,0,c)
);
},
{
closed = 1;
nodes = (
(381,0,o),
(472,90,o),
(472,201,c),
(382,201,l),
(382,141,o),
(331,90,o),
(270,90,c),
(270,0,l)
);
}
);
width = 539;
}
);
unicode = 306;
},
{
glyphname = J;
kernLeft = "20";
kernRight = "20";
lastChange = "2024-04-18 14:55:36 +0000";
layers = (
{
anchors = (
{
name = top;
pos = (296,1546);
}
);
hints = (
{
name = _corner.serif;
origin = (0,1);
type = Corner;
}
);
layerId = "09B1AECD-0C97-4FC2-B876-53C5EBE935B2";
shapes = (
{
closed = 1;
nodes = (
(439,201,l),
(439,1461,l),
(349,1461,l),
(349,201,l)
);
},
{
closed = 1;
nodes = (
(237,90,l),
(176,90,o),
(125,141,o),
(125,201,c),
(35,201,l),
(35,90,o),
(126,0,o),
(237,0,c)
);
},
{
closed = 1;
nodes = (
(349,0,o),
(439,90,o),
(439,201,c),
(349,201,l),
(349,141,o),
(298,90,o),
(237,90,c),
(237,0,l)
);
}
);
width = 507;
}
);
unicode = 74;
},
{
glyphname = K;
kernLeft = "20";
kernRight = "20";
lastChange = "2024-04-18 14:55:36 +0000";
layers = (
{
hints = (
{
name = _corner.serif;
origin = (0,28);
type = Corner;
},
{
name = _corner.serif;
options = 1;
origin = (0,9);
scale = (-1,1);
type = Corner;
}
);
layerId = "09B1AECD-0C97-4FC2-B876-53C5EBE935B2";
shapes = (
{
closed = 1;
nodes = (
(158,0,l),
(158,396,ls),
(158,456,o),
(208,507,o),
(272,507,cs),
(332,507,o),
(383,456,o),
(383,396,cs),
(383,0,l),
(473,0,l),
(473,396,ls),
(473,461,o),
(441,518,o),
(393,552,c),
(441,587,o),
(473,644,o),
(473,709,cs),
(473,1461,l),
(383,1461,l),
(383,709,ls),
(383,648,o),
(332,597,o),
(272,597,cs),
(227,597,o),
(186,580,o),
(158,554,c),
(158,1461,l),
(68,1461,l),
(68,0,l)
);
}
);
width = 541;
}
);
unicode = 75;
},
{
glyphname = L;
kernLeft = "20";
kernRight = "20";
lastChange = "2024-04-18 14:55:36 +0000";
layers = (
{
hints = (
{
name = _corner.serif;
origin = (0,3);
type = Corner;
}
);
layerId = "09B1AECD-0C97-4FC2-B876-53C5EBE935B2";
shapes = (
{
closed = 1;
nodes = (
(158,0,l),
(158,1461,l),
(68,1461,l),
(68,0,l)
);
},
{
closed = 1;
nodes = (
(413,0,l),
(413,90,l),
(88,90,l),
(88,0,l)
);
}
);
width = 448;
}
);
unicode = 76;
},
{
glyphname = M;
kernLeft = "20";
kernRight = "20";
lastChange = "2024-04-18 14:55:36 +0000";
layers = (
{
hints = (
{
name = _corner.serif;
origin = (0,32);
type = Corner;
},
{
name = _corner.serif;
options = 1;
origin = (0,18);
scale = (-1,1);
type = Corner;
}
);
layerId = "09B1AECD-0C97-4FC2-B876-53C5EBE935B2";
shapes = (
{
closed = 1;
nodes = (
(158,0,l),
(158,1260,ls),
(158,1320,o),
(208,1371,o),
(272,1371,cs),
(332,1371,o),
(383,1320,o),
(383,1260,cs),
(383,0,l),
(473,0,l),
(473,1260,ls),
(473,1320,o),
(524,1371,o),
(587,1371,cs),
(648,1371,o),
(699,1320,o),
(699,1260,cs),
(699,0,l),
(789,0,l),
(789,1260,ls),
(789,1371,o),
(698,1461,o),
(587,1461,cs),
(521,1461,o),
(464,1428,o),
(429,1381,c),
(393,1428,o),
(336,1461,o),
(272,1461,cs),
(158,1461,o),
(68,1371,o),
(68,1260,cs),
(68,0,l)
);
}
);
width = 856;
}
);
unicode = 77;
},
{
glyphname = N;
kernLeft = "20";
kernRight = "20";
lastChange = "2024-04-18 14:55:36 +0000";
layers = (
{
anchors = (
{
name = top;
pos = (269,1546);
}
);
hints = (
{
name = _corner.serif;
origin = (0,17);
type = Corner;
},
{
name = _corner.serif;
options = 1;
origin = (0,9);
scale = (-1,1);
type = Corner;
}
);
layerId = "09B1AECD-0C97-4FC2-B876-53C5EBE935B2";
shapes = (
{
closed = 1;
nodes = (
(158,0,l),
(158,1260,ls),
(158,1320,o),
(208,1371,o),
(272,1371,cs),
(332,1371,o),
(383,1320,o),
(383,1260,cs),
(383,0,l),
(473,0,l),
(473,1260,ls),
(473,1371,o),
(383,1461,o),
(272,1461,cs),
(158,1461,o),
(68,1371,o),
(68,1260,cs),
(68,0,l)
);
}
);
width = 541;
}
);
unicode = 78;
},
{
glyphname = O;
kernLeft = "20";
kernRight = "20";
lastChange = "2024-04-18 14:55:36 +0000";
layers = (
{
anchors = (
{
name = top;
pos = (236,1546);
}
);
layerId = "09B1AECD-0C97-4FC2-B876-53C5EBE935B2";
shapes = (
{
closed = 1;
nodes = (
(125,1260,l),
(125,1320,o),
(176,1371,o),
(239,1371,cs),
(300,1371,o),
(351,1320,o),
(351,1260,c),
(441,1260,l),
(441,1371,o),
(350,1461,o),
(239,1461,cs),
(126,1461,o),
(35,1371,o),
(35,1260,c)
);
},
{
closed = 1;
nodes = (
(350,0,o),
(441,90,o),
(441,201,c),
(351,201,l),
(351,141,o),
(300,90,o),
(239,90,cs),
(176,90,o),
(125,141,o),
(125,201,c),
(35,201,l),
(35,90,o),
(126,0,o),
(239,0,cs)
);
},
{
closed = 1;
nodes = (
(125,201,l),
(125,1260,l),
(35,1260,l),
(35,201,l)
);
},
{
closed = 1;
nodes = (
(441,201,l),
(441,1260,l),
(351,1260,l),
(351,201,l)
);
}
);
width = 476;
}
);
unicode = 79;
userData = {
KernOnName = O;
};
},
{
glyphname = Oslash;
kernLeft = "20";
kernRight = "20";
lastChange = "2024-04-18 14:55:36 +0000";
layers = (
{
layerId = "09B1AECD-0C97-4FC2-B876-53C5EBE935B2";
shapes = (
{
closed = 1;
nodes = (
(127,0,l),
(134,34,l),
(163,12,o),
(199,0,o),
(239,0,cs),
(350,0,o),
(441,90,o),
(441,201,cs),
(441,1260,ls),
(441,1295,o),
(431,1329,o),
(415,1358,c),
(441,1461,l),
(348,1461,l),
(343,1426,l),
(313,1449,o),
(278,1461,o),
(239,1461,cs),
(126,1461,o),
(35,1371,o),
(35,1260,cs),
(35,201,ls),
(35,165,o),
(46,132,o),
(60,103,c),
(35,0,l)
);
},
{
closed = 1;
nodes = (
(208,90,o),
(179,106,o),
(163,129,c),
(351,1143,l),
(351,201,ls),
(351,141,o),
(300,90,o),
(239,90,cs)
);
},
{
closed = 1;
nodes = (
(125,1260,ls),
(125,1320,o),
(176,1371,o),
(239,1371,cs),
(270,1371,o),
(297,1355,o),
(313,1333,c),
(125,318,l)
);
}
);
width = 476;
}
);
unicode = 216;
},
{
glyphname = OE;
kernLeft = "20";
kernRight = "20";
lastChange = "2024-04-18 14:55:36 +0000";
layers = (
{
layerId = "09B1AECD-0C97-4FC2-B876-53C5EBE935B2";
shapes = (
{
closed = 1;
nodes = (
(282,0,o),
(321,17,o),
(351,43,c),
(351,0,l),
(555,0,ls),
(666,0,o),
(756,90,o),
(756,201,c),
(666,201,l),
(666,141,o),
(615,90,o),
(555,90,cs),
(441,90,l),
(441,686,l),
(578,686,l),
(578,776,l),
(441,776,l),
(441,1260,ls),
(441,1320,o),
(492,1371,o),
(555,1371,cs),
(615,1371,o),
(666,1320,o),
(666,1260,c),
(756,1260,l),
(756,1371,o),
(666,1461,o),
(555,1461,cs),
(489,1461,o),
(431,1428,o),
(396,1381,c),
(361,1428,o),
(303,1461,o),
(239,1461,cs),
(126,1461,o),
(35,1371,o),
(35,1260,cs),
(35,201,ls),
(35,90,o),
(126,0,o),
(239,0,cs)
);
},
{
closed = 1;
nodes = (
(176,90,o),
(125,141,o),
(125,201,cs),
(125,1260,ls),
(125,1320,o),
(176,1371,o),
(239,1371,cs),
(300,1371,o),
(351,1320,o),
(351,1260,cs),
(351,201,ls),
(351,141,o),
(300,90,o),
(239,90,cs)
);
}
);
width = 791;
}
);
unicode = 338;
},
{
glyphname = P;
kernLeft = "20";
kernRight = "20";
lastChange = "2024-04-18 14:55:36 +0000";
layers = (
{
hints = (
{
name = _corner.serif;
origin = (0,15);
type = Corner;
}
);
layerId = "09B1AECD-0C97-4FC2-B876-53C5EBE935B2";
shapes = (
{
closed = 1;
nodes = (
(158,0,l),
(158,551,l),
(188,524,o),
(226,507,o),
(272,507,cs),
(383,507,o),
(473,598,o),
(473,709,cs),
(473,1260,ls),
(473,1371,o),
(383,1461,o),
(272,1461,cs),
(158,1461,o),
(68,1371,o),
(68,1260,cs),
(68,0,l)
);
},
{
closed = 1;
nodes = (
(208,597,o),
(158,648,o),
(158,709,cs),
(158,1260,ls),
(158,1320,o),
(208,1371,o),
(272,1371,cs),
(332,1371,o),
(383,1320,o),
(383,1260,cs),
(383,709,ls),
(383,648,o),
(332,597,o),
(272,597,cs)
);
}
);
width = 508;
}
);
unicode = 80;
},
{
glyphname = Thorn;
lastChange = "2024-04-18 14:55:36 +0000";
layers = (
{
hints = (
{
name = _corner.serif;
options = 1;
origin = (0,16);
scale = (-1,1);
type = Corner;
},
{
name = _corner.serif;
options = 2;
origin = (0,17);
type = Corner;
}
);
layerId = "09B1AECD-0C97-4FC2-B876-53C5EBE935B2";
shapes = (
{
closed = 1;
nodes = (
(158,0,l),
(158,551,l),
(188,524,o),
(226,507,o),
(272,507,cs),
(383,507,o),
(473,598,o),
(473,709,cs),
(473,1260,ls),
(473,1371,o),
(383,1461,o),
(272,1461,cs),
(226,1461,o),
(188,1445,o),
(158,1418,c),
(158,1461,l),
(68,1461,l),
(68,0,l)
);
},
{
closed = 1;
nodes = (
(208,597,o),
(158,648,o),
(158,709,cs),
(158,1260,ls),
(158,1320,o),
(208,1371,o),
(272,1371,cs),
(332,1371,o),
(383,1320,o),
(383,1260,cs),
(383,709,ls),
(383,648,o),
(332,597,o),
(272,597,cs)
);
}
);
width = 508;
}
);
unicode = 222;
},
{
glyphname = Q;
kernLeft = "20";
kernRight = "20";
lastChange = "2024-04-18 14:55:36 +0000";
layers = (
{
layerId = "09B1AECD-0C97-4FC2-B876-53C5EBE935B2";
shapes = (
{
closed = 1;
nodes = (
(125,1260,l),
(125,1320,o),
(176,1371,o),
(239,1371,cs),
(300,1371,o),
(351,1320,o),
(351,1260,c),
(441,1260,l),
(441,1371,o),
(350,1461,o),
(239,1461,cs),
(126,1461,o),
(35,1371,o),
(35,1260,c)
);
},
{
closed = 1;
nodes = (
(350,0,o),
(441,90,o),
(441,201,c),
(351,201,l),
(351,141,o),
(300,90,o),
(239,90,cs),
(176,90,o),
(125,141,o),
(125,201,c),
(35,201,l),
(35,90,o),
(126,0,o),
(239,0,cs)
);
},
{
closed = 1;
nodes = (
(441,-21,l),
(377,-21,o),
(326,30,o),
(326,90,c),
(236,90,l),
(236,-21,o),
(327,-111,o),
(441,-111,c)
);
},
{
closed = 1;
nodes = (
(125,201,l),
(125,1260,l),
(35,1260,l),
(35,201,l)
);
},
{
closed = 1;
nodes = (
(441,201,l),
(441,1260,l),
(351,1260,l),
(351,201,l)
);
}
);
width = 476;
}
);
unicode = 81;
},
{
glyphname = R;
kernLeft = "20";
kernRight = "20";
lastChange = "2024-04-18 14:55:36 +0000";
layers = (
{
hints = (
{
name = _corner.serif;
origin = (0,32);
type = Corner;
},
{
name = _corner.serif;
options = 1;
origin = (0,17);
scale = (-1,1);
type = Corner;
}
);
layerId = "09B1AECD-0C97-4FC2-B876-53C5EBE935B2";
shapes = (
{
closed = 1;
nodes = (
(158,0,l),
(158,1260,ls),
(158,1320,o),
(208,1371,o),
(272,1371,cs),
(332,1371,o),
(383,1320,o),
(383,1260,cs),
(383,709,ls),
(383,648,o),
(332,597,o),
(272,597,c),
(272,507,l),
(332,507,o),
(383,456,o),
(383,396,cs),
(383,0,l),
(473,0,l),
(473,396,ls),
(473,460,o),
(440,517,o),
(393,553,c),
(440,588,o),
(473,645,o),
(473,709,cs),
(473,1260,ls),
(473,1371,o),
(383,1461,o),
(272,1461,cs),
(158,1461,o),
(68,1371,o),
(68,1260,cs),
(68,0,l)
);
}
);
width = 541;
}
);
unicode = 82;
userData = {
KernOnName = R;
};
},
{
glyphname = S;
kernLeft = "20";
kernRight = "20";
lastChange = "2024-04-18 14:55:36 +0000";
layers = (
{
anchors = (
{
name = top;
pos = (236,1546);
}
);
hints = (
{
name = _corner.serif;
origin = (0,36);
type = Corner;
}
);
layerId = "09B1AECD-0C97-4FC2-B876-53C5EBE935B2";
shapes = (
{
closed = 1;
nodes = (
(350,0,o),
(441,90,o),
(441,201,cs),
(441,947,ls),
(441,1058,o),
(350,1148,o),
(239,1148,cs),
(176,1148,o),
(125,1199,o),
(125,1260,cs),
(125,1320,o),
(176,1371,o),
(239,1371,cs),
(300,1371,o),
(351,1320,o),
(351,1260,c),
(441,1260,l),
(441,1371,o),
(350,1461,o),
(239,1461,cs),
(126,1461,o),
(35,1371,o),
(35,1260,cs),
(35,1149,o),
(126,1058,o),
(239,1058,cs),
(300,1058,o),
(351,1008,o),
(351,947,cs),
(351,201,ls),
(351,141,o),
(300,90,o),
(239,90,cs),
(176,90,o),
(125,141,o),
(125,201,cs),
(125,947,l),
(35,947,l),
(35,201,ls),
(35,90,o),
(126,0,o),
(239,0,cs)
);
}
);
width = 476;
}
);
unicode = 83;
},
{
glyphname = Germandbls;
lastChange = "2024-04-18 14:55:36 +0000";
layers = (
{
hints = (
{
name = _corner.serif;
options = 1;
origin = (0,2);
scale = (-1,1);
type = Corner;
},
{
name = _corner.serif;
origin = (0,3);
type = Corner;
}
);
layerId = "09B1AECD-0C97-4FC2-B876-53C5EBE935B2";
shapes = (
{
closed = 1;
nodes = (
(158,0,l),
(158,1461,l),
(68,1461,l),
(68,0,l)
);
},
{
closed = 1;
nodes = (
(383,0,o),
(473,90,o),
(473,201,c),
(383,201,l),
(383,141,o),
(332,90,o),
(272,90,c),
(272,0,l)
);
},
{
closed = 1;
nodes = (
(473,201,l),
(473,947,l),
(383,947,l),
(383,201,l)
);
},
{
closed = 1;
nodes = (
(473,947,l),
(473,1058,o),
(383,1148,o),
(272,1148,c),
(272,1058,l),
(332,1058,o),
(383,1008,o),
(383,947,c)
);
},
{
closed = 1;
nodes = (
(383,1058,o),
(473,1149,o),
(473,1260,c),
(383,1260,l),
(383,1199,o),
(332,1148,o),
(272,1148,c),
(272,1058,l)
);
},
{
closed = 1;
nodes = (
(472,1371,l),
(472,1461,l),
(83,1461,l),
(83,1371,l)
);
},
{
closed = 1;
nodes = (
(473,1260,l),
(473,1461,l),
(383,1461,l),
(383,1260,l)
);
}
);
width = 508;
}
);
unicode = 7838;
},
{
glyphname = T;
kernLeft = "20";
kernRight = "20";
lastChange = "2024-04-18 14:55:36 +0000";
layers = (
{
hints = (
{
name = _corner.serif;
options = 1;
origin = (0,8);
scale = (-1,1);
type = Corner;
},
{
name = _corner.serif;
options = 1;
origin = (0,0);
scale = (-1,1);
type = Corner;
},
{
name = _corner.serif;
origin = (0,13);
type = Corner;
}
);
layerId = "09B1AECD-0C97-4FC2-B876-53C5EBE935B2";
shapes = (
{
closed = 1;
nodes = (
(323,0,l),
(323,1260,ls),
(323,1320,o),
(374,1371,o),
(438,1371,cs),
(516,1371,l),
(516,1461,l),
(35,1461,l),
(35,1371,l),
(277,1371,l),
(250,1343,o),
(233,1303,o),
(233,1260,cs),
(233,0,l)
);
}
);
width = 551;
}
);
unicode = 84;
},
{
glyphname = U;
kernLeft = "20";
kernRight = "20";
lastChange = "2024-04-18 14:55:36 +0000";
layers = (
{
anchors = (
{
name = top;
pos = (269,1546);
}
);
hints = (
{
name = _corner.serif;
options = 1;
origin = (2,2);
scale = (-1,1);
type = Corner;
},
{
name = _corner.serif;
origin = (0,1);
type = Corner;
}
);
layerId = "09B1AECD-0C97-4FC2-B876-53C5EBE935B2";
shapes = (
{
closed = 1;
nodes = (
(473,201,l),
(473,1461,l),
(383,1461,l),
(383,201,l)
);
},
{
closed = 1;
nodes = (
(383,0,o),
(473,90,o),
(473,201,c),
(383,201,l),
(383,141,o),
(332,90,o),
(272,90,cs),
(208,90,o),
(158,141,o),
(158,201,c),
(68,201,l),
(68,90,o),
(158,0,o),
(272,0,cs)
);
},
{
closed = 1;
nodes = (
(158,201,l),
(158,1461,l),
(68,1461,l),
(68,201,l)
);
}
);
width = 541;
}
);
unicode = 85;
},
{
glyphname = V;
kernLeft = "20";
kernRight = "20";
lastChange = "2024-04-18 14:55:36 +0000";
layers = (
{
hints = (
{
name = _corner.serif;
options = 1;
origin = (0,10);
scale = (-1,1);
type = Corner;
},
{
name = _corner.serif;
origin = (0,3);
type = Corner;
}
);
layerId = "09B1AECD-0C97-4FC2-B876-53C5EBE935B2";
shapes = (
{
closed = 1;
nodes = (
(157,-46,o),
(367,-46,o),
(380,112,cs),
(463,1461,l),
(373,1461,l),
(293,133,ls),
(292,74,o),
(233,74,o),
(231,133,cs),
(148,1461,l),
(58,1461,l),
(144,112,ls)
);
}
);
width = 521;
}
);
unicode = 86;
},
{
glyphname = W;
kernLeft = "20";
kernRight = "20";
lastChange = "2024-04-18 14:55:36 +0000";
layers = (
{
anchors = (
{
name = top;
pos = (428,1546);
}
);
hints = (
{
name = _corner.serif;
options = 1;
origin = (0,28);
scale = (-1,1);
type = Corner;
},
{
name = _corner.serif;
origin = (0,9);
type = Corner;
}
);
layerId = "09B1AECD-0C97-4FC2-B876-53C5EBE935B2";
shapes = (
{
closed = 1;
nodes = (
(336,0,o),
(393,33,o),
(429,80,c),
(464,33,o),
(521,0,o),
(587,0,cs),
(698,0,o),
(789,90,o),
(789,201,cs),
(789,1461,l),
(699,1461,l),
(699,201,ls),
(699,141,o),
(648,90,o),
(587,90,cs),
(524,90,o),
(473,141,o),
(473,201,cs),
(473,1461,l),
(383,1461,l),
(383,201,ls),
(383,141,o),
(332,90,o),
(272,90,cs),
(208,90,o),
(158,141,o),
(158,201,cs),
(158,1461,l),
(68,1461,l),
(68,201,ls),
(68,90,o),
(158,0,o),
(272,0,cs)
);
}
);
width = 856;
}
);
unicode = 87;
},
{
glyphname = X;
kernLeft = "20";
kernRight = "20";
lastChange = "2024-04-18 14:55:36 +0000";
layers = (
{
hints = (
{
name = _corner.serif;
options = 1;
origin = (5,1);
scale = (-1,1);
type = Corner;
},
{
name = _corner.serif;
origin = (4,0);
type = Corner;
}
);
layerId = "09B1AECD-0C97-4FC2-B876-53C5EBE935B2";
shapes = (
{
closed = 1;
nodes = (
(158,954,o),
(68,863,o),
(68,752,c),
(158,752,l),
(158,813,o),
(208,864,o),
(272,864,cs),
(332,864,o),
(383,813,o),
(383,752,c),
(473,752,l),
(473,863,o),
(383,954,o),
(272,954,cs)
);
},
{
closed = 1;
nodes = (
(68,1065,l),
(158,1065,l),
(158,1461,l),
(68,1461,l)
);
},
{
closed = 1;
nodes = (
(383,1065,l),
(473,1065,l),
(473,1461,l),
(383,1461,l)
);
},
{
closed = 1;
nodes = (
(68,954,o),
(158,864,o),
(272,864,cs),
(383,864,o),
(473,954,o),
(473,1065,c),
(383,1065,l),
(383,1005,o),
(332,954,o),
(272,954,cs),
(208,954,o),
(158,1005,o),
(158,1065,c),
(68,1065,l)
);
},
{
closed = 1;
nodes = (
(68,0,l),
(158,0,l),
(158,752,l),
(68,752,l)
);
},
{
closed = 1;
nodes = (
(383,0,l),
(473,0,l),
(473,752,l),
(383,752,l)
);
}
);
width = 541;
}
);
unicode = 88;
},
{
glyphname = Y;
kernLeft = "20";
kernRight = "20";
lastChange = "2024-04-18 14:55:36 +0000";
layers = (
{
anchors = (
{
name = top;
pos = (269,1546);
}
);
hints = (
{
name = _corner.serif;
options = 1;
origin = (2,2);
scale = (-1,1);
type = Corner;
},
{
name = _corner.serif;
origin = (3,1);
type = Corner;
},
{
name = _corner.serif;
options = 1;
origin = (1,0);
scale = (-1,1);
type = Corner;
},
{
name = _corner.serif;
origin = (1,3);
type = Corner;
}
);
layerId = "09B1AECD-0C97-4FC2-B876-53C5EBE935B2";
shapes = (
{
closed = 1;
nodes = (
(383,507,o),
(473,598,o),
(473,709,c),
(383,709,l),
(383,648,o),
(332,597,o),
(272,597,cs),
(208,597,o),
(158,648,o),
(158,709,c),
(68,709,l),
(68,598,o),
(158,507,o),
(272,507,cs)
);
},
{
closed = 1;
nodes = (
(314,0,l),
(314,556,l),
(224,556,l),
(224,0,l)
);
},
{
closed = 1;
nodes = (
(158,709,l),
(158,1461,l),
(68,1461,l),
(68,709,l)
);
},
{
closed = 1;
nodes = (
(473,709,l),
(473,1461,l),
(383,1461,l),
(383,709,l)
);
}
);
width = 541;
}
);
unicode = 89;
},
{
glyphname = Z;
kernLeft = "20";
kernRight = "20";
lastChange = "2024-04-18 14:55:36 +0000";
layers = (
{
anchors = (
{
name = top;
pos = (239,1546);
}
);
hints = (
{
name = _corner.serif;
options = 1;
origin = (0,7);
scale = (-1,1);
type = Corner;
}
);
layerId = "09B1AECD-0C97-4FC2-B876-53C5EBE935B2";
shapes = (
{
closed = 1;
nodes = (
(441,0,l),
(441,90,l),
(125,90,l),
(125,182,l),
(441,1252,l),
(441,1461,l),
(35,1461,l),
(35,1371,l),
(351,1371,l),
(351,1279,l),
(35,209,l),
(35,0,l)
);
}
);
width = 476;
}
);
unicode = 90;
},
{
glyphname = a;
kernLeft = "20";
kernRight = "20";
lastChange = "2024-04-18 14:55:36 +0000";
layers = (
{
anchors = (
{
name = top;
pos = (226,1068);
}
);
hints = (
{
name = _corner.serif;
options = 1;
origin = (3,0);
scale = (-1,1);
type = Corner;
}
);
layerId = "09B1AECD-0C97-4FC2-B876-53C5EBE935B2";
shapes = (
{
closed = 1;
nodes = (
(125,794,l),
(125,848,o),
(171,893,o),
(226,893,cs),
(279,893,o),
(325,848,o),
(325,794,c),
(415,794,l),
(415,899,o),
(331,984,o),
(226,984,cs),
(120,984,o),
(35,899,o),
(35,794,c)
);
},
{
closed = 1;
nodes = (
(226,90,l),
(171,90,o),
(125,136,o),
(125,189,c),
(35,189,l),
(35,84,o),
(120,0,o),
(226,0,c)
);
},
{
closed = 1;
nodes = (
(125,189,l),
(125,794,l),
(35,794,l),
(35,189,l)
);
},
{
closed = 1;
nodes = (
(415,0,l),
(415,794,l),
(325,794,l),
(325,0,l)
);
}
);
width = 483;
}
);
unicode = 97;
},
{
glyphname = ae;
kernLeft = "20";
kernRight = "20";
lastChange = "2024-04-18 14:55:36 +0000";
layers = (
{
layerId = "09B1AECD-0C97-4FC2-B876-53C5EBE935B2";
shapes = (
{
closed = 1;
nodes = (
(226,90,l),
(171,90,o),
(125,136,o),
(125,189,cs),
(125,794,ls),
(125,848,o),
(171,893,o),
(226,893,cs),
(279,893,o),
(325,848,o),
(325,794,cs),
(325,0,l),
(415,0,l),
(415,41,l),
(441,16,o),
(476,0,o),
(516,0,c),
(516,90,l),
(461,90,o),
(415,136,o),
(415,189,cs),
(415,794,ls),
(415,848,o),
(461,893,o),
(516,893,cs),
(569,893,o),
(615,848,o),
(615,794,c),
(518,794,l),
(518,704,l),
(705,704,l),
(705,794,ls),
(705,899,o),
(621,984,o),
(516,984,cs),
(456,984,o),
(403,954,o),
(371,909,c),
(338,954,o),
(285,984,o),
(226,984,cs),
(120,984,o),
(35,899,o),
(35,794,cs),
(35,189,ls),
(35,84,o),
(120,0,o),
(226,0,c)
);
}
);
width = 740;
}
);
unicode = 230;
},
{
glyphname = b;
kernLeft = "20";
kernRight = "20";
lastChange = "2024-04-18 14:55:36 +0000";
layers = (
{
hints = (
{
name = _corner.serif;
options = 1;
origin = (0,2);
scale = (-1,1);
type = Corner;
}
);
layerId = "09B1AECD-0C97-4FC2-B876-53C5EBE935B2";
shapes = (
{
closed = 1;
nodes = (
(158,189,l),
(158,1461,l),
(68,1461,l),
(68,189,l)
);
},
{
closed = 1;
nodes = (
(363,0,o),
(448,84,o),
(448,189,c),
(358,189,l),
(358,136,o),
(312,90,o),
(256,90,cs),
(203,90,o),
(158,136,o),
(158,189,c),
(68,189,l),
(68,84,o),
(152,0,o),
(256,0,cs)
);
},
{
closed = 1;
nodes = (
(448,189,l),
(448,794,l),
(358,794,l),
(358,189,l)
);
},
{
closed = 1;
nodes = (
(448,794,l),
(448,899,o),
(363,984,o),
(256,984,c),
(256,893,l),
(312,893,o),
(358,848,o),
(358,794,c)
);
}
);
width = 483;
}
);
unicode = 98;
userData = {
KernOnName = b;
};
},
{
glyphname = c;
kernLeft = "20";
kernRight = "20";
lastChange = "2024-04-18 14:55:36 +0000";
layers = (
{
anchors = (
{
name = bottom;
pos = (299,33);
}
);
layerId = "09B1AECD-0C97-4FC2-B876-53C5EBE935B2";
shapes = (
{
closed = 1;
nodes = (
(125,794,l),
(125,848,o),
(171,893,o),
(226,893,cs),
(279,893,o),
(325,848,o),
(325,794,c),
(415,794,l),
(415,899,o),
(331,984,o),
(226,984,cs),
(120,984,o),
(35,899,o),
(35,794,c)
);
},
{
closed = 1;
nodes = (
(331,0,o),
(415,84,o),
(415,189,c),
(325,189,l),
(325,136,o),
(279,90,o),
(226,90,cs),
(171,90,o),
(125,136,o),
(125,189,c),
(35,189,l),
(35,84,o),
(120,0,o),
(226,0,cs)
);
},
{
closed = 1;
nodes = (
(125,189,l),
(125,794,l),
(35,794,l),
(35,189,l)
);
}
);
width = 450;
}
);
unicode = 99;
},
{
glyphname = d;
kernLeft = "20";
kernRight = "20";
lastChange = "2024-04-18 14:55:36 +0000";
layers = (
{
hints = (
{
name = _corner.serif;
origin = (0,1);
type = Corner;
}
);
layerId = "09B1AECD-0C97-4FC2-B876-53C5EBE935B2";
shapes = (
{
closed = 1;
nodes = (
(415,189,l),
(415,1461,l),
(325,1461,l),
(325,189,l)
);
},
{
closed = 1;
nodes = (
(331,0,o),
(415,84,o),
(415,189,c),
(325,189,l),
(325,136,o),
(279,90,o),
(226,90,cs),
(171,90,o),
(125,136,o),
(125,189,c),
(35,189,l),
(35,84,o),
(120,0,o),
(226,0,cs)
);
},
{
closed = 1;
nodes = (
(125,189,l),
(125,794,l),
(35,794,l),
(35,189,l)
);
},
{
closed = 1;
nodes = (
(125,794,l),
(125,848,o),
(171,893,o),
(226,893,c),
(226,984,l),
(120,984,o),
(35,899,o),
(35,794,c)
);
}
);
width = 483;
}
);
unicode = 100;
},
{
glyphname = eth;
lastChange = "2024-04-18 14:55:36 +0000";
layers = (
{
layerId = "09B1AECD-0C97-4FC2-B876-53C5EBE935B2";
shapes = (
{
closed = 1;
nodes = (
(415,189,l),
(415,1461,l),
(325,1461,l),
(325,189,l)
);
},
{
closed = 1;
nodes = (
(331,0,o),
(415,84,o),
(415,189,c),
(325,189,l),
(325,136,o),
(279,90,o),
(226,90,cs),
(171,90,o),
(125,136,o),
(125,189,c),
(35,189,l),
(35,84,o),
(120,0,o),
(226,0,cs)
);
},
{
closed = 1;
nodes = (
(125,189,l),
(125,794,l),
(35,794,l),
(35,189,l)
);
},
{
closed = 1;
nodes = (
(125,794,l),
(125,848,o),
(171,893,o),
(226,893,c),
(226,984,l),
(120,984,o),
(35,899,o),
(35,794,c)
);
},
{
closed = 1;
nodes = (
(537,1071,l),
(537,1161,l),
(328,1161,l),
(328,1071,l)
);
}
);
width = 572;
}
);
unicode = 240;
},
{
glyphname = e;
kernLeft = "20";
kernRight = "20";
lastChange = "2024-04-18 14:55:36 +0000";
layers = (
{
anchors = (
{
name = top;
pos = (226,1068);
}
);
layerId = "09B1AECD-0C97-4FC2-B876-53C5EBE935B2";
shapes = (
{
closed = 1;
nodes = (
(125,794,l),
(125,848,o),
(171,893,o),
(226,893,cs),
(279,893,o),
(325,848,o),
(325,794,c),
(415,794,l),
(415,899,o),
(331,984,o),
(226,984,cs),
(120,984,o),
(35,899,o),
(35,794,c)
);
},
{
closed = 1;
nodes = (
(226,90,l),
(171,90,o),
(125,136,o),
(125,189,c),
(35,189,l),
(35,84,o),
(120,0,o),
(226,0,c)
);
},
{
closed = 1;
nodes = (
(125,189,l),
(125,794,l),
(35,794,l),
(35,189,l)
);
},
{
closed = 1;
nodes = (
(415,704,l),
(415,794,l),
(229,794,l),
(229,704,l)
);
}
);
width = 450;
}
);
unicode = 101;
userData = {
KernOnName = e;
};
},
{
glyphname = f;
kernLeft = "20";
kernRight = "20";
lastChange = "2024-04-18 14:55:36 +0000";
layers = (
{
hints = (
{
name = _corner.serif;
origin = (0,3);
type = Corner;
}
);
layerId = "09B1AECD-0C97-4FC2-B876-53C5EBE935B2";
shapes = (
{
closed = 1;
nodes = (
(158,0,l),
(158,1272,l),
(68,1272,l),
(68,0,l)
);
},
{
closed = 1;
nodes = (
(259,449,l),
(259,539,l),
(82,539,l),
(82,449,l)
);
},
{
closed = 1;
nodes = (
(158,1272,l),
(158,1325,o),
(203,1371,o),
(259,1371,c),
(259,1461,l),
(152,1461,o),
(68,1377,o),
(68,1272,c)
);
}
);
width = 294;
}
);
unicode = 102;
},
{
glyphname = g;
kernLeft = "0";
kernRight = "0";
lastChange = "2024-04-18 14:55:36 +0000";
layers = (
{
layerId = "09B1AECD-0C97-4FC2-B876-53C5EBE935B2";
shapes = (
{
closed = 1;
nodes = (
(331,-482,o),
(415,-397,o),
(415,-293,cs),
(415,189,l),
(325,189,l),
(325,136,o),
(279,90,o),
(226,90,cs),
(171,90,o),
(125,136,o),
(125,189,cs),
(125,794,ls),
(125,848,o),
(171,893,o),
(226,893,c),
(226,984,l),
(120,984,o),
(35,899,o),
(35,794,cs),
(35,189,ls),
(35,84,o),
(120,0,o),
(226,0,cs),
(265,0,o),
(300,16,o),
(325,41,c),
(325,-293,ls),
(325,-346,o),
(279,-392,o),
(224,-392,c),
(224,-482,l)
);
}
);
width = 450;
}
);
unicode = 103;
},
{
glyphname = h;
kernLeft = "20";
kernRight = "20";
lastChange = "2024-04-18 14:55:36 +0000";
layers = (
{
hints = (
{
name = _corner.serif;
origin = (0,19);
type = Corner;
},
{
name = _corner.serif;
options = 1;
origin = (0,9);
scale = (-1,1);
type = Corner;
},
{
name = _corner.serif;
options = 1;
origin = (0,18);
scale = (-1,1);
type = Corner;
}
);
layerId = "09B1AECD-0C97-4FC2-B876-53C5EBE935B2";
shapes = (
{
closed = 1;
nodes = (
(158,0,l),
(158,794,ls),
(158,848,o),
(203,893,o),
(259,893,cs),
(312,893,o),
(358,848,o),
(358,794,cs),
(358,0,l),
(448,0,l),
(448,794,ls),
(448,899,o),
(363,984,o),
(259,984,cs),
(218,984,o),
(184,968,o),
(158,943,c),
(158,1461,l),
(68,1461,l),
(68,0,l)
);
}
);
width = 515;
}
);
unicode = 104;
},
{
glyphname = i;
kernLeft = "20";
kernRight = "20";
lastChange = "2024-04-18 14:55:36 +0000";
layers = (
{
hints = (
{
name = _corner.serif;
options = 1;
origin = (0,2);
scale = (-1,1);
type = Corner;
},
{
name = _corner.serif;
options = 2;
origin = (0,3);
type = Corner;
}
);
layerId = "09B1AECD-0C97-4FC2-B876-53C5EBE935B2";
shapes = (
{
closed = 1;
nodes = (
(158,0,l),
(158,984,l),
(68,984,l),
(68,0,l)
);
},
{
closed = 1;
nodes = (
(137,1281,o),
(158,1300,o),
(158,1325,cs),
(158,1352,o),
(137,1371,o),
(111,1371,cs),
(87,1371,o),
(68,1352,o),
(68,1325,cs),
(68,1300,o),
(87,1281,o),
(111,1281,c)
);
}
);
width = 193;
}
);
unicode = 105;
userData = {
KernOnName = i;
};
},
{
glyphname = idotless;
kernLeft = "20";
kernRight = "20";
lastChange = "2024-04-18 14:55:36 +0000";
layers = (
{
anchors = (
{
name = top;
pos = (112,1068);
}
);
hints = (
{
name = _corner.serif;
options = 1;
origin = (0,2);
scale = (-1,1);
type = Corner;
},
{
name = _corner.serif;
options = 2;
origin = (0,3);
type = Corner;
}
);
layerId = "09B1AECD-0C97-4FC2-B876-53C5EBE935B2";
shapes = (
{
closed = 1;
nodes = (
(158,0,l),
(158,984,l),
(68,984,l),
(68,0,l)
);
}
);
width = 193;
}
);
unicode = 305;
},
{
glyphname = ij;
lastChange = "2024-04-18 14:55:36 +0000";
layers = (
{
hints = (
{
name = _corner.serif;
options = 1;
origin = (2,2);
scale = (-1,1);
type = Corner;
},
{
name = _corner.serif;
options = 2;
origin = (2,3);
type = Corner;
},
{
name = _corner.serif;
origin = (0,1);
type = Corner;
}
);
layerId = "09B1AECD-0C97-4FC2-B876-53C5EBE935B2";
shapes = (
{
closed = 1;
nodes = (
(349,-293,l),
(349,984,l),
(259,984,l),
(259,-293,l)
);
},
{
closed = 1;
nodes = (
(264,-482,o),
(349,-397,o),
(349,-293,c),
(259,-293,l),
(259,-346,o),
(213,-392,o),
(158,-392,c),
(158,-482,l)
);
},
{
closed = 1;
nodes = (
(158,0,l),
(158,984,l),
(68,984,l),
(68,0,l)
);
},
{
closed = 1;
nodes = (
(137,1281,o),
(158,1300,o),
(158,1325,cs),
(158,1352,o),
(137,1371,o),
(111,1371,cs),
(87,1371,o),
(68,1352,o),
(68,1325,cs),
(68,1300,o),
(87,1281,o),
(111,1281,c)
);
},
{
closed = 1;
nodes = (
(329,1284,o),
(349,1303,o),
(349,1328,cs),
(349,1355,o),
(329,1374,o),
(304,1374,cs),
(278,1374,o),
(259,1355,o),
(259,1328,cs),
(259,1303,o),
(278,1284,o),
(304,1284,c)
);
}
);
width = 416;
}
);
unicode = 307;
},
{
glyphname = j;
kernRight = "20";
lastChange = "2024-04-18 14:55:36 +0000";
layers = (
{
anchors = (
{
name = top;
pos = (209,1591);
}
);
hints = (
{
name = _corner.serif;
origin = (0,1);
type = Corner;
}
);
layerId = "09B1AECD-0C97-4FC2-B876-53C5EBE935B2";
shapes = (
{
closed = 1;
nodes = (
(226,-293,l),
(226,984,l),
(136,984,l),
(136,-293,l)
);
},
{
closed = 1;
nodes = (
(142,-482,o),
(226,-397,o),
(226,-293,c),
(136,-293,l),
(136,-346,o),
(91,-392,o),
(35,-392,c),
(35,-482,l)
);
},
{
closed = 1;
nodes = (
(207,1284,o),
(226,1303,o),
(226,1328,cs),
(226,1355,o),
(207,1374,o),
(181,1374,cs),
(156,1374,o),
(136,1355,o),
(136,1328,cs),
(136,1303,o),
(156,1284,o),
(181,1284,c)
);
}
);
width = 294;
}
);
unicode = 106;
userData = {
KernOnName = j;
};
},
{
glyphname = jdotless;
lastChange = "2024-04-18 14:55:36 +0000";
layers = (
{
hints = (
{
name = _corner.serif;
origin = (0,1);
type = Corner;
}
);
layerId = "09B1AECD-0C97-4FC2-B876-53C5EBE935B2";
shapes = (
{
closed = 1;
nodes = (
(226,-293,l),
(226,984,l),
(136,984,l),
(136,-293,l)
);
},
{
closed = 1;
nodes = (
(142,-482,o),
(226,-397,o),
(226,-293,c),
(136,-293,l),
(136,-346,o),
(91,-392,o),
(35,-392,c),
(35,-482,l)
);
}
);
width = 294;
}
);
unicode = 567;
},
{
glyphname = k;
kernLeft = "20";
kernRight = "20";
lastChange = "2024-04-18 14:55:36 +0000";
layers = (
{
hints = (
{
name = _corner.serif;
options = 1;
origin = (0,25);
scale = (-1,1);
type = Corner;
},
{
name = _corner.serif;
options = 2;
origin = (0,26);
type = Corner;
}
);
layerId = "09B1AECD-0C97-4FC2-B876-53C5EBE935B2";
shapes = (
{
closed = 1;
nodes = (
(158,0,l),
(158,141,l),
(184,116,o),
(218,101,o),
(259,101,cs),
(312,101,o),
(358,55,o),
(358,0,c),
(448,0,l),
(448,60,o),
(417,113,o),
(374,146,c),
(417,178,o),
(448,231,o),
(448,290,cs),
(448,984,l),
(358,984,l),
(358,290,ls),
(358,237,o),
(312,191,o),
(259,191,cs),
(203,191,o),
(158,237,o),
(158,290,cs),
(158,1461,l),
(68,1461,l),
(68,0,l)
);
}
);
width = 483;
}
);
unicode = 107;
userData = {
KernOnName = k;
};
},
{
glyphname = l;
kernLeft = "20";
kernRight = "20";
lastChange = "2024-04-18 14:55:36 +0000";
layers = (
{
hints = (
{
name = _corner.serif;
options = 1;
origin = (0,2);
scale = (-1,1);
type = Corner;
},
{
name = _corner.serif;
options = 2;
origin = (0,3);
type = Corner;
}
);
layerId = "09B1AECD-0C97-4FC2-B876-53C5EBE935B2";
shapes = (
{
closed = 1;
nodes = (
(158,0,l),
(158,1461,l),
(68,1461,l),
(68,0,l)
);
}
);
width = 194;
}
);
unicode = 108;
userData = {
KernOnName = l;
};
},
{
glyphname = m;
kernLeft = "20";
kernRight = "20";
lastChange = "2024-04-18 14:55:36 +0000";
layers = (
{
hints = (
{
name = _corner.serif;
origin = (0,32);
type = Corner;
},
{
name = _corner.serif;
options = 1;
origin = (0,18);
scale = (-1,1);
type = Corner;
}
);
layerId = "09B1AECD-0C97-4FC2-B876-53C5EBE935B2";
shapes = (
{
closed = 1;
nodes = (
(158,0,l),
(158,794,ls),
(158,848,o),
(203,893,o),
(259,893,cs),
(312,893,o),
(358,848,o),
(358,794,cs),
(358,0,l),
(448,0,l),
(448,794,ls),
(448,848,o),
(493,893,o),
(549,893,cs),
(602,893,o),
(648,848,o),
(648,794,cs),
(648,0,l),
(738,0,l),
(738,794,ls),
(738,899,o),
(653,984,o),
(549,984,cs),
(488,984,o),
(435,954,o),
(403,909,c),
(371,954,o),
(318,984,o),
(259,984,cs),
(152,984,o),
(68,899,o),
(68,794,cs),
(68,0,l)
);
}
);
width = 805;
}
);
unicode = 109;
},
{
glyphname = n;
kernLeft = "20";
kernRight = "20";
lastChange = "2024-04-18 14:55:36 +0000";
layers = (
{
anchors = (
{
name = top;
pos = (259,1068);
}
);
hints = (
{
name = _corner.serif;
origin = (1,3);
type = Corner;
},
{
name = _corner.serif;
options = 1;
origin = (2,0);
scale = (-1,1);
type = Corner;
}
);
layerId = "09B1AECD-0C97-4FC2-B876-53C5EBE935B2";
shapes = (
{
closed = 1;
nodes = (
(158,794,l),
(158,848,o),
(203,893,o),
(259,893,cs),
(312,893,o),
(358,848,o),
(358,794,c),
(448,794,l),
(448,899,o),
(363,984,o),
(259,984,cs),
(152,984,o),
(68,899,o),
(68,794,c)
);
},
{
closed = 1;
nodes = (
(158,0,l),
(158,794,l),
(68,794,l),
(68,0,l)
);
},
{
closed = 1;
nodes = (
(448,0,l),
(448,794,l),
(358,794,l),
(358,0,l)
);
}
);
width = 515;
}
);
unicode = 110;
userData = {
KernOnName = n;
};
},
{
glyphname = o;
kernLeft = "20";
kernRight = "20";
lastChange = "2024-04-18 14:55:36 +0000";
layers = (
{
anchors = (
{
name = top;
pos = (226,1068);
}
);
layerId = "09B1AECD-0C97-4FC2-B876-53C5EBE935B2";
shapes = (
{
closed = 1;
nodes = (
(125,794,l),
(125,848,o),
(171,893,o),
(226,893,cs),
(279,893,o),
(325,848,o),
(325,794,c),
(415,794,l),
(415,899,o),
(331,984,o),
(226,984,cs),
(120,984,o),
(35,899,o),
(35,794,c)
);
},
{
closed = 1;
nodes = (
(331,0,o),
(415,84,o),
(415,189,c),
(325,189,l),
(325,136,o),
(279,90,o),
(226,90,cs),
(171,90,o),
(125,136,o),
(125,189,c),
(35,189,l),
(35,84,o),
(120,0,o),
(226,0,cs)
);
},
{
closed = 1;
nodes = (
(125,189,l),
(125,794,l),
(35,794,l),
(35,189,l)
);
},
{
closed = 1;
nodes = (
(415,189,l),
(415,794,l),
(325,794,l),
(325,189,l)
);
}
);
width = 450;
}
);
unicode = 111;
userData = {
KernOnName = o;
};
},
{
glyphname = oslash;
kernLeft = "20";
kernRight = "20";
lastChange = "2024-04-18 14:55:36 +0000";
layers = (
{
anchors = (
{
name = top;
pos = (463,565);
}
);
layerId = "09B1AECD-0C97-4FC2-B876-53C5EBE935B2";
shapes = (
{
closed = 1;
nodes = (
(125,794,l),
(125,848,o),
(171,893,o),
(226,893,cs),
(279,893,o),
(325,848,o),
(325,794,c),
(415,794,l),
(415,899,o),
(331,984,o),
(226,984,cs),
(120,984,o),
(35,899,o),
(35,794,c)
);
},
{
closed = 1;
nodes = (
(132,0,l),
(177,81,l),
(98,119,l),
(35,0,l)
);
},
{
closed = 1;
nodes = (
(331,0,o),
(415,84,o),
(415,189,c),
(325,189,l),
(325,136,o),
(279,90,o),
(226,90,cs),
(171,90,o),
(125,136,o),
(125,189,c),
(35,189,l),
(35,84,o),
(120,0,o),
(226,0,cs)
);
},
{
closed = 1;
nodes = (
(125,189,l),
(125,794,l),
(35,794,l),
(35,189,l)
);
},
{
closed = 1;
nodes = (
(415,189,l),
(415,794,l),
(325,794,l),
(325,189,l)
);
},
{
closed = 1;
nodes = (
(415,984,l),
(318,984,l),
(282,919,l),
(357,873,l)
);
}
);
width = 450;
}
);
unicode = 248;
},
{
glyphname = oe;
kernLeft = "20";
kernRight = "20";
lastChange = "2024-04-18 14:55:36 +0000";
layers = (
{
layerId = "09B1AECD-0C97-4FC2-B876-53C5EBE935B2";
shapes = (
{
closed = 1;
nodes = (
(285,0,o),
(338,30,o),
(371,74,c),
(403,30,o),
(456,0,o),
(516,0,c),
(516,90,l),
(461,90,o),
(415,136,o),
(415,189,cs),
(415,794,ls),
(415,848,o),
(461,893,o),
(516,893,cs),
(569,893,o),
(615,848,o),
(615,794,c),
(518,794,l),
(518,704,l),
(705,704,l),
(705,794,ls),
(705,899,o),
(621,984,o),
(516,984,cs),
(456,984,o),
(403,954,o),
(371,909,c),
(338,954,o),
(285,984,o),
(226,984,cs),
(120,984,o),
(35,899,o),
(35,794,cs),
(35,189,ls),
(35,84,o),
(120,0,o),
(226,0,cs)
);
},
{
closed = 1;
nodes = (
(171,90,o),
(125,136,o),
(125,189,cs),
(125,794,ls),
(125,848,o),
(171,893,o),
(226,893,cs),
(279,893,o),
(325,848,o),
(325,794,cs),
(325,189,ls),
(325,136,o),
(279,90,o),
(226,90,cs)
);
}
);
width = 740;
}
);
unicode = 339;
},
{
glyphname = p;
kernLeft = "20";
kernRight = "20";
lastChange = "2024-04-18 14:55:36 +0000";
layers = (
{
hints = (
{
name = _corner.serif;
origin = (0,3);
type = Corner;
}
);
layerId = "09B1AECD-0C97-4FC2-B876-53C5EBE935B2";
shapes = (
{
closed = 1;
nodes = (
(158,-478,l),
(158,794,l),
(68,794,l),
(68,-478,l)
);
},
{
closed = 1;
nodes = (
(363,0,o),
(448,84,o),
(448,189,c),
(358,189,l),
(358,136,o),
(312,90,o),
(256,90,c),
(256,0,l)
);
},
{
closed = 1;
nodes = (
(448,189,l),
(448,794,l),
(358,794,l),
(358,189,l)
);
},
{
closed = 1;
nodes = (
(158,794,l),
(158,848,o),
(203,893,o),
(256,893,cs),
(312,893,o),
(358,848,o),
(358,794,c),
(448,794,l),
(448,899,o),
(363,984,o),
(256,984,cs),
(152,984,o),
(68,899,o),
(68,794,c)
);
}
);
width = 483;
}
);
unicode = 112;
userData = {
KernOnName = p;
};
},
{
glyphname = thorn;
lastChange = "2024-04-18 14:55:36 +0000";
layers = (
{
layerId = "09B1AECD-0C97-4FC2-B876-53C5EBE935B2";
shapes = (
{
closed = 1;
nodes = (
(125,-478,l),
(125,1461,l),
(35,1461,l),
(35,-478,l)
);
},
{
closed = 1;
nodes = (
(331,0,o),
(415,84,o),
(415,189,c),
(325,189,l),
(325,136,o),
(279,90,o),
(224,90,c),
(224,0,l)
);
},
{
closed = 1;
nodes = (
(415,189,l),
(415,794,l),
(325,794,l),
(325,189,l)
);
},
{
closed = 1;
nodes = (
(125,794,l),
(125,848,o),
(171,893,o),
(224,893,cs),
(279,893,o),
(325,848,o),
(325,794,c),
(415,794,l),
(415,899,o),
(331,984,o),
(224,984,cs),
(120,984,o),
(35,899,o),
(35,794,c)
);
}
);
width = 450;
}
);
unicode = 254;
},
{
glyphname = q;
kernLeft = "20";
kernRight = "20";
lastChange = "2024-04-18 14:55:36 +0000";
layers = (
{
layerId = "09B1AECD-0C97-4FC2-B876-53C5EBE935B2";
shapes = (
{
closed = 1;
nodes = (
(415,-99,l),
(415,-40,o),
(385,13,o),
(342,45,c),
(385,78,o),
(415,130,o),
(415,189,cs),
(415,794,ls),
(415,899,o),
(331,984,o),
(226,984,cs),
(120,984,o),
(35,899,o),
(35,794,cs),
(35,189,ls),
(35,84,o),
(120,0,o),
(226,0,cs),
(279,0,o),
(325,-46,o),
(325,-99,c)
);
},
{
closed = 1;
nodes = (
(171,90,o),
(125,136,o),
(125,189,cs),
(125,794,ls),
(125,848,o),
(171,893,o),
(226,893,cs),
(279,893,o),
(325,848,o),
(325,794,cs),
(325,189,ls),
(325,136,o),
(279,90,o),
(226,90,cs)
);
}
);
width = 450;
}
);
unicode = 113;
},
{
glyphname = r;
kernLeft = "20";
kernRight = "20";
lastChange = "2024-04-18 14:55:36 +0000";
layers = (
{
hints = (
{
name = _corner.serif;
origin = (0,3);
type = Corner;
}
);
layerId = "09B1AECD-0C97-4FC2-B876-53C5EBE935B2";
shapes = (
{
closed = 1;
nodes = (
(158,0,l),
(158,794,l),
(68,794,l),
(68,0,l)
);
},
{
closed = 1;
nodes = (
(158,794,l),
(158,848,o),
(203,893,o),
(259,893,c),
(259,984,l),
(152,984,o),
(68,899,o),
(68,794,c)
);
}
);
width = 294;
}
);
unicode = 114;
userData = {
KernOnName = r;
};
},
{
glyphname = s;
kernLeft = "20";
kernRight = "20";
lastChange = "2024-04-18 14:55:36 +0000";
layers = (
{
anchors = (
{
name = top;
pos = (226,1068);
}
);
layerId = "09B1AECD-0C97-4FC2-B876-53C5EBE935B2";
shapes = (
{
closed = 1;
nodes = (
(331,0,o),
(415,84,o),
(415,189,cs),
(415,537,l),
(125,537,l),
(125,794,ls),
(125,848,o),
(171,893,o),
(226,893,cs),
(253,893,o),
(277,883,o),
(296,864,c),
(359,928,l),
(326,961,o),
(279,984,o),
(226,984,cs),
(120,984,o),
(35,899,o),
(35,794,cs),
(35,447,l),
(325,447,l),
(325,189,ls),
(325,136,o),
(279,90,o),
(224,90,cs),
(198,90,o),
(173,101,o),
(155,119,c),
(91,56,l),
(124,23,o),
(172,0,o),
(224,0,cs)
);
}
);
width = 450;
}
);
unicode = 115;
},
{
glyphname = germandbls;
kernLeft = "20";
kernRight = "20";
lastChange = "2024-04-18 14:55:36 +0000";
layers = (
{
layerId = "09B1AECD-0C97-4FC2-B876-53C5EBE935B2";
shapes = (
{
closed = 1;
nodes = (
(125,0,l),
(125,1272,l),
(35,1272,l),
(35,0,l)
);
},
{
closed = 1;
nodes = (
(415,0,l),
(415,441,l),
(325,441,l),
(325,0,l)
);
},
{
closed = 1;
nodes = (
(415,441,l),
(415,546,o),
(331,630,o),
(226,630,c),
(226,540,l),
(279,540,o),
(325,494,o),
(325,441,c)
);
},
{
closed = 1;
nodes = (
(331,540,o),
(415,625,o),
(415,729,c),
(325,729,l),
(325,676,o),
(279,630,o),
(226,630,c),
(226,540,l)
);
},
{
closed = 1;
nodes = (
(415,729,l),
(415,1272,l),
(325,1272,l),
(325,729,l)
);
},
{
closed = 1;
nodes = (
(125,1272,l),
(125,1325,o),
(171,1371,o),
(226,1371,cs),
(279,1371,o),
(325,1325,o),
(325,1272,c),
(415,1272,l),
(415,1377,o),
(331,1461,o),
(226,1461,cs),
(120,1461,o),
(35,1377,o),
(35,1272,c)
);
}
);
width = 450;
}
);
unicode = 223;
},
{
glyphname = t;
kernLeft = "20";
kernRight = "20";
lastChange = "2024-04-18 14:55:36 +0000";
layers = (
{
hints = (
{
name = _corner.serif;
options = 1;
origin = (0,2);
scale = (-1,1);
type = Corner;
}
);
layerId = "09B1AECD-0C97-4FC2-B876-53C5EBE935B2";
shapes = (
{
closed = 1;
nodes = (
(158,189,l),
(158,1461,l),
(68,1461,l),
(68,189,l)
);
},
{
closed = 1;
nodes = (
(259,90,l),
(203,90,o),
(158,136,o),
(158,189,c),
(68,189,l),
(68,84,o),
(152,0,o),
(259,0,c)
);
},
{
closed = 1;
nodes = (
(259,893,l),
(259,984,l),
(82,984,l),
(82,893,l)
);
}
);
width = 294;
}
);
unicode = 116;
},
{
glyphname = u;
kernLeft = "20";
kernRight = "20";
lastChange = "2024-04-18 14:55:36 +0000";
layers = (
{
anchors = (
{
name = top;
pos = (259,1068);
}
);
hints = (
{
name = _corner.serif;
options = 1;
origin = (1,2);
scale = (-1,1);
type = Corner;
},
{
name = _corner.serif;
origin = (2,1);
type = Corner;
}
);
layerId = "09B1AECD-0C97-4FC2-B876-53C5EBE935B2";
shapes = (
{
closed = 1;
nodes = (
(363,0,o),
(448,84,o),
(448,189,c),
(358,189,l),
(358,136,o),
(312,90,o),
(259,90,cs),
(203,90,o),
(158,136,o),
(158,189,c),
(68,189,l),
(68,84,o),
(152,0,o),
(259,0,cs)
);
},
{
closed = 1;
nodes = (
(158,189,l),
(158,984,l),
(68,984,l),
(68,189,l)
);
},
{
closed = 1;
nodes = (
(448,189,l),
(448,984,l),
(358,984,l),
(358,189,l)
);
}
);
width = 515;
}
);
unicode = 117;
},
{
glyphname = v;
kernLeft = "20";
kernRight = "20";
lastChange = "2024-04-18 14:55:36 +0000";
layers = (
{
hints = (
{
name = _corner.serif;
options = 1;
origin = (0,1);
scale = (-1,1);
type = Corner;
},
{
name = _corner.serif;
origin = (0,6);
type = Corner;
}
);
layerId = "09B1AECD-0C97-4FC2-B876-53C5EBE935B2";
shapes = (
{
closed = 1;
nodes = (
(147,984,l),
(57,984,l),
(120,123,ls),
(133,-41,o),
(362,-41,o),
(377,123,cs),
(437,984,l),
(347,984,l),
(292,134,ls),
(289,73,o),
(209,73,o),
(204,134,cs)
);
}
);
width = 494;
}
);
unicode = 118;
},
{
glyphname = w;
kernLeft = "20";
kernRight = "20";
lastChange = "2024-04-18 14:55:36 +0000";
layers = (
{
anchors = (
{
name = top;
pos = (402,1068);
}
);
hints = (
{
name = _corner.serif;
options = 1;
origin = (2,2);
scale = (-1,1);
type = Corner;
},
{
name = _corner.serif;
origin = (4,1);
type = Corner;
}
);
layerId = "09B1AECD-0C97-4FC2-B876-53C5EBE935B2";
shapes = (
{
closed = 1;
nodes = (
(653,0,o),
(738,84,o),
(738,189,c),
(648,189,l),
(648,136,o),
(602,90,o),
(549,90,cs),
(493,90,o),
(448,136,o),
(448,189,c),
(358,189,l),
(358,84,o),
(442,0,o),
(549,0,cs)
);
},
{
closed = 1;
nodes = (
(363,0,o),
(448,84,o),
(448,189,c),
(358,189,l),
(358,136,o),
(312,90,o),
(259,90,cs),
(203,90,o),
(158,136,o),
(158,189,c),
(68,189,l),
(68,84,o),
(152,0,o),
(259,0,cs)
);
},
{
closed = 1;
nodes = (
(158,189,l),
(158,984,l),
(68,984,l),
(68,189,l)
);
},
{
closed = 1;
nodes = (
(448,189,l),
(448,984,l),
(358,984,l),
(358,189,l)
);
},
{
closed = 1;
nodes = (
(738,189,l),
(738,984,l),
(648,984,l),
(648,189,l)
);
}
);
width = 805;
}
);
unicode = 119;
},
{
glyphname = x;
kernLeft = "20";
kernRight = "20";
lastChange = "2024-04-18 14:55:36 +0000";
layers = (
{
hints = (
{
name = _corner.serif;
options = 1;
origin = (2,2);
scale = (-1,1);
type = Corner;
},
{
name = _corner.serif;
origin = (3,1);
type = Corner;
}
);
layerId = "09B1AECD-0C97-4FC2-B876-53C5EBE935B2";
shapes = (
{
closed = 1;
nodes = (
(363,99,o),
(448,183,o),
(448,288,c),
(358,288,l),
(358,235,o),
(312,189,o),
(259,189,cs),
(203,189,o),
(158,235,o),
(158,288,c),
(68,288,l),
(68,183,o),
(152,99,o),
(259,99,cs)
);
},
{
closed = 1;
nodes = (
(158,0,l),
(158,53,o),
(203,99,o),
(259,99,cs),
(312,99,o),
(358,53,o),
(358,0,c),
(448,0,l),
(448,104,o),
(363,189,o),
(259,189,cs),
(152,189,o),
(68,104,o),
(68,0,c)
);
},
{
closed = 1;
nodes = (
(158,288,l),
(158,984,l),
(68,984,l),
(68,288,l)
);
},
{
closed = 1;
nodes = (
(448,288,l),
(448,984,l),
(358,984,l),
(358,288,l)
);
}
);
width = 515;
}
);
unicode = 120;
},
{
glyphname = y;
kernLeft = "20";
kernRight = "20";
lastChange = "2024-04-18 14:55:36 +0000";
layers = (
{
anchors = (
{
name = top;
pos = (259,1068);
}
);
hints = (
{
name = _corner.serif;
origin = (0,1);
type = Corner;
},
{
name = _corner.serif;
options = 1;
origin = (3,2);
scale = (-1,1);
type = Corner;
}
);
layerId = "09B1AECD-0C97-4FC2-B876-53C5EBE935B2";
shapes = (
{
closed = 1;
nodes = (
(448,-293,l),
(448,984,l),
(358,984,l),
(358,-293,l)
);
},
{
closed = 1;
nodes = (
(363,-482,o),
(448,-397,o),
(448,-293,c),
(358,-293,l),
(358,-346,o),
(312,-392,o),
(256,-392,c),
(256,-482,l)
);
},
{
closed = 1;
nodes = (
(363,0,o),
(448,84,o),
(448,189,c),
(358,189,l),
(358,136,o),
(312,90,o),
(259,90,cs),
(203,90,o),
(158,136,o),
(158,189,c),
(68,189,l),
(68,84,o),
(152,0,o),
(259,0,cs)
);
},
{
closed = 1;
nodes = (
(158,189,l),
(158,984,l),
(68,984,l),
(68,189,l)
);
}
);
width = 515;
}
);
unicode = 121;
},
{
glyphname = z;
kernLeft = "20";
kernRight = "20";
lastChange = "2024-04-18 14:55:36 +0000";
layers = (
{
anchors = (
{
name = top;
pos = (200,1068);
}
);
layerId = "09B1AECD-0C97-4FC2-B876-53C5EBE935B2";
shapes = (
{
closed = 1;
nodes = (
(128,0,l),
(360,984,l),
(267,984,l),
(35,0,l)
);
},
{
closed = 1;
nodes = (
(227,0,l),
(227,90,l),
(95,90,l),
(38,0,l)
);
},
{
closed = 1;
nodes = (
(279,0,o),
(327,23,o),
(360,55,c),
(297,119,l),
(278,100,o),
(254,90,o),
(227,90,c),
(227,0,l)
);
},
{
closed = 1;
nodes = (
(118,883,o),
(142,893,o),
(168,893,c),
(168,984,l),
(116,984,o),
(68,961,o),
(35,928,c),
(99,864,l)
);
},
{
closed = 1;
nodes = (
(299,893,l),
(358,984,l),
(168,984,l),
(168,893,l)
);
}
);
width = 396;
}
);
unicode = 122;
},
{
glyphname = ordfeminine;
kernLeft = "20";
kernRight = "20";
lastChange = "2024-04-18 14:55:36 +0000";
layers = (
{
layerId = "09B1AECD-0C97-4FC2-B876-53C5EBE935B2";
shapes = (
{
closed = 1;
nodes = (
(83,1445,l),
(83,1491,o),
(123,1531,o),
(171,1531,cs),
(218,1531,o),
(257,1491,o),
(257,1445,c),
(305,1445,l),
(305,1519,o),
(246,1579,o),
(171,1579,cs),
(95,1579,o),
(35,1519,o),
(35,1445,c)
);
},
{
closed = 1;
nodes = (
(171,1235,l),
(123,1235,o),
(83,1273,o),
(83,1320,c),
(35,1320,l),
(35,1245,o),
(95,1185,o),
(171,1185,c)
);
},
{
closed = 1;
nodes = (
(83,1320,l),
(83,1445,l),
(35,1445,l),
(35,1320,l)
);
},
{
closed = 1;
nodes = (
(305,1185,l),
(305,1445,l),
(257,1445,l),
(257,1185,l)
);
}
);
width = 340;
}
);
unicode = 170;
userData = {
KernOnSpecialSpacing = {
L = superiors;
R = superiors;
};
};
},
{
glyphname = ordmasculine;
kernLeft = "20";
kernRight = "20";
lastChange = "2024-04-18 14:55:36 +0000";
layers = (
{
layerId = "09B1AECD-0C97-4FC2-B876-53C5EBE935B2";
shapes = (
{
closed = 1;
nodes = (
(83,1441,l),
(83,1486,o),
(123,1526,o),
(171,1526,cs),
(217,1526,o),
(257,1486,o),
(257,1441,c),
(305,1441,l),
(305,1514,o),
(245,1575,o),
(171,1575,cs),
(95,1575,o),
(35,1514,o),
(35,1441,c)
);
},
{
closed = 1;
nodes = (
(245,1182,o),
(305,1242,o),
(305,1316,c),
(257,1316,l),
(257,1270,o),
(217,1230,o),
(171,1230,cs),
(123,1230,o),
(83,1270,o),
(83,1316,c),
(35,1316,l),
(35,1242,o),
(95,1182,o),
(171,1182,cs)
);
},
{
closed = 1;
nodes = (
(83,1316,l),
(83,1441,l),
(35,1441,l),
(35,1316,l)
);
},
{
closed = 1;
nodes = (
(305,1316,l),
(305,1441,l),
(257,1441,l),
(257,1316,l)
);
}
);
width = 340;
}
);
unicode = 186;
userData = {
KernOnSpecialSpacing = {
L = superiors;
R = superiors;
};
};
},
{
glyphname = "Be-cy";
lastChange = "2024-04-18 14:55:36 +0000";
layers = (
{
hints = (
{
name = _corner.serif;
origin = (0,26);
type = Corner;
}
);
layerId = "09B1AECD-0C97-4FC2-B876-53C5EBE935B2";
shapes = (
{
closed = 1;
nodes = (
(383,0,o),
(473,90,o),
(473,201,cs),
(473,947,ls),
(473,1058,o),
(383,1148,o),
(272,1148,c),
(272,1058,l),
(332,1058,o),
(383,1008,o),
(383,947,cs),
(383,201,ls),
(383,141,o),
(332,90,o),
(269,90,c),
(158,90,l),
(158,1371,l),
(272,1371,ls),
(332,1371,o),
(383,1320,o),
(383,1260,c),
(473,1260,l),
(473,1371,o),
(383,1461,o),
(272,1461,cs),
(68,1461,l),
(68,0,l),
(269,0,l)
);
}
);
width = 508;
}
);
unicode = 1041;
},
{
glyphname = "De-cy";
lastChange = "2024-04-18 14:55:36 +0000";
layers = (
{
hints = (
{
name = _corner.serif;
origin = (0,0);
type = Corner;
},
{
name = _corner.serif;
options = 1;
origin = (0,7);
scale = (-1,1);
type = Corner;
}
);
layerId = "09B1AECD-0C97-4FC2-B876-53C5EBE935B2";
shapes = (
{
closed = 1;
nodes = (
(58,0,l),
(148,0,l),
(231,1328,ls),
(233,1387,o),
(292,1387,o),
(293,1328,cs),
(373,0,l),
(463,0,l),
(380,1349,ls),
(367,1507,o),
(157,1507,o),
(144,1349,cs)
);
},
{
closed = 1;
nodes = (
(101,0,l),
(430,0,l),
(430,90,l),
(101,90,l)
);
}
);
width = 521;
}
);
unicode = 1044;
},
{
glyphname = "Zhe-cy";
lastChange = "2024-04-18 14:55:36 +0000";
layers = (
{
hints = (
{
name = _corner.serif;
options = 1;
origin = (1,0);
scale = (-1,1);
type = Corner;
},
{
name = _corner.serif;
origin = (5,2);
type = Corner;
}
);
layerId = "09B1AECD-0C97-4FC2-B876-53C5EBE935B2";
shapes = (
{
closed = 1;
nodes = (
(473,0,l),
(473,1461,l),
(383,1461,l),
(383,0,l)
);
},
{
closed = 1;
nodes = (
(789,0,l),
(789,396,l),
(699,396,l),
(699,0,l)
);
},
{
closed = 1;
nodes = (
(473,396,l),
(473,456,o),
(524,507,o),
(587,507,cs),
(648,507,o),
(699,456,o),
(699,396,c),
(789,396,l),
(789,507,o),
(698,597,o),
(587,597,cs),
(474,597,o),
(383,507,o),
(383,396,c)
);
},
{
closed = 1;
nodes = (
(698,507,o),
(789,598,o),
(789,709,c),
(699,709,l),
(699,648,o),
(648,597,o),
(587,597,c),
(587,507,l)
);
},
{
closed = 1;
nodes = (
(789,709,l),
(789,1461,l),
(699,1461,l),
(699,709,l)
);
},
{
closed = 1;
nodes = (
(158,396,l),
(68,396,l),
(68,0,l),
(158,0,l)
);
},
{
closed = 1;
nodes = (
(473,507,o),
(383,597,o),
(269,597,cs),
(158,597,o),
(68,507,o),
(68,396,c),
(158,396,l),
(158,456,o),
(208,507,o),
(269,507,cs),
(332,507,o),
(383,456,o),
(383,396,c),
(473,396,l)
);
},
{
closed = 1;
nodes = (
(269,597,l),
(208,597,o),
(158,648,o),
(158,709,c),
(68,709,l),
(68,598,o),
(158,507,o),
(269,507,c)
);
},
{
closed = 1;
nodes = (
(158,1461,l),
(68,1461,l),
(68,709,l),
(158,709,l)
);
}
);
width = 856;
}
);
unicode = 1046;
},
{
glyphname = "Ii-cy";
lastChange = "2024-04-18 14:55:36 +0000";
layers = (
{
hints = (
{
name = _corner.serif;
options = 1;
origin = (3,0);
scale = (-1,1);
type = Corner;
}
);
layerId = "09B1AECD-0C97-4FC2-B876-53C5EBE935B2";
shapes = (
{
closed = 1;
nodes = (
(125,0,l),
(125,1461,l),
(35,1461,l),
(35,0,l)
);
},
{
closed = 1;
nodes = (
(239,0,l),
(239,90,l),
(41,90,l),
(41,0,l)
);
},
{
closed = 1;
nodes = (
(350,0,o),
(441,90,o),
(441,201,c),
(351,201,l),
(351,141,o),
(300,90,o),
(239,90,c),
(239,0,l)
);
},
{
closed = 1;
nodes = (
(441,0,l),
(441,1461,l),
(351,1461,l),
(351,0,l)
);
}
);
width = 508;
}
);
unicode = 1048;
},
{
glyphname = "Iishort-cy";
lastChange = "2024-04-18 14:55:36 +0000";
layers = (
{
hints = (
{
name = _corner.serif;
options = 1;
origin = (3,0);
scale = (-1,1);
type = Corner;
}
);
layerId = "09B1AECD-0C97-4FC2-B876-53C5EBE935B2";
shapes = (
{
closed = 1;
nodes = (
(125,0,l),
(125,1461,l),
(35,1461,l),
(35,0,l)
);
},
{
closed = 1;
nodes = (
(239,0,l),
(239,90,l),
(41,90,l),
(41,0,l)
);
},
{
closed = 1;
nodes = (
(350,0,o),
(441,90,o),
(441,201,c),
(351,201,l),
(351,141,o),
(300,90,o),
(239,90,c),
(239,0,l)
);
},
{
closed = 1;
nodes = (
(441,0,l),
(441,1461,l),
(351,1461,l),
(351,0,l)
);
},
{
closed = 1;
nodes = (
(315,1637,o),
(380,1701,o),
(380,1778,c),
(324,1778,l),
(324,1732,o),
(285,1694,o),
(239,1694,cs),
(191,1694,o),
(152,1732,o),
(152,1778,c),
(96,1778,l),
(96,1701,o),
(159,1637,o),
(239,1637,cs)
);
}
);
width = 508;
}
);
unicode = 1049;
},
{
glyphname = "Em-cy";
lastChange = "2024-04-18 14:55:36 +0000";
layers = (
{
hints = (
{
name = _corner.serif;
options = 1;
origin = (0,0);
scale = (-1,1);
type = Corner;
},
{
name = _corner.serif;
origin = (1,3);
type = Corner;
}
);
layerId = "09B1AECD-0C97-4FC2-B876-53C5EBE935B2";
shapes = (
{
closed = 1;
nodes = (
(789,0,l),
(789,1461,l),
(699,1461,l),
(699,0,l)
);
},
{
closed = 1;
nodes = (
(158,0,l),
(158,1461,l),
(68,1461,l),
(68,0,l)
);
},
{
closed = 1;
nodes = (
(473,0,l),
(473,1260,l),
(383,1260,l),
(383,0,l)
);
},
{
closed = 1;
nodes = (
(272,1371,l),
(272,1461,l),
(101,1461,l),
(101,1371,l)
);
},
{
closed = 1;
nodes = (
(473,1260,l),
(473,1371,o),
(383,1461,o),
(272,1461,c),
(272,1371,l),
(332,1371,o),
(383,1320,o),
(383,1260,c)
);
},
{
closed = 1;
nodes = (
(473,1260,l),
(473,1320,o),
(524,1371,o),
(587,1371,c),
(587,1461,l),
(474,1461,o),
(383,1371,o),
(383,1260,c)
);
},
{
closed = 1;
nodes = (
(747,1371,l),
(747,1461,l),
(587,1461,l),
(587,1371,l)
);
}
);
width = 856;
}
);
unicode = 1052;
},
{
glyphname = "Pe-cy";
lastChange = "2024-04-18 14:55:36 +0000";
layers = (
{
anchors = (
{
name = top;
pos = (269,1546);
}
);
hints = (
{
name = _corner.serif;
options = 1;
origin = (0,7);
scale = (-1,1);
type = Corner;
},
{
name = _corner.serif;
origin = (0,13);
type = Corner;
}
);
layerId = "09B1AECD-0C97-4FC2-B876-53C5EBE935B2";
shapes = (
{
closed = 1;
nodes = (
(158,0,l),
(158,1371,l),
(272,1371,ls),
(332,1371,o),
(383,1320,o),
(383,1260,cs),
(383,0,l),
(473,0,l),
(473,1260,ls),
(473,1371,o),
(383,1461,o),
(272,1461,cs),
(68,1461,l),
(68,0,l)
);
}
);
width = 541;
}
);
unicode = 1055;
},
{
glyphname = "U-cy";
lastChange = "2024-04-18 14:55:36 +0000";
layers = (
{
anchors = (
{
name = top;
pos = (271,1546);
}
);
hints = (
{
name = _corner.serif;
options = 1;
origin = (1,3);
scale = (-1,1);
type = Corner;
},
{
name = _corner.serif;
origin = (3,2);
type = Corner;
}
);
layerId = "09B1AECD-0C97-4FC2-B876-53C5EBE935B2";
shapes = (
{
closed = 1;
nodes = (
(68,954,o),
(158,864,o),
(272,864,cs),
(383,864,o),
(473,954,o),
(473,1065,c),
(383,1065,l),
(383,1005,o),
(332,954,o),
(272,954,cs),
(208,954,o),
(158,1005,o),
(158,1065,c),
(68,1065,l)
);
},
{
closed = 1;
nodes = (
(68,1065,l),
(158,1065,l),
(158,1461,l),
(68,1461,l)
);
},
{
closed = 1;
nodes = (
(68,90,o),
(158,0,o),
(272,0,cs),
(383,0,o),
(473,90,o),
(473,201,c),
(383,201,l),
(383,141,o),
(332,90,o),
(272,90,cs),
(208,90,o),
(158,141,o),
(158,201,c),
(68,201,l)
);
},
{
closed = 1;
nodes = (
(383,201,l),
(473,201,l),
(473,1461,l),
(383,1461,l)
);
}
);
width = 541;
}
);
unicode = 1059;
},
{
glyphname = "Ef-cy";
lastChange = "2024-04-18 14:55:36 +0000";
layers = (
{
hints = (
{
name = _corner.serif;
options = 1;
origin = (0,0);
scale = (-1,1);
type = Corner;
},
{
name = _corner.serif;
origin = (0,28);
type = Corner;
}
);
layerId = "09B1AECD-0C97-4FC2-B876-53C5EBE935B2";
shapes = (
{
closed = 1;
nodes = (
(441,0,l),
(441,551,l),
(470,524,o),
(509,507,o),
(555,507,cs),
(666,507,o),
(756,598,o),
(756,709,cs),
(756,1260,ls),
(756,1371,o),
(666,1461,o),
(555,1461,cs),
(489,1461,o),
(431,1428,o),
(396,1381,c),
(361,1428,o),
(303,1461,o),
(236,1461,cs),
(126,1461,o),
(35,1371,o),
(35,1260,cs),
(35,709,ls),
(35,598,o),
(126,507,o),
(236,507,cs),
(282,507,o),
(321,524,o),
(351,551,c),
(351,0,l)
);
},
{
closed = 1;
nodes = (
(176,597,o),
(125,648,o),
(125,709,cs),
(125,1260,ls),
(125,1320,o),
(176,1371,o),
(236,1371,cs),
(300,1371,o),
(351,1320,o),
(351,1260,cs),
(351,709,ls),
(351,648,o),
(300,597,o),
(236,597,cs)
);
},
{
closed = 1;
nodes = (
(492,597,o),
(441,648,o),
(441,709,cs),
(441,1260,ls),
(441,1320,o),
(492,1371,o),
(555,1371,cs),
(615,1371,o),
(666,1320,o),
(666,1260,cs),
(666,709,ls),
(666,648,o),
(615,597,o),
(555,597,cs)
);
}
);
width = 791;
}
);
unicode = 1060;
},
{
glyphname = "Tse-cy";
lastChange = "2024-04-18 14:55:36 +0000";
layers = (
{
hints = (
{
name = _corner.serif;
options = 1;
origin = (0,2);
scale = (-1,1);
type = Corner;
},
{
name = _corner.serif;
origin = (3,1);
type = Corner;
}
);
layerId = "09B1AECD-0C97-4FC2-B876-53C5EBE935B2";
shapes = (
{
closed = 1;
nodes = (
(158,0,l),
(158,1461,l),
(68,1461,l),
(68,0,l)
);
},
{
closed = 1;
nodes = (
(271,0,l),
(271,90,l),
(74,90,l),
(74,0,l)
);
},
{
closed = 1;
nodes = (
(383,0,o),
(473,90,o),
(473,201,c),
(383,201,l),
(383,141,o),
(332,90,o),
(271,90,c),
(271,0,l)
);
},
{
closed = 1;
nodes = (
(473,90,l),
(473,1461,l),
(383,1461,l),
(383,90,l)
);
},
{
closed = 1;
nodes = (
(587,-21,l),
(524,-21,o),
(473,30,o),
(473,90,c),
(383,90,l),
(383,-21,o),
(474,-111,o),
(587,-111,c)
);
}
);
width = 623;
}
);
unicode = 1062;
},
{
glyphname = "Shcha-cy";
lastChange = "2024-04-18 14:55:36 +0000";
layers = (
{
anchors = (
{
name = top;
pos = (428,1546);
}
);
hints = (
{
name = _corner.serif;
options = 1;
origin = (0,26);
scale = (-1,1);
type = Corner;
},
{
name = _corner.serif;
origin = (1,4);
type = Corner;
}
);
layerId = "09B1AECD-0C97-4FC2-B876-53C5EBE935B2";
shapes = (
{
closed = 1;
nodes = (
(336,0,o),
(393,33,o),
(429,80,c),
(464,33,o),
(521,0,o),
(587,0,cs),
(698,0,o),
(789,90,o),
(789,201,c),
(699,201,l),
(699,141,o),
(648,90,o),
(587,90,cs),
(524,90,o),
(473,141,o),
(473,201,cs),
(473,1461,l),
(383,1461,l),
(383,201,ls),
(383,141,o),
(332,90,o),
(272,90,cs),
(208,90,o),
(158,141,o),
(158,201,cs),
(158,1461,l),
(68,1461,l),
(68,201,ls),
(68,90,o),
(158,0,o),
(272,0,cs)
);
},
{
closed = 1;
nodes = (
(903,-21,l),
(840,-21,o),
(789,30,o),
(789,90,cs),
(789,1461,l),
(699,1461,l),
(699,90,ls),
(699,-21,o),
(789,-111,o),
(903,-111,c)
);
}
);
width = 938;
}
);
unicode = 1065;
},
{
glyphname = "Softsign-cy";
lastChange = "2024-04-18 14:55:36 +0000";
layers = (
{
hints = (
{
name = _corner.serif;
options = 1;
origin = (0,11);
scale = (-1,1);
type = Corner;
}
);
layerId = "09B1AECD-0C97-4FC2-B876-53C5EBE935B2";
shapes = (
{
closed = 1;
nodes = (
(383,0,o),
(473,90,o),
(473,201,cs),
(473,752,ls),
(473,863,o),
(383,954,o),
(272,954,cs),
(226,954,o),
(188,938,o),
(158,911,c),
(158,1461,l),
(68,1461,l),
(68,201,ls),
(68,90,o),
(158,0,o),
(272,0,cs)
);
},
{
closed = 1;
nodes = (
(208,90,o),
(158,141,o),
(158,201,cs),
(158,752,ls),
(158,813,o),
(208,864,o),
(272,864,cs),
(332,864,o),
(383,813,o),
(383,752,cs),
(383,201,ls),
(383,141,o),
(332,90,o),
(272,90,cs)
);
}
);
width = 508;
}
);
unicode = 1068;
},
{
glyphname = "Yeru-cy";
lastChange = "2024-04-18 14:55:36 +0000";
layers = (
{
anchors = (
{
name = top;
pos = (651,1546);
}
);
hints = (
{
name = _corner.serif;
options = 1;
origin = (0,11);
scale = (-1,1);
type = Corner;
},
{
name = _corner.serif;
options = 1;
origin = (2,0);
scale = (-1,1);
type = Corner;
},
{
name = _corner.serif;
options = 2;
origin = (2,1);
type = Corner;
}
);
layerId = "09B1AECD-0C97-4FC2-B876-53C5EBE935B2";
shapes = (
{
closed = 1;
nodes = (
(383,0,o),
(473,90,o),
(473,201,cs),
(473,752,ls),
(473,863,o),
(383,954,o),
(272,954,cs),
(226,954,o),
(188,938,o),
(158,911,c),
(158,1461,l),
(68,1461,l),
(68,201,ls),
(68,90,o),
(158,0,o),
(272,0,cs)
);
},
{
closed = 1;
nodes = (
(208,90,o),
(158,141,o),
(158,201,cs),
(158,752,ls),
(158,813,o),
(208,864,o),
(272,864,cs),
(332,864,o),
(383,813,o),
(383,752,cs),
(383,201,ls),
(383,141,o),
(332,90,o),
(272,90,cs)
);
},
{
closed = 1;
nodes = (
(697,0,l),
(697,1461,l),
(607,1461,l),
(607,0,l)
);
}
);
width = 764;
}
);
unicode = 1067;
},
{
glyphname = "Hardsign-cy";
lastChange = "2024-04-18 14:55:36 +0000";
layers = (
{
layerId = "09B1AECD-0C97-4FC2-B876-53C5EBE935B2";
shapes = (
{
closed = 1;
nodes = (
(239,201,l),
(239,1260,ls),
(239,1371,o),
(149,1461,o),
(35,1461,c),
(35,1371,l),
(99,1371,o),
(149,1320,o),
(149,1260,cs),
(149,201,l)
);
},
{
closed = 1;
nodes = (
(465,0,o),
(555,90,o),
(555,201,c),
(465,201,l),
(465,141,o),
(414,90,o),
(354,90,cs),
(290,90,o),
(239,141,o),
(239,201,c),
(149,201,l),
(149,90,o),
(240,0,o),
(354,0,cs)
);
},
{
closed = 1;
nodes = (
(555,201,l),
(555,752,l),
(465,752,l),
(465,201,l)
);
},
{
closed = 1;
nodes = (
(239,752,l),
(239,813,o),
(290,864,o),
(354,864,cs),
(414,864,o),
(465,813,o),
(465,752,c),
(555,752,l),
(555,863,o),
(465,954,o),
(354,954,cs),
(240,954,o),
(149,863,o),
(149,752,c)
);
}
);
width = 590;
}
);
unicode = 1066;
},
{
glyphname = "Ereversed-cy";
lastChange = "2024-04-18 14:55:36 +0000";
layers = (
{
anchors = (
{
name = top;
pos = (237,1546);
}
);
layerId = "09B1AECD-0C97-4FC2-B876-53C5EBE935B2";
shapes = (
{
closed = 1;
nodes = (
(441,201,l),
(441,1260,ls),
(441,1371,o),
(350,1461,o),
(236,1461,cs),
(126,1461,o),
(35,1371,o),
(35,1260,c),
(125,1260,l),
(125,1320,o),
(176,1371,o),
(236,1371,cs),
(300,1371,o),
(351,1320,o),
(351,1260,cs),
(351,201,l)
);
},
{
closed = 1;
nodes = (
(350,0,o),
(441,90,o),
(441,201,c),
(351,201,l),
(351,141,o),
(300,90,o),
(236,90,cs),
(176,90,o),
(125,141,o),
(125,201,c),
(35,201,l),
(35,90,o),
(126,0,o),
(236,0,cs)
);
},
{
closed = 1;
nodes = (
(421,686,l),
(421,776,l),
(213,776,l),
(213,686,l)
);
}
);
width = 476;
}
);
unicode = 1069;
},
{
glyphname = "Yu-cy";
lastChange = "2024-04-18 14:55:36 +0000";
layers = (
{
hints = (
{
name = _corner.serif;
origin = (0,3);
type = Corner;
}
);
layerId = "09B1AECD-0C97-4FC2-B876-53C5EBE935B2";
shapes = (
{
closed = 1;
nodes = (
(158,0,l),
(158,1461,l),
(68,1461,l),
(68,0,l)
);
},
{
closed = 1;
nodes = (
(473,1260,l),
(473,1320,o),
(524,1371,o),
(587,1371,cs),
(648,1371,o),
(699,1320,o),
(699,1260,c),
(789,1260,l),
(789,1371,o),
(698,1461,o),
(587,1461,cs),
(474,1461,o),
(383,1371,o),
(383,1260,c)
);
},
{
closed = 1;
nodes = (
(698,0,o),
(789,90,o),
(789,201,c),
(699,201,l),
(699,141,o),
(648,90,o),
(587,90,cs),
(524,90,o),
(473,141,o),
(473,201,c),
(383,201,l),
(383,90,o),
(474,0,o),
(587,0,cs)
);
},
{
closed = 1;
nodes = (
(473,201,l),
(473,1260,l),
(383,1260,l),
(383,201,l)
);
},
{
closed = 1;
nodes = (
(789,201,l),
(789,1260,l),
(699,1260,l),
(699,201,l)
);
},
{
closed = 1;
nodes = (
(158,201,l),
(158,262,o),
(208,313,o),
(272,313,cs),
(332,313,o),
(383,262,o),
(383,201,c),
(473,201,l),
(473,312,o),
(383,403,o),
(272,403,cs),
(158,403,o),
(68,312,o),
(68,201,c)
);
}
);
width = 824;
}
);
unicode = 1070;
},
{
glyphname = "be-cy";
lastChange = "2024-04-18 14:55:36 +0000";
layers = (
{
layerId = "09B1AECD-0C97-4FC2-B876-53C5EBE935B2";
shapes = (
{
closed = 1;
nodes = (
(125,189,l),
(125,1272,l),
(35,1272,l),
(35,189,l)
);
},
{
closed = 1;
nodes = (
(331,0,o),
(415,84,o),
(415,189,c),
(325,189,l),
(325,136,o),
(279,90,o),
(224,90,cs),
(171,90,o),
(125,136,o),
(125,189,c),
(35,189,l),
(35,84,o),
(120,0,o),
(224,0,cs)
);
},
{
closed = 1;
nodes = (
(415,189,l),
(415,794,l),
(325,794,l),
(325,189,l)
);
},
{
closed = 1;
nodes = (
(415,794,l),
(415,899,o),
(331,984,o),
(224,984,c),
(224,893,l),
(279,893,o),
(325,848,o),
(325,794,c)
);
},
{
closed = 1;
nodes = (
(125,1272,l),
(125,1325,o),
(171,1371,o),
(226,1371,c),
(226,1461,l),
(120,1461,o),
(35,1377,o),
(35,1272,c)
);
}
);
width = 450;
}
);
unicode = 1073;
},
{
glyphname = "ve-cy";
lastChange = "2024-04-18 14:55:36 +0000";
layers = (
{
layerId = "09B1AECD-0C97-4FC2-B876-53C5EBE935B2";
shapes = (
{
closed = 1;
nodes = (
(125,1272,l),
(125,1325,o),
(171,1371,o),
(224,1371,cs),
(279,1371,o),
(325,1325,o),
(325,1272,c),
(415,1272,l),
(415,1377,o),
(331,1461,o),
(224,1461,cs),
(120,1461,o),
(35,1377,o),
(35,1272,c)
);
},
{
closed = 1;
nodes = (
(331,0,o),
(415,84,o),
(415,189,c),
(325,189,l),
(325,136,o),
(279,90,o),
(224,90,cs),
(171,90,o),
(125,136,o),
(125,189,c),
(35,189,l),
(35,84,o),
(120,0,o),
(224,0,cs)
);
},
{
closed = 1;
nodes = (
(125,189,l),
(125,1272,l),
(35,1272,l),
(35,189,l)
);
},
{
closed = 1;
nodes = (
(415,189,l),
(415,794,l),
(325,794,l),
(325,189,l)
);
},
{
closed = 1;
nodes = (
(415,794,l),
(415,899,o),
(331,984,o),
(224,984,c),
(224,893,l),
(279,893,o),
(325,848,o),
(325,794,c)
);
},
{
closed = 1;
nodes = (
(331,893,o),
(415,978,o),
(415,1082,c),
(325,1082,l),
(325,1029,o),
(279,984,o),
(224,984,c),
(224,893,l)
);
},
{
closed = 1;
nodes = (
(415,1082,l),
(415,1272,l),
(325,1272,l),
(325,1082,l)
);
}
);
width = 450;
}
);
unicode = 1074;
},
{
glyphname = "ge-cy";
lastChange = "2024-04-18 14:55:36 +0000";
layers = (
{
hints = (
{
name = _corner.serif;
origin = (0,3);
type = Corner;
}
);
layerId = "09B1AECD-0C97-4FC2-B876-53C5EBE935B2";
shapes = (
{
closed = 1;
nodes = (
(158,0,l),
(158,794,l),
(68,794,l),
(68,0,l)
);
},
{
closed = 1;
nodes = (
(158,794,l),
(158,848,o),
(203,893,o),
(259,893,c),
(259,984,l),
(152,984,o),
(68,899,o),
(68,794,c)
);
}
);
width = 294;
}
);
unicode = 1075;
},
{
glyphname = "de-cy";
lastChange = "2024-04-18 14:55:36 +0000";
layers = (
{
layerId = "09B1AECD-0C97-4FC2-B876-53C5EBE935B2";
shapes = (
{
closed = 1;
nodes = (
(325,794,l),
(325,-289,l),
(415,-289,l),
(415,794,l)
);
},
{
closed = 1;
nodes = (
(120,984,o),
(35,899,o),
(35,794,c),
(125,794,l),
(125,848,o),
(171,893,o),
(226,893,cs),
(279,893,o),
(325,848,o),
(325,794,c),
(415,794,l),
(415,899,o),
(331,984,o),
(226,984,cs)
);
},
{
closed = 1;
nodes = (
(35,794,l),
(35,189,l),
(125,189,l),
(125,794,l)
);
},
{
closed = 1;
nodes = (
(35,189,l),
(35,84,o),
(120,0,o),
(226,0,c),
(226,90,l),
(171,90,o),
(125,136,o),
(125,189,c)
);
},
{
closed = 1;
nodes = (
(325,-289,l),
(325,-342,o),
(279,-388,o),
(224,-388,c),
(224,-478,l),
(331,-478,o),
(415,-393,o),
(415,-289,c)
);
}
);
width = 450;
}
);
unicode = 1076;
},
{
glyphname = "zhe-cy";
lastChange = "2024-04-18 14:55:36 +0000";
layers = (
{
hints = (
{
name = _corner.serif;
origin = (0,32);
type = Corner;
},
{
name = _corner.serif;
options = 2;
origin = (0,33);
scale = (-1,1);
type = Corner;
}
);
layerId = "09B1AECD-0C97-4FC2-B876-53C5EBE935B2";
shapes = (
{
closed = 1;
nodes = (
(125,0,l),
(125,55,o),
(171,101,o),
(224,101,cs),
(265,101,o),
(300,116,o),
(325,141,c),
(325,0,l),
(415,0,l),
(415,141,l),
(441,116,o),
(476,101,o),
(516,101,cs),
(569,101,o),
(615,55,o),
(615,0,c),
(705,0,l),
(705,60,o),
(675,113,o),
(631,146,c),
(675,178,o),
(705,231,o),
(705,290,cs),
(705,984,l),
(615,984,l),
(615,290,ls),
(615,237,o),
(569,191,o),
(516,191,cs),
(461,191,o),
(415,237,o),
(415,290,cs),
(415,1461,l),
(325,1461,l),
(325,290,ls),
(325,237,o),
(279,191,o),
(224,191,cs),
(171,191,o),
(125,237,o),
(125,290,cs),
(125,984,l),
(35,984,l),
(35,290,ls),
(35,231,o),
(65,178,o),
(109,146,c),
(65,113,o),
(35,60,o),
(35,0,c)
);
}
);
width = 740;
}
);
unicode = 1078;
},
{
glyphname = "ze-cy";
lastChange = "2024-04-18 14:55:36 +0000";
layers = (
{
layerId = "09B1AECD-0C97-4FC2-B876-53C5EBE935B2";
shapes = (
{
closed = 1;
nodes = (
(35,-393,o),
(120,-478,o),
(224,-478,cs),
(331,-478,o),
(415,-393,o),
(415,-289,c),
(325,-289,l),
(325,-342,o),
(279,-388,o),
(224,-388,cs),
(171,-388,o),
(125,-342,o),
(125,-289,c),
(35,-289,l)
);
},
{
closed = 1;
nodes = (
(120,984,o),
(35,899,o),
(35,794,c),
(125,794,l),
(125,848,o),
(171,893,o),
(224,893,cs),
(279,893,o),
(325,848,o),
(325,794,c),
(415,794,l),
(415,899,o),
(331,984,o),
(224,984,cs)
);
},
{
closed = 1;
nodes = (
(325,189,l),
(415,189,l),
(415,794,l),
(325,794,l)
);
},
{
closed = 1;
nodes = (
(325,136,o),
(279,90,o),
(224,90,c),
(224,0,l),
(331,0,o),
(415,84,o),
(415,189,c),
(325,189,l)
);
},
{
closed = 1;
nodes = (
(224,0,l),
(279,0,o),
(325,-46,o),
(325,-99,c),
(415,-99,l),
(415,6,o),
(331,90,o),
(224,90,c)
);
},
{
closed = 1;
nodes = (
(325,-289,l),
(415,-289,l),
(415,-99,l),
(325,-99,l)
);
}
);
width = 450;
}
);
unicode = 1079;
},
{
glyphname = "ii-cy";
lastChange = "2024-04-18 14:55:36 +0000";
layers = (
{
hints = (
{
name = _corner.serif;
options = 1;
origin = (2,0);
scale = (-1,1);
type = Corner;
}
);
layerId = "09B1AECD-0C97-4FC2-B876-53C5EBE935B2";
shapes = (
{
closed = 1;
nodes = (
(331,0,o),
(415,84,o),
(415,189,c),
(325,189,l),
(325,136,o),
(279,90,o),
(226,90,cs),
(171,90,o),
(125,136,o),
(125,189,c),
(35,189,l),
(35,84,o),
(120,0,o),
(226,0,cs)
);
},
{
closed = 1;
nodes = (
(125,189,l),
(125,984,l),
(35,984,l),
(35,189,l)
);
},
{
closed = 1;
nodes = (
(415,0,l),
(415,984,l),
(325,984,l),
(325,0,l)
);
}
);
width = 483;
}
);
unicode = 1080;
},
{
glyphname = "iishort-cy";
lastChange = "2024-04-18 14:55:36 +0000";
layers = (
{
hints = (
{
name = _corner.serif;
options = 1;
origin = (2,0);
scale = (-1,1);
type = Corner;
}
);
layerId = "09B1AECD-0C97-4FC2-B876-53C5EBE935B2";
shapes = (
{
closed = 1;
nodes = (
(331,0,o),
(415,84,o),
(415,189,c),
(325,189,l),
(325,136,o),
(279,90,o),
(226,90,cs),
(171,90,o),
(125,136,o),
(125,189,c),
(35,189,l),
(35,84,o),
(120,0,o),
(226,0,cs)
);
},
{
closed = 1;
nodes = (
(125,189,l),
(125,984,l),
(35,984,l),
(35,189,l)
);
},
{
closed = 1;
nodes = (
(415,0,l),
(415,984,l),
(325,984,l),
(325,0,l)
);
},
{
closed = 1;
nodes = (
(303,1162,o),
(368,1225,o),
(368,1302,c),
(311,1302,l),
(311,1257,o),
(272,1218,o),
(227,1218,cs),
(179,1218,o),
(140,1257,o),
(140,1302,c),
(83,1302,l),
(83,1225,o),
(147,1162,o),
(227,1162,cs)
);
}
);
width = 483;
}
);
unicode = 1081;
},
{
glyphname = "ka-cy";
lastChange = "2024-04-18 14:55:36 +0000";
layers = (
{
hints = (
{
name = _corner.serif;
options = 1;
origin = (0,25);
scale = (-1,1);
type = Corner;
}
);
layerId = "09B1AECD-0C97-4FC2-B876-53C5EBE935B2";
shapes = (
{
closed = 1;
nodes = (
(158,0,l),
(158,141,l),
(184,116,o),
(218,101,o),
(259,101,cs),
(312,101,o),
(358,55,o),
(358,0,c),
(448,0,l),
(448,60,o),
(417,113,o),
(374,146,c),
(417,178,o),
(448,231,o),
(448,290,cs),
(448,984,l),
(358,984,l),
(358,290,ls),
(358,237,o),
(312,191,o),
(259,191,cs),
(203,191,o),
(158,237,o),
(158,290,cs),
(158,1461,l),
(68,1461,l),
(68,0,l)
);
}
);
width = 483;
}
);
unicode = 1082;
},
{
glyphname = "el-cy";
lastChange = "2024-04-18 14:55:36 +0000";
layers = (
{
hints = (
{
name = _corner.serif;
options = 1;
origin = (0,4);
scale = (-1,1);
type = Corner;
},
{
name = _corner.serif;
origin = (0,9);
type = Corner;
}
);
layerId = "09B1AECD-0C97-4FC2-B876-53C5EBE935B2";
shapes = (
{
closed = 1;
nodes = (
(209,910,o),
(289,910,o),
(292,850,cs),
(347,0,l),
(437,0,l),
(377,860,ls),
(362,1025,o),
(135,1025,o),
(120,860,cs),
(57,0,l),
(147,0,l),
(204,850,ls)
);
}
);
width = 494;
}
);
unicode = 1083;
},
{
glyphname = "em-cy";
lastChange = "2024-04-18 14:55:36 +0000";
layers = (
{
hints = (
{
name = _corner.serif;
origin = (0,9);
type = Corner;
},
{
name = _corner.serif;
options = 1;
origin = (1,4);
scale = (-1,1);
type = Corner;
}
);
layerId = "09B1AECD-0C97-4FC2-B876-53C5EBE935B2";
shapes = (
{
closed = 1;
nodes = (
(209,910,o),
(289,910,o),
(291,850,cs),
(347,0,l),
(437,0,l),
(377,860,ls),
(362,1025,o),
(133,1025,o),
(120,860,cs),
(57,0,l),
(147,0,l),
(204,850,ls)
);
},
{
closed = 1;
nodes = (
(499,910,o),
(579,910,o),
(582,850,cs),
(637,0,l),
(727,0,l),
(666,860,ls),
(652,1025,o),
(423,1025,o),
(409,860,cs),
(347,0,l),
(437,0,l),
(494,850,ls)
);
}
);
width = 784;
}
);
unicode = 1084;
},
{
glyphname = "en-cy";
lastChange = "2024-04-18 14:55:36 +0000";
layers = (
{
hints = (
{
name = _corner.serif;
options = 1;
origin = (0,2);
scale = (-1,1);
type = Corner;
},
{
name = _corner.serif;
origin = (2,1);
type = Corner;
}
);
layerId = "09B1AECD-0C97-4FC2-B876-53C5EBE935B2";
shapes = (
{
closed = 1;
nodes = (
(158,0,l),
(158,984,l),
(68,984,l),
(68,0,l)
);
},
{
closed = 1;
nodes = (
(363,335,o),
(448,420,o),
(448,525,c),
(358,525,l),
(358,471,o),
(312,425,o),
(259,425,cs),
(203,425,o),
(158,471,o),
(158,525,c),
(68,525,l),
(68,420,o),
(152,335,o),
(259,335,cs)
);
},
{
closed = 1;
nodes = (
(448,0,l),
(448,984,l),
(358,984,l),
(358,0,l)
);
}
);
width = 515;
}
);
unicode = 1085;
},
{
glyphname = "te-cy";
lastChange = "2024-04-18 14:55:36 +0000";
layers = (
{
hints = (
{
name = _corner.serif;
origin = (0,3);
type = Corner;
}
);
layerId = "09B1AECD-0C97-4FC2-B876-53C5EBE935B2";
shapes = (
{
closed = 1;
nodes = (
(270,0,l),
(270,794,l),
(180,794,l),
(180,0,l)
);
},
{
closed = 1;
nodes = (
(270,794,l),
(270,848,o),
(316,893,o),
(371,893,c),
(371,984,l),
(265,984,o),
(180,899,o),
(180,794,c)
);
},
{
closed = 1;
nodes = (
(35,893,l),
(415,893,l),
(415,984,l),
(35,984,l)
);
}
);
width = 450;
}
);
unicode = 1090;
},
{
glyphname = "ef-cy";
lastChange = "2024-04-18 14:55:36 +0000";
layers = (
{
hints = (
{
name = _corner.serif;
options = 1;
origin = (0,0);
scale = (-1,1);
type = Corner;
},
{
name = _corner.serif;
origin = (0,44);
type = Corner;
}
);
layerId = "09B1AECD-0C97-4FC2-B876-53C5EBE935B2";
shapes = (
{
closed = 1;
nodes = (
(415,-478,l),
(415,794,ls),
(415,848,o),
(461,893,o),
(514,893,cs),
(569,893,o),
(615,848,o),
(615,794,cs),
(615,189,ls),
(615,136,o),
(569,90,o),
(514,90,c),
(514,0,l),
(621,0,o),
(705,84,o),
(705,189,cs),
(705,794,ls),
(705,899,o),
(621,984,o),
(514,984,cs),
(456,984,o),
(403,954,o),
(371,909,c),
(338,954,o),
(285,984,o),
(226,984,cs),
(120,984,o),
(35,899,o),
(35,794,cs),
(35,189,ls),
(35,84,o),
(120,0,o),
(226,0,c),
(226,90,l),
(171,90,o),
(125,136,o),
(125,189,cs),
(125,794,ls),
(125,848,o),
(171,893,o),
(226,893,cs),
(279,893,o),
(325,848,o),
(325,794,cs),
(325,-478,l)
);
}
);
width = 740;
}
);
unicode = 1092;
},
{
glyphname = "ha-cy";
lastChange = "2024-04-18 14:55:36 +0000";
layers = (
{
hints = (
{
name = _corner.serif;
options = 1;
origin = (2,2);
scale = (-1,1);
type = Corner;
},
{
name = _corner.serif;
origin = (3,1);
type = Corner;
}
);
layerId = "09B1AECD-0C97-4FC2-B876-53C5EBE935B2";
shapes = (
{
closed = 1;
nodes = (
(363,99,o),
(448,183,o),
(448,288,c),
(358,288,l),
(358,235,o),
(312,189,o),
(259,189,cs),
(203,189,o),
(158,235,o),
(158,288,c),
(68,288,l),
(68,183,o),
(152,99,o),
(259,99,cs)
);
},
{
closed = 1;
nodes = (
(158,0,l),
(158,53,o),
(203,99,o),
(259,99,cs),
(312,99,o),
(358,53,o),
(358,0,c),
(448,0,l),
(448,104,o),
(363,189,o),
(259,189,cs),
(152,189,o),
(68,104,o),
(68,0,c)
);
},
{
closed = 1;
nodes = (
(158,288,l),
(158,984,l),
(68,984,l),
(68,288,l)
);
},
{
closed = 1;
nodes = (
(448,288,l),
(448,984,l),
(358,984,l),
(358,288,l)
);
}
);
width = 515;
}
);
unicode = 1093;
},
{
glyphname = "che-cy";
lastChange = "2024-04-18 14:55:36 +0000";
layers = (
{
hints = (
{
name = _corner.serif;
options = 1;
origin = (1,2);
scale = (-1,1);
type = Corner;
},
{
name = _corner.serif;
origin = (2,1);
type = Corner;
}
);
layerId = "09B1AECD-0C97-4FC2-B876-53C5EBE935B2";
shapes = (
{
closed = 1;
nodes = (
(363,99,o),
(448,183,o),
(448,288,c),
(358,288,l),
(358,235,o),
(312,189,o),
(259,189,cs),
(203,189,o),
(158,235,o),
(158,288,c),
(68,288,l),
(68,183,o),
(152,99,o),
(259,99,cs)
);
},
{
closed = 1;
nodes = (
(158,288,l),
(158,984,l),
(68,984,l),
(68,288,l)
);
},
{
closed = 1;
nodes = (
(448,0,l),
(448,984,l),
(358,984,l),
(358,0,l)
);
}
);
width = 515;
}
);
unicode = 1095;
userData = {
KernOnName = "che-cy";
};
},
{
glyphname = "tse-cy";
lastChange = "2024-04-18 14:55:36 +0000";
layers = (
{
hints = (
{
name = _corner.serif;
options = 1;
origin = (1,2);
scale = (-1,1);
type = Corner;
},
{
name = _corner.serif;
origin = (2,1);
type = Corner;
}
);
layerId = "09B1AECD-0C97-4FC2-B876-53C5EBE935B2";
shapes = (
{
closed = 1;
nodes = (
(363,0,o),
(448,84,o),
(448,189,c),
(358,189,l),
(358,136,o),
(312,90,o),
(259,90,cs),
(203,90,o),
(158,136,o),
(158,189,c),
(68,189,l),
(68,84,o),
(152,0,o),
(259,0,cs)
);
},
{
closed = 1;
nodes = (
(158,189,l),
(158,984,l),
(68,984,l),
(68,189,l)
);
},
{
closed = 1;
nodes = (
(448,189,l),
(448,984,l),
(358,984,l),
(358,189,l)
);
},
{
closed = 1;
nodes = (
(448,-99,l),
(448,6,o),
(363,90,o),
(259,90,c),
(259,0,l),
(312,0,o),
(358,-46,o),
(358,-99,c)
);
}
);
width = 515;
}
);
unicode = 1094;
},
{
glyphname = "sha-cy";
lastChange = "2024-04-18 14:55:36 +0000";
layers = (
{
hints = (
{
name = _corner.serif;
options = 1;
origin = (2,2);
scale = (-1,1);
type = Corner;
},
{
name = _corner.serif;
origin = (4,1);
type = Corner;
}
);
layerId = "09B1AECD-0C97-4FC2-B876-53C5EBE935B2";
shapes = (
{
closed = 1;
nodes = (
(653,0,o),
(738,84,o),
(738,189,c),
(648,189,l),
(648,136,o),
(602,90,o),
(549,90,cs),
(493,90,o),
(448,136,o),
(448,189,c),
(358,189,l),
(358,84,o),
(442,0,o),
(549,0,cs)
);
},
{
closed = 1;
nodes = (
(363,0,o),
(448,84,o),
(448,189,c),
(358,189,l),
(358,136,o),
(312,90,o),
(259,90,cs),
(203,90,o),
(158,136,o),
(158,189,c),
(68,189,l),
(68,84,o),
(152,0,o),
(259,0,cs)
);
},
{
closed = 1;
nodes = (
(158,189,l),
(158,984,l),
(68,984,l),
(68,189,l)
);
},
{
closed = 1;
nodes = (
(448,189,l),
(448,984,l),
(358,984,l),
(358,189,l)
);
},
{
closed = 1;
nodes = (
(738,189,l),
(738,984,l),
(648,984,l),
(648,189,l)
);
}
);
width = 805;
}
);
unicode = 1096;
},
{
glyphname = "shcha-cy";
lastChange = "2024-04-18 14:55:36 +0000";
layers = (
{
hints = (
{
name = _corner.serif;
options = 1;
origin = (2,2);
scale = (-1,1);
type = Corner;
},
{
name = _corner.serif;
origin = (4,1);
type = Corner;
}
);
layerId = "09B1AECD-0C97-4FC2-B876-53C5EBE935B2";
shapes = (
{
closed = 1;
nodes = (
(653,0,o),
(738,84,o),
(738,189,c),
(648,189,l),
(648,136,o),
(602,90,o),
(549,90,cs),
(493,90,o),
(448,136,o),
(448,189,c),
(358,189,l),
(358,84,o),
(442,0,o),
(549,0,cs)
);
},
{
closed = 1;
nodes = (
(363,0,o),
(448,84,o),
(448,189,c),
(358,189,l),
(358,136,o),
(312,90,o),
(259,90,cs),
(203,90,o),
(158,136,o),
(158,189,c),
(68,189,l),
(68,84,o),
(152,0,o),
(259,0,cs)
);
},
{
closed = 1;
nodes = (
(158,189,l),
(158,984,l),
(68,984,l),
(68,189,l)
);
},
{
closed = 1;
nodes = (
(448,189,l),
(448,984,l),
(358,984,l),
(358,189,l)
);
},
{
closed = 1;
nodes = (
(738,189,l),
(738,984,l),
(648,984,l),
(648,189,l)
);
},
{
closed = 1;
nodes = (
(738,-99,l),
(738,6,o),
(653,90,o),
(549,90,c),
(549,0,l),
(602,0,o),
(648,-46,o),
(648,-99,c)
);
}
);
width = 805;
}
);
unicode = 1097;
userData = {
KernOnName = "shcha-cy";
};
},
{
glyphname = "softsign-cy";
lastChange = "2024-04-18 14:55:36 +0000";
layers = (
{
anchors = (
{
name = bottom;
pos = (259,-84);
}
);
hints = (
{
name = _corner.serif;
options = 1;
origin = (1,3);
scale = (-1,1);
type = Corner;
}
);
layerId = "09B1AECD-0C97-4FC2-B876-53C5EBE935B2";
shapes = (
{
closed = 1;
nodes = (
(68,84,o),
(152,0,o),
(259,0,cs),
(363,0,o),
(448,84,o),
(448,189,c),
(358,189,l),
(358,136,o),
(312,90,o),
(259,90,cs),
(203,90,o),
(158,136,o),
(158,189,c),
(68,189,l)
);
},
{
closed = 1;
nodes = (
(68,189,l),
(158,189,l),
(158,984,l),
(68,984,l)
);
},
{
closed = 1;
nodes = (
(261,189,l),
(448,189,l),
(448,279,l),
(261,279,l)
);
}
);
width = 483;
}
);
unicode = 1100;
},
{
glyphname = "yeru-cy";
lastChange = "2024-04-18 14:55:36 +0000";
layers = (
{
hints = (
{
name = _corner.serif;
options = 1;
origin = (1,3);
scale = (-1,1);
type = Corner;
},
{
name = _corner.serif;
options = 1;
origin = (3,1);
scale = (-1,1);
type = Corner;
},
{
name = _corner.serif;
options = 2;
origin = (3,2);
type = Corner;
}
);
layerId = "09B1AECD-0C97-4FC2-B876-53C5EBE935B2";
shapes = (
{
closed = 1;
nodes = (
(68,84,o),
(152,0,o),
(259,0,cs),
(363,0,o),
(448,84,o),
(448,189,c),
(358,189,l),
(358,136,o),
(312,90,o),
(259,90,cs),
(203,90,o),
(158,136,o),
(158,189,c),
(68,189,l)
);
},
{
closed = 1;
nodes = (
(68,189,l),
(158,189,l),
(158,984,l),
(68,984,l)
);
},
{
closed = 1;
nodes = (
(261,189,l),
(448,189,l),
(448,279,l),
(261,279,l)
);
},
{
closed = 1;
nodes = (
(557,0,l),
(647,0,l),
(647,984,l),
(557,984,l)
);
}
);
width = 715;
}
);
unicode = 1099;
},
{
glyphname = "hardsign-cy";
lastChange = "2024-04-18 14:55:36 +0000";
layers = (
{
layerId = "09B1AECD-0C97-4FC2-B876-53C5EBE935B2";
shapes = (
{
closed = 1;
nodes = (
(134,84,o),
(219,0,o),
(325,0,cs),
(430,0,o),
(514,84,o),
(514,189,c),
(424,189,l),
(424,136,o),
(378,90,o),
(325,90,cs),
(270,90,o),
(224,136,o),
(224,189,c),
(134,189,l)
);
},
{
closed = 1;
nodes = (
(134,189,l),
(224,189,l),
(224,794,l),
(134,794,l)
);
},
{
closed = 1;
nodes = (
(327,189,l),
(514,189,l),
(514,279,l),
(327,279,l)
);
},
{
closed = 1;
nodes = (
(224,794,l),
(224,899,o),
(140,984,o),
(35,984,c),
(35,893,l),
(88,893,o),
(134,848,o),
(134,794,c)
);
}
);
width = 549;
}
);
unicode = 1098;
},
{
glyphname = "ereversed-cy";
lastChange = "2024-04-18 14:55:36 +0000";
layers = (
{
layerId = "09B1AECD-0C97-4FC2-B876-53C5EBE935B2";
shapes = (
{
closed = 1;
nodes = (
(415,899,o),
(331,984,o),
(224,984,cs),
(120,984,o),
(35,899,o),
(35,794,c),
(125,794,l),
(125,848,o),
(171,893,o),
(224,893,cs),
(279,893,o),
(325,848,o),
(325,794,c),
(415,794,l)
);
},
{
closed = 1;
nodes = (
(331,0,o),
(415,84,o),
(415,189,c),
(325,189,l),
(325,136,o),
(279,90,o),
(224,90,c),
(224,0,l)
);
},
{
closed = 1;
nodes = (
(415,794,l),
(325,794,l),
(325,189,l),
(415,189,l)
);
},
{
closed = 1;
nodes = (
(224,279,l),
(224,189,l),
(405,189,l),
(405,279,l)
);
}
);
width = 450;
}
);
unicode = 1101;
},
{
glyphname = "yu-cy";
lastChange = "2024-04-18 14:55:36 +0000";
layers = (
{
hints = (
{
name = _corner.serif;
options = 1;
origin = (0,2);
scale = (-1,1);
type = Corner;
},
{
name = _corner.serif;
options = 2;
origin = (0,3);
type = Corner;
}
);
layerId = "09B1AECD-0C97-4FC2-B876-53C5EBE935B2";
shapes = (
{
closed = 1;
nodes = (
(158,0,l),
(158,984,l),
(68,984,l),
(68,0,l)
);
},
{
closed = 1;
nodes = (
(448,794,l),
(448,848,o),
(493,893,o),
(549,893,cs),
(602,893,o),
(648,848,o),
(648,794,c),
(738,794,l),
(738,899,o),
(653,984,o),
(549,984,cs),
(442,984,o),
(358,899,o),
(358,794,c)
);
},
{
closed = 1;
nodes = (
(653,0,o),
(738,84,o),
(738,189,c),
(648,189,l),
(648,136,o),
(602,90,o),
(549,90,cs),
(493,90,o),
(448,136,o),
(448,189,c),
(358,189,l),
(358,84,o),
(442,0,o),
(549,0,cs)
);
},
{
closed = 1;
nodes = (
(448,189,l),
(448,794,l),
(358,794,l),
(358,189,l)
);
},
{
closed = 1;
nodes = (
(738,189,l),
(738,794,l),
(648,794,l),
(648,189,l)
);
},
{
closed = 1;
nodes = (
(363,99,o),
(448,183,o),
(448,288,c),
(358,288,l),
(358,235,o),
(312,189,o),
(259,189,cs),
(203,189,o),
(158,235,o),
(158,288,c),
(68,288,l),
(68,183,o),
(152,99,o),
(259,99,cs)
);
}
);
width = 773;
}
);
unicode = 1102;
},
{
glyphname = "ya-cy";
lastChange = "2024-04-18 14:55:36 +0000";
layers = (
{
hints = (
{
name = _corner.serif;
options = 1;
origin = (0,16);
scale = (-1,1);
type = Corner;
}
);
layerId = "09B1AECD-0C97-4FC2-B876-53C5EBE935B2";
shapes = (
{
closed = 1;
nodes = (
(127,0,l),
(127,55,o),
(173,101,o),
(226,101,c),
(226,191,l),
(171,191,o),
(125,237,o),
(125,290,cs),
(125,794,ls),
(125,848,o),
(171,893,o),
(226,893,cs),
(279,893,o),
(325,848,o),
(325,794,cs),
(325,0,l),
(415,0,l),
(415,794,ls),
(415,899,o),
(331,984,o),
(226,984,cs),
(120,984,o),
(35,899,o),
(35,794,cs),
(35,290,ls),
(35,229,o),
(65,177,o),
(111,146,c),
(65,113,o),
(37,60,o),
(37,0,c)
);
}
);
width = 483;
}
);
unicode = 1103;
},
{
glyphname = zero;
kernLeft = "20";
kernRight = "20";
lastChange = "2024-04-18 14:55:36 +0000";
layers = (
{
layerId = "09B1AECD-0C97-4FC2-B876-53C5EBE935B2";
shapes = (
{
closed = 1;
nodes = (
(125,1260,l),
(125,1320,o),
(176,1371,o),
(239,1371,cs),
(300,1371,o),
(351,1320,o),
(351,1260,c),
(441,1260,l),
(441,1371,o),
(350,1461,o),
(239,1461,cs),
(126,1461,o),
(35,1371,o),
(35,1260,c)
);
},
{
closed = 1;
nodes = (
(350,0,o),
(441,90,o),
(441,201,c),
(351,201,l),
(351,141,o),
(300,90,o),
(239,90,cs),
(176,90,o),
(125,141,o),
(125,201,c),
(35,201,l),
(35,90,o),
(126,0,o),
(239,0,cs)
);
},
{
closed = 1;
nodes = (
(125,201,l),
(125,1260,l),
(35,1260,l),
(35,201,l)
);
},
{
closed = 1;
nodes = (
(441,201,l),
(441,1260,l),
(351,1260,l),
(351,201,l)
);
}
);
width = 476;
}
);
unicode = 48;
},
{
glyphname = one;
kernLeft = "20";
kernRight = "20";
lastChange = "2024-04-18 14:55:36 +0000";
layers = (
{
hints = (
{
name = _corner.serif;
options = 1;
origin = (1,0);
scale = (-1,1);
type = Corner;
}
);
layerId = "09B1AECD-0C97-4FC2-B876-53C5EBE935B2";
shapes = (
{
closed = 1;
nodes = (
(35,1371,l),
(96,1371,o),
(146,1320,o),
(146,1260,c),
(236,1260,l),
(236,1371,o),
(146,1461,o),
(35,1461,c)
);
},
{
closed = 1;
nodes = (
(236,0,l),
(236,1260,l),
(146,1260,l),
(146,0,l)
);
}
);
width = 304;
}
);
unicode = 49;
},
{
glyphname = two;
kernLeft = "20";
kernRight = "20";
lastChange = "2024-04-18 14:55:36 +0000";
layers = (
{
layerId = "09B1AECD-0C97-4FC2-B876-53C5EBE935B2";
shapes = (
{
closed = 1;
nodes = (
(125,1260,l),
(125,1320,o),
(176,1371,o),
(239,1371,cs),
(300,1371,o),
(351,1320,o),
(351,1260,c),
(441,1260,l),
(441,1371,o),
(350,1461,o),
(239,1461,cs),
(126,1461,o),
(35,1371,o),
(35,1260,c)
);
},
{
closed = 1;
nodes = (
(441,0,l),
(441,90,l),
(38,90,l),
(38,0,l)
);
},
{
closed = 1;
nodes = (
(128,90,l),
(128,150,o),
(179,201,o),
(239,201,c),
(239,291,l),
(129,291,o),
(38,201,o),
(38,90,c)
);
},
{
closed = 1;
nodes = (
(350,201,o),
(441,292,o),
(441,403,c),
(351,403,l),
(351,342,o),
(300,291,o),
(239,291,c),
(239,201,l)
);
},
{
closed = 1;
nodes = (
(441,403,l),
(441,1260,l),
(351,1260,l),
(351,403,l)
);
}
);
width = 476;
}
);
unicode = 50;
},
{
glyphname = three;
kernLeft = "20";
kernRight = "20";
lastChange = "2024-04-18 14:55:36 +0000";
layers = (
{
layerId = "09B1AECD-0C97-4FC2-B876-53C5EBE935B2";
shapes = (
{
closed = 1;
nodes = (
(125,1260,l),
(125,1320,o),
(176,1371,o),
(239,1371,cs),
(300,1371,o),
(351,1320,o),
(351,1260,c),
(441,1260,l),
(441,1371,o),
(350,1461,o),
(239,1461,cs),
(126,1461,o),
(35,1371,o),
(35,1260,c)
);
},
{
closed = 1;
nodes = (
(441,201,l),
(441,947,l),
(351,947,l),
(351,201,l)
);
},
{
closed = 1;
nodes = (
(441,947,l),
(441,1058,o),
(350,1148,o),
(239,1148,c),
(239,1058,l),
(300,1058,o),
(351,1008,o),
(351,947,c)
);
},
{
closed = 1;
nodes = (
(350,1058,o),
(441,1149,o),
(441,1260,c),
(351,1260,l),
(351,1199,o),
(300,1148,o),
(239,1148,c),
(239,1058,l)
);
},
{
closed = 1;
nodes = (
(350,0,o),
(441,90,o),
(441,201,c),
(351,201,l),
(351,141,o),
(300,90,o),
(239,90,cs),
(176,90,o),
(125,141,o),
(125,201,c),
(35,201,l),
(35,90,o),
(126,0,o),
(239,0,cs)
);
}
);
width = 476;
}
);
unicode = 51;
},
{
glyphname = four;
kernLeft = "20";
kernRight = "20";
lastChange = "2024-04-18 14:55:36 +0000";
layers = (
{
hints = (
{
name = _corner.serif;
options = 1;
origin = (2,0);
scale = (-1,1);
type = Corner;
}
);
layerId = "09B1AECD-0C97-4FC2-B876-53C5EBE935B2";
shapes = (
{
closed = 1;
nodes = (
(350,507,o),
(441,598,o),
(441,709,c),
(351,709,l),
(351,648,o),
(300,597,o),
(239,597,cs),
(176,597,o),
(125,648,o),
(125,709,c),
(35,709,l),
(35,598,o),
(126,507,o),
(239,507,cs)
);
},
{
closed = 1;
nodes = (
(125,709,l),
(125,1461,l),
(35,1461,l),
(35,709,l)
);
},
{
closed = 1;
nodes = (
(441,0,l),
(441,1461,l),
(351,1461,l),
(351,0,l)
);
}
);
width = 508;
}
);
unicode = 52;
},
{
glyphname = five;
kernLeft = "20";
kernRight = "20";
lastChange = "2024-04-18 14:55:36 +0000";
layers = (
{
layerId = "09B1AECD-0C97-4FC2-B876-53C5EBE935B2";
shapes = (
{
closed = 1;
nodes = (
(347,0,o),
(438,90,o),
(438,201,cs),
(438,1058,ls),
(438,1169,o),
(347,1260,o),
(236,1260,cs),
(194,1260,o),
(155,1243,o),
(125,1217,c),
(125,1371,l),
(348,1371,l),
(348,1461,l),
(35,1461,l),
(35,1058,l),
(125,1058,l),
(125,1119,o),
(176,1170,o),
(236,1170,cs),
(297,1170,o),
(348,1119,o),
(348,1058,cs),
(348,201,ls),
(348,141,o),
(297,90,o),
(236,90,cs),
(200,90,o),
(166,105,o),
(141,130,c),
(78,67,l),
(118,25,o),
(175,0,o),
(236,0,cs)
);
}
);
width = 473;
}
);
unicode = 53;
},
{
glyphname = six;
kernLeft = "20";
kernRight = "20";
lastChange = "2024-04-18 14:55:36 +0000";
layers = (
{
layerId = "09B1AECD-0C97-4FC2-B876-53C5EBE935B2";
shapes = (
{
closed = 1;
nodes = (
(125,201,l),
(125,262,o),
(176,313,o),
(236,313,cs),
(300,313,o),
(351,262,o),
(351,201,c),
(441,201,l),
(441,312,o),
(350,403,o),
(236,403,cs),
(126,403,o),
(35,312,o),
(35,201,c)
);
},
{
closed = 1;
nodes = (
(350,0,o),
(441,90,o),
(441,201,c),
(351,201,l),
(351,141,o),
(300,90,o),
(236,90,cs),
(176,90,o),
(125,141,o),
(125,201,c),
(35,201,l),
(35,90,o),
(126,0,o),
(236,0,cs)
);
},
{
closed = 1;
nodes = (
(125,201,l),
(125,1260,l),
(35,1260,l),
(35,201,l)
);
},
{
closed = 1;
nodes = (
(125,1260,l),
(125,1320,o),
(176,1371,o),
(236,1371,c),
(236,1461,l),
(126,1461,o),
(35,1371,o),
(35,1260,c)
);
}
);
width = 476;
}
);
unicode = 54;
},
{
glyphname = seven;
kernLeft = "20";
kernRight = "20";
lastChange = "2024-04-18 14:55:36 +0000";
layers = (
{
hints = (
{
name = _corner.serif;
options = 1;
origin = (3,2);
scale = (-1,1);
type = Corner;
}
);
layerId = "09B1AECD-0C97-4FC2-B876-53C5EBE935B2";
shapes = (
{
closed = 1;
nodes = (
(35,1461,l),
(35,1371,l),
(438,1371,l),
(438,1461,l)
);
},
{
closed = 1;
nodes = (
(348,1371,l),
(348,1311,o),
(297,1260,o),
(236,1260,c),
(236,1170,l),
(347,1170,o),
(438,1260,o),
(438,1371,c)
);
},
{
closed = 1;
nodes = (
(126,1260,o),
(35,1169,o),
(35,1058,c),
(125,1058,l),
(125,1119,o),
(176,1170,o),
(236,1170,c),
(236,1260,l)
);
},
{
closed = 1;
nodes = (
(35,1058,l),
(35,0,l),
(125,0,l),
(125,1058,l)
);
}
);
width = 473;
}
);
unicode = 55;
},
{
glyphname = eight;
kernLeft = "20";
kernRight = "20";
lastChange = "2024-04-18 14:55:36 +0000";
layers = (
{
layerId = "09B1AECD-0C97-4FC2-B876-53C5EBE935B2";
shapes = (
{
closed = 1;
nodes = (
(350,0,o),
(441,90,o),
(441,201,cs),
(441,947,ls),
(441,1011,o),
(408,1069,o),
(360,1104,c),
(408,1139,o),
(441,1197,o),
(441,1260,cs),
(441,1371,o),
(350,1461,o),
(239,1461,cs),
(126,1461,o),
(35,1371,o),
(35,1260,cs),
(35,1197,o),
(69,1139,o),
(115,1104,c),
(69,1069,o),
(35,1011,o),
(35,947,cs),
(35,201,ls),
(35,90,o),
(126,0,o),
(239,0,cs)
);
},
{
closed = 1;
nodes = (
(176,90,o),
(125,141,o),
(125,201,cs),
(125,947,ls),
(125,1008,o),
(176,1058,o),
(239,1058,cs),
(300,1058,o),
(351,1008,o),
(351,947,cs),
(351,201,ls),
(351,141,o),
(300,90,o),
(239,90,cs)
);
},
{
closed = 1;
nodes = (
(176,1148,o),
(125,1199,o),
(125,1260,cs),
(125,1320,o),
(176,1371,o),
(239,1371,cs),
(300,1371,o),
(351,1320,o),
(351,1260,cs),
(351,1199,o),
(300,1148,o),
(239,1148,cs)
);
}
);
width = 476;
}
);
unicode = 56;
},
{
glyphname = nine;
kernLeft = "20";
kernRight = "20";
lastChange = "2024-04-18 14:55:36 +0000";
layers = (
{
layerId = "09B1AECD-0C97-4FC2-B876-53C5EBE935B2";
shapes = (
{
closed = 1;
nodes = (
(125,1260,l),
(125,1320,o),
(176,1371,o),
(239,1371,cs),
(300,1371,o),
(351,1320,o),
(351,1260,c),
(441,1260,l),
(441,1371,o),
(350,1461,o),
(239,1461,cs),
(126,1461,o),
(35,1371,o),
(35,1260,c)
);
},
{
closed = 1;
nodes = (
(350,0,o),
(441,90,o),
(441,201,c),
(351,201,l),
(351,141,o),
(300,90,o),
(239,90,c),
(239,0,l)
);
},
{
closed = 1;
nodes = (
(441,201,l),
(441,1260,l),
(351,1260,l),
(351,201,l)
);
},
{
closed = 1;
nodes = (
(350,1058,o),
(441,1149,o),
(441,1260,c),
(351,1260,l),
(351,1199,o),
(300,1148,o),
(239,1148,cs),
(176,1148,o),
(125,1199,o),
(125,1260,c),
(35,1260,l),
(35,1149,o),
(126,1058,o),
(239,1058,cs)
);
}
);
width = 476;
}
);
unicode = 57;
},
{
glyphname = onesuperior;
kernLeft = "20";
kernRight = "20";
lastChange = "2024-04-18 14:55:36 +0000";
layers = (
{
layerId = "09B1AECD-0C97-4FC2-B876-53C5EBE935B2";
shapes = (
{
closed = 1;
nodes = (
(35,1711,l),
(85,1711,o),
(126,1669,o),
(126,1620,c),
(174,1620,l),
(174,1697,o),
(113,1760,o),
(35,1760,c)
);
},
{
closed = 1;
nodes = (
(174,1163,l),
(174,1620,l),
(126,1620,l),
(126,1163,l)
);
}
);
width = 210;
}
);
unicode = 185;
userData = {
KernOnSpecialSpacing = {
L = superiors;
R = superiors;
};
};
},
{
glyphname = twosuperior;
kernLeft = "20";
kernRight = "20";
lastChange = "2024-04-18 14:55:36 +0000";
layers = (
{
layerId = "09B1AECD-0C97-4FC2-B876-53C5EBE935B2";
shapes = (
{
closed = 1;
nodes = (
(84,1620,l),
(84,1670,o),
(125,1711,o),
(177,1711,cs),
(225,1711,o),
(268,1670,o),
(268,1620,c),
(316,1620,l),
(316,1697,o),
(253,1760,o),
(177,1760,cs),
(97,1760,o),
(35,1697,o),
(35,1620,c)
);
},
{
closed = 1;
nodes = (
(316,1163,l),
(316,1212,l),
(37,1212,l),
(37,1163,l)
);
},
{
closed = 1;
nodes = (
(86,1212,l),
(86,1260,o),
(127,1302,o),
(177,1302,c),
(177,1351,l),
(100,1351,o),
(37,1288,o),
(37,1212,c)
);
},
{
closed = 1;
nodes = (
(253,1302,o),
(316,1364,o),
(316,1442,c),
(268,1442,l),
(268,1391,o),
(225,1351,o),
(177,1351,c),
(177,1302,l)
);
},
{
closed = 1;
nodes = (
(316,1442,l),
(316,1620,l),
(268,1620,l),
(268,1442,l)
);
}
);
width = 351;
}
);
unicode = 178;
userData = {
KernOnSpecialSpacing = {
L = superiors;
R = superiors;
};
};
},
{
glyphname = threesuperior;
kernLeft = "20";
kernRight = "20";
lastChange = "2024-04-18 14:55:36 +0000";
layers = (
{
layerId = "09B1AECD-0C97-4FC2-B876-53C5EBE935B2";
shapes = (
{
closed = 1;
nodes = (
(84,1620,l),
(84,1670,o),
(125,1711,o),
(177,1711,cs),
(225,1711,o),
(268,1670,o),
(268,1620,c),
(316,1620,l),
(316,1697,o),
(253,1760,o),
(177,1760,cs),
(97,1760,o),
(35,1697,o),
(35,1620,c)
);
},
{
closed = 1;
nodes = (
(316,1302,l),
(316,1391,l),
(268,1391,l),
(268,1302,l)
);
},
{
closed = 1;
nodes = (
(316,1391,l),
(316,1468,o),
(253,1530,o),
(177,1530,c),
(177,1481,l),
(225,1481,o),
(268,1440,o),
(268,1391,c)
);
},
{
closed = 1;
nodes = (
(253,1481,o),
(316,1544,o),
(316,1620,c),
(268,1620,l),
(268,1572,o),
(225,1530,o),
(177,1530,c),
(177,1481,l)
);
},
{
closed = 1;
nodes = (
(253,1163,o),
(316,1226,o),
(316,1302,c),
(268,1302,l),
(268,1252,o),
(225,1212,o),
(177,1212,cs),
(125,1212,o),
(84,1252,o),
(84,1302,c),
(35,1302,l),
(35,1226,o),
(97,1163,o),
(177,1163,cs)
);
}
);
width = 351;
}
);
unicode = 179;
userData = {
KernOnSpecialSpacing = {
L = superiors;
R = superiors;
};
};
},
{
glyphname = .notdef;
lastChange = "2024-04-18 14:55:36 +0000";
layers = (
{
layerId = "09B1AECD-0C97-4FC2-B876-53C5EBE935B2";
shapes = (
{
closed = 1;
nodes = (
(223,610,o),
(280,663,o),
(280,731,cs),
(280,798,o),
(223,851,o),
(156,851,cs),
(89,851,o),
(35,798,o),
(35,731,cs),
(35,663,o),
(89,610,o),
(156,610,cs)
);
},
{
closed = 1;
nodes = (
(114,655,o),
(80,688,o),
(80,731,cs),
(80,773,o),
(114,806,o),
(156,806,cs),
(198,806,o),
(235,773,o),
(235,731,cs),
(235,688,o),
(198,655,o),
(156,655,cs)
);
},
{
closed = 1;
nodes = (
(392,610,o),
(412,618,o),
(426,632,c),
(395,663,l),
(389,658,o),
(378,655,o),
(370,655,cs),
(350,655,o),
(330,672,o),
(330,691,cs),
(330,711,o),
(350,728,o),
(370,728,cs),
(378,728,o),
(389,725,o),
(395,719,c),
(426,750,l),
(412,764,o),
(392,773,o),
(370,773,cs),
(325,773,o),
(285,736,o),
(285,691,cs),
(285,646,o),
(325,610,o),
(370,610,cs)
);
},
{
closed = 1;
nodes = (
(488,610,l),
(488,691,ls),
(488,711,o),
(504,728,o),
(527,728,cs),
(547,728,o),
(563,711,o),
(563,691,cs),
(563,610,l),
(608,610,l),
(608,691,ls),
(608,736,o),
(569,773,o),
(527,773,cs),
(510,773,o),
(499,770,o),
(488,764,c),
(488,851,l),
(443,851,l),
(443,610,l)
);
},
{
closed = 1;
nodes = (
(701,655,l),
(682,655,o),
(665,672,o),
(665,691,cs),
(665,711,o),
(682,728,o),
(701,728,cs),
(721,728,o),
(741,711,o),
(741,691,cs),
(741,610,l),
(785,610,l),
(785,691,ls),
(785,736,o),
(746,773,o),
(701,773,cs),
(656,773,o),
(620,736,o),
(620,691,cs),
(620,646,o),
(656,610,o),
(701,610,c)
);
},
{
closed = 1;
nodes = (
(847,610,l),
(847,641,l),
(856,632,o),
(870,632,o),
(884,632,cs),
(892,632,o),
(901,632,o),
(909,635,c),
(918,629,o),
(920,618,o),
(920,610,c),
(965,610,l),
(965,629,o),
(960,646,o),
(946,660,c),
(960,677,o),
(965,694,o),
(965,714,cs),
(965,773,l),
(920,773,l),
(920,714,ls),
(920,694,o),
(903,677,o),
(884,677,cs),
(864,677,o),
(847,694,o),
(847,714,cs),
(847,851,l),
(802,851,l),
(802,610,l)
);
},
{
closed = 1;
nodes = (
(1103,610,o),
(1140,646,o),
(1140,691,cs),
(1140,736,o),
(1103,773,o),
(1058,773,cs),
(1013,773,o),
(977,736,o),
(977,691,cs),
(977,646,o),
(1013,610,o),
(1058,610,cs)
);
},
{
closed = 1;
nodes = (
(1038,655,o),
(1022,672,o),
(1022,691,cs),
(1022,711,o),
(1038,728,o),
(1058,728,cs),
(1078,728,o),
(1095,711,o),
(1095,691,cs),
(1095,672,o),
(1078,655,o),
(1058,655,cs)
);
},
{
closed = 1;
nodes = (
(1227,610,o),
(1238,610,o),
(1246,613,c),
(1300,773,l),
(1255,773,l),
(1218,663,l),
(1179,773,l),
(1137,773,l),
(1190,613,l),
(1199,610,o),
(1207,610,o),
(1218,610,cs)
);
}
);
width = 1335;
}
);
},
{
glyphname = period;
kernLeft = "20";
kernRight = "20";
lastChange = "2024-04-18 14:55:36 +0000";
layers = (
{
layerId = "09B1AECD-0C97-4FC2-B876-53C5EBE935B2";
shapes = (
{
closed = 1;
nodes = (
(125,0,l),
(125,90,l),
(35,90,l),
(35,0,l)
);
}
);
width = 160;
}
);
unicode = 46;
userData = {
KernOnSpecialSpacing = {
L = period;
R = period;
};
};
},
{
glyphname = comma;
kernLeft = "20";
kernRight = "20";
lastChange = "2024-04-18 14:55:36 +0000";
layers = (
{
layerId = "09B1AECD-0C97-4FC2-B876-53C5EBE935B2";
shapes = (
{
closed = 1;
nodes = (
(144,-112,o),
(169,-54,o),
(168,6,cs),
(168,90,l),
(78,90,l),
(78,6,ls),
(78,-30,o),
(62,-66,o),
(35,-92,c),
(100,-155,l)
);
}
);
width = 203;
}
);
unicode = 44;
userData = {
KernOnSpecialSpacing = {
L = period;
R = period;
};
};
},
{
glyphname = colon;
kernLeft = "20";
kernRight = "20";
lastChange = "2024-04-18 14:55:36 +0000";
layers = (
{
layerId = "09B1AECD-0C97-4FC2-B876-53C5EBE935B2";
shapes = (
{
closed = 1;
nodes = (
(125,804,l),
(125,894,l),
(35,894,l),
(35,804,l)
);
},
{
closed = 1;
nodes = (
(125,0,l),
(125,90,l),
(35,90,l),
(35,0,l)
);
}
);
width = 160;
}
);
unicode = 58;
userData = {
KernOnSpecialSpacing = {
L = "spaced-off";
R = "spaced-off";
};
};
},
{
glyphname = semicolon;
kernLeft = "20";
kernRight = "20";
lastChange = "2024-04-18 14:55:36 +0000";
layers = (
{
layerId = "09B1AECD-0C97-4FC2-B876-53C5EBE935B2";
shapes = (
{
closed = 1;
nodes = (
(144,-112,o),
(169,-54,o),
(168,6,cs),
(168,90,l),
(78,90,l),
(78,6,ls),
(78,-30,o),
(62,-66,o),
(35,-92,c),
(100,-155,l)
);
},
{
closed = 1;
nodes = (
(168,804,l),
(168,894,l),
(78,894,l),
(78,804,l)
);
}
);
width = 203;
}
);
unicode = 59;
userData = {
KernOnSpecialSpacing = {
L = "spaced-off";
R = "spaced-off";
};
};
},
{
glyphname = ellipsis;
kernLeft = "20";
kernRight = "20";
lastChange = "2024-04-18 14:55:36 +0000";
layers = (
{
layerId = "09B1AECD-0C97-4FC2-B876-53C5EBE935B2";
shapes = (
{
closed = 1;
nodes = (
(474,0,l),
(474,90,l),
(384,90,l),
(384,0,l)
);
},
{
closed = 1;
nodes = (
(125,0,l),
(125,90,l),
(35,90,l),
(35,0,l)
);
},
{
closed = 1;
nodes = (
(300,0,l),
(300,90,l),
(210,90,l),
(210,0,l)
);
}
);
width = 509;
}
);
unicode = 8230;
},
{
glyphname = exclam;
kernLeft = "20";
kernRight = "20";
lastChange = "2024-04-18 14:55:36 +0000";
layers = (
{
layerId = "09B1AECD-0C97-4FC2-B876-53C5EBE935B2";
shapes = (
{
closed = 1;
nodes = (
(125,235,l),
(125,1461,l),
(35,1461,l),
(35,235,l)
);
},
{
closed = 1;
nodes = (
(125,0,l),
(125,90,l),
(35,90,l),
(35,0,l)
);
}
);
width = 160;
}
);
unicode = 33;
userData = {
KernOnSpecialSpacing = {
L = "spaced-off";
};
};
},
{
glyphname = exclamdown;
kernLeft = "20";
kernRight = "20";
lastChange = "2024-04-18 14:55:36 +0000";
layers = (
{
layerId = "09B1AECD-0C97-4FC2-B876-53C5EBE935B2";
shapes = (
{
closed = 1;
nodes = (
(125,0,l),
(125,1227,l),
(35,1227,l),
(35,0,l)
);
},
{
closed = 1;
nodes = (
(125,1371,l),
(125,1461,l),
(35,1461,l),
(35,1371,l)
);
}
);
width = 160;
}
);
unicode = 161;
userData = {
KernOnSpecialSpacing = {
R = "spaced-off";
};
};
},
{
glyphname = question;
kernLeft = "20";
kernRight = "20";
lastChange = "2024-04-18 14:55:36 +0000";
layers = (
{
layerId = "09B1AECD-0C97-4FC2-B876-53C5EBE935B2";
shapes = (
{
closed = 1;
nodes = (
(125,1260,l),
(125,1320,o),
(176,1371,o),
(239,1371,cs),
(300,1371,o),
(351,1320,o),
(351,1260,c),
(441,1260,l),
(441,1371,o),
(350,1461,o),
(239,1461,cs),
(126,1461,o),
(35,1371,o),
(35,1260,c)
);
},
{
closed = 1;
nodes = (
(285,0,l),
(285,90,l),
(195,90,l),
(195,0,l)
);
},
{
closed = 1;
nodes = (
(285,235,l),
(285,568,l),
(195,568,l),
(195,235,l)
);
},
{
closed = 1;
nodes = (
(350,478,o),
(441,568,o),
(441,679,c),
(351,679,l),
(351,619,o),
(300,568,o),
(239,568,c),
(239,478,l)
);
},
{
closed = 1;
nodes = (
(441,679,l),
(441,1260,l),
(351,1260,l),
(351,679,l)
);
}
);
width = 476;
}
);
unicode = 63;
userData = {
KernOnSpecialSpacing = {
L = "spaced-off";
};
};
},
{
glyphname = questiondown;
kernLeft = "20";
kernRight = "20";
lastChange = "2024-04-18 14:55:36 +0000";
layers = (
{
layerId = "09B1AECD-0C97-4FC2-B876-53C5EBE935B2";
shapes = (
{
closed = 1;
nodes = (
(350,0,o),
(441,90,o),
(441,201,c),
(351,201,l),
(351,141,o),
(300,90,o),
(236,90,cs),
(176,90,o),
(125,141,o),
(125,201,c),
(35,201,l),
(35,90,o),
(126,0,o),
(236,0,cs)
);
},
{
closed = 1;
nodes = (
(125,201,l),
(125,782,l),
(35,782,l),
(35,201,l)
);
},
{
closed = 1;
nodes = (
(125,782,l),
(125,843,o),
(176,893,o),
(236,893,c),
(236,984,l),
(126,984,o),
(35,893,o),
(35,782,c)
);
},
{
closed = 1;
nodes = (
(281,893,l),
(281,1227,l),
(191,1227,l),
(191,893,l)
);
},
{
closed = 1;
nodes = (
(281,1371,l),
(281,1461,l),
(191,1461,l),
(191,1371,l)
);
}
);
width = 476;
}
);
unicode = 191;
userData = {
KernOnSpecialSpacing = {
R = "spaced-off";
};
};
},
{
glyphname = bullet;
kernLeft = "20";
kernRight = "20";
lastChange = "2024-04-18 14:55:36 +0000";
layers = (
{
layerId = "09B1AECD-0C97-4FC2-B876-53C5EBE935B2";
shapes = (
{
closed = 1;
nodes = (
(156,416,o),
(189,449,o),
(189,493,cs),
(189,535,o),
(156,569,o),
(112,569,cs),
(69,569,o),
(35,535,o),
(35,493,cs),
(35,449,o),
(69,416,o),
(112,416,cs)
);
}
);
width = 224;
}
);
unicode = 8226;
userData = {
KernOnSpecialSpacing = {
L = NoKerning;
R = NoKerning;
};
};
},
{
glyphname = asterisk;
kernLeft = "20";
kernRight = "20";
lastChange = "2024-04-18 14:55:36 +0000";
layers = (
{
layerId = "09B1AECD-0C97-4FC2-B876-53C5EBE935B2";
shapes = (
{
closed = 1;
nodes = (
(371,1489,l),
(344,1538,l),
(42,1434,l),
(70,1386,l)
);
},
{
closed = 1;
nodes = (
(282,1326,l),
(179,1627,l),
(130,1599,l),
(233,1298,l)
);
},
{
closed = 1;
nodes = (
(342,1364,l),
(356,1419,l),
(71,1559,l),
(56,1504,l)
);
},
{
closed = 1;
nodes = (
(163,1313,l),
(303,1599,l),
(249,1614,l),
(109,1328,l)
);
}
);
width = 414;
}
);
unicode = 42;
userData = {
KernOnSpecialSpacing = {
L = quotes;
R = quotes;
};
};
},
{
glyphname = numbersign;
kernLeft = "20";
kernRight = "20";
lastChange = "2024-04-18 14:55:36 +0000";
layers = (
{
layerId = "09B1AECD-0C97-4FC2-B876-53C5EBE935B2";
shapes = (
{
closed = 1;
nodes = (
(363,0,l),
(852,1461,l),
(762,1461,l),
(273,0,l)
);
},
{
closed = 1;
nodes = (
(669,565,l),
(699,655,l),
(136,655,l),
(106,565,l)
);
},
{
closed = 1;
nodes = (
(125,0,l),
(614,1461,l),
(524,1461,l),
(35,0,l)
);
},
{
closed = 1;
nodes = (
(746,807,l),
(775,897,l),
(213,897,l),
(184,807,l)
);
}
);
width = 888;
}
);
unicode = 35;
},
{
glyphname = slash;
kernLeft = "20";
kernRight = "20";
lastChange = "2024-04-18 14:55:36 +0000";
layers = (
{
layerId = "09B1AECD-0C97-4FC2-B876-53C5EBE935B2";
shapes = (
{
closed = 1;
nodes = (
(125,0,l),
(614,1461,l),
(524,1461,l),
(35,0,l)
);
}
);
width = 649;
}
);
unicode = 47;
userData = {
KernOnSpecialSpacing = {
L = slash;
R = slash;
};
};
},
{
glyphname = backslash;
kernLeft = "20";
kernRight = "20";
lastChange = "2024-04-18 14:55:36 +0000";
layers = (
{
layerId = "09B1AECD-0C97-4FC2-B876-53C5EBE935B2";
shapes = (
{
closed = 1;
nodes = (
(614,0,l),
(125,1461,l),
(35,1461,l),
(524,0,l)
);
}
);
width = 649;
}
);
unicode = 92;
userData = {
KernOnSpecialSpacing = {
L = "spaced-off";
R = "spaced-off";
};
};
},
{
glyphname = hyphen;
kernLeft = "20";
kernRight = "20";
lastChange = "2024-04-18 14:55:36 +0000";
layers = (
{
layerId = "09B1AECD-0C97-4FC2-B876-53C5EBE935B2";
shapes = (
{
closed = 1;
nodes = (
(285,686,l),
(285,776,l),
(35,776,l),
(35,686,l)
);
}
);
width = 321;
}
);
unicode = 45;
userData = {
KernOnSpecialSpacing = {
L = hyphen;
R = hyphen;
};
};
},
{
glyphname = endash;
kernLeft = "20";
kernRight = "20";
lastChange = "2024-04-18 14:55:36 +0000";
layers = (
{
layerId = "09B1AECD-0C97-4FC2-B876-53C5EBE935B2";
shapes = (
{
closed = 1;
nodes = (
(441,686,l),
(441,776,l),
(35,776,l),
(35,686,l)
);
}
);
width = 476;
}
);
unicode = 8211;
userData = {
KernOnSpecialSpacing = {
L = dashes;
R = dashes;
};
};
},
{
glyphname = emdash;
kernLeft = "20";
kernRight = "20";
lastChange = "2024-04-18 14:55:36 +0000";
layers = (
{
layerId = "09B1AECD-0C97-4FC2-B876-53C5EBE935B2";
shapes = (
{
closed = 1;
nodes = (
(631,686,l),
(631,776,l),
(35,776,l),
(35,686,l)
);
}
);
width = 666;
}
);
unicode = 8212;
userData = {
KernOnSpecialSpacing = {
L = dashes;
R = dashes;
};
};
},
{
glyphname = parenleft;
kernLeft = "20";
kernRight = "20";
lastChange = "2024-04-18 14:55:36 +0000";
layers = (
{
layerId = "09B1AECD-0C97-4FC2-B876-53C5EBE935B2";
shapes = (
{
closed = 1;
nodes = (
(263,90,l),
(187,90,o),
(125,152,o),
(125,225,cs),
(125,1236,ls),
(125,1309,o),
(187,1371,o),
(263,1371,c),
(263,1461,l),
(136,1461,o),
(35,1360,o),
(35,1236,cs),
(35,225,ls),
(35,101,o),
(136,0,o),
(263,0,c)
);
}
);
width = 298;
}
);
unicode = 40;
userData = {
KernOnSpecialSpacing = {
R = parenthesis;
};
};
},
{
glyphname = parenright;
kernLeft = "20";
kernRight = "20";
lastChange = "2024-04-18 14:55:36 +0000";
layers = (
{
layerId = "09B1AECD-0C97-4FC2-B876-53C5EBE935B2";
shapes = (
{
closed = 1;
nodes = (
(162,0,o),
(263,101,o),
(263,225,cs),
(263,1236,ls),
(263,1360,o),
(162,1461,o),
(35,1461,c),
(35,1371,l),
(111,1371,o),
(173,1309,o),
(173,1236,cs),
(173,225,ls),
(173,152,o),
(111,90,o),
(35,90,c),
(35,0,l)
);
}
);
width = 298;
}
);
unicode = 41;
userData = {
KernOnSpecialSpacing = {
L = parenthesis;
};
};
},
{
glyphname = braceleft;
kernLeft = "20";
kernRight = "20";
lastChange = "2024-04-18 14:55:36 +0000";
layers = (
{
layerId = "09B1AECD-0C97-4FC2-B876-53C5EBE935B2";
shapes = (
{
closed = 1;
nodes = (
(387,90,l),
(311,90,o),
(249,152,o),
(249,225,cs),
(249,1236,ls),
(249,1309,o),
(311,1371,o),
(387,1371,c),
(387,1461,l),
(260,1461,o),
(159,1360,o),
(159,1236,cs),
(159,778,l),
(35,778,l),
(35,688,l),
(159,688,l),
(159,225,ls),
(159,101,o),
(260,0,o),
(387,0,c)
);
}
);
width = 422;
}
);
unicode = 123;
userData = {
KernOnSpecialSpacing = {
R = parenthesis;
};
};
},
{
glyphname = braceright;
kernLeft = "20";
kernRight = "20";
lastChange = "2024-04-18 14:55:36 +0000";
layers = (
{
layerId = "09B1AECD-0C97-4FC2-B876-53C5EBE935B2";
shapes = (
{
closed = 1;
nodes = (
(162,0,o),
(263,101,o),
(263,225,cs),
(263,688,l),
(387,688,l),
(387,778,l),
(263,778,l),
(263,1236,ls),
(263,1360,o),
(162,1461,o),
(35,1461,c),
(35,1371,l),
(111,1371,o),
(173,1309,o),
(173,1236,cs),
(173,225,ls),
(173,152,o),
(111,90,o),
(35,90,c),
(35,0,l)
);
}
);
width = 422;
}
);
unicode = 125;
userData = {
KernOnSpecialSpacing = {
L = parenthesis;
};
};
},
{
glyphname = bracketleft;
kernLeft = "20";
kernRight = "20";
lastChange = "2024-04-18 14:55:36 +0000";
layers = (
{
layerId = "09B1AECD-0C97-4FC2-B876-53C5EBE935B2";
shapes = (
{
closed = 1;
nodes = (
(125,0,l),
(125,1461,l),
(35,1461,l),
(35,0,l)
);
},
{
closed = 1;
nodes = (
(361,0,l),
(361,90,l),
(35,90,l),
(35,0,l)
);
},
{
closed = 1;
nodes = (
(361,1371,l),
(361,1461,l),
(35,1461,l),
(35,1371,l)
);
}
);
width = 396;
}
);
unicode = 91;
userData = {
KernOnSpecialSpacing = {
L = NoKerning;
R = parenthesis;
};
};
},
{
glyphname = bracketright;
kernLeft = "20";
kernRight = "20";
lastChange = "2024-04-18 14:55:36 +0000";
layers = (
{
layerId = "09B1AECD-0C97-4FC2-B876-53C5EBE935B2";
shapes = (
{
closed = 1;
nodes = (
(361,0,l),
(361,1461,l),
(271,1461,l),
(271,0,l)
);
},
{
closed = 1;
nodes = (
(361,0,l),
(361,90,l),
(35,90,l),
(35,0,l)
);
},
{
closed = 1;
nodes = (
(361,1371,l),
(361,1461,l),
(35,1461,l),
(35,1371,l)
);
}
);
width = 396;
}
);
unicode = 93;
userData = {
KernOnSpecialSpacing = {
L = parenthesis;
R = NoKerning;
};
};
},
{
glyphname = guillemetleft;
kernLeft = "20";
kernRight = "20";
lastChange = "2024-04-18 14:55:36 +0000";
layers = (
{
layerId = "09B1AECD-0C97-4FC2-B876-53C5EBE935B2";
shapes = (
{
closed = 1;
nodes = (
(159,447,o),
(261,549,o),
(261,673,c),
(171,673,l),
(171,599,o),
(109,537,o),
(35,537,c),
(35,447,l)
);
},
{
closed = 1;
nodes = (
(261,312,l),
(261,436,o),
(159,537,o),
(35,537,c),
(35,447,l),
(109,447,o),
(171,386,o),
(171,312,c)
);
},
{
closed = 1;
nodes = (
(399,314,l),
(399,398,o),
(370,474,o),
(319,534,c),
(236,493,l),
(281,447,o),
(309,383,o),
(309,314,c)
);
},
{
closed = 1;
nodes = (
(370,510,o),
(399,588,o),
(399,673,c),
(309,673,l),
(309,601,o),
(281,540,o),
(236,493,c),
(318,450,l)
);
}
);
width = 434;
}
);
unicode = 171;
userData = {
KernOnSpecialSpacing = {
L = quotes;
R = quotes;
};
};
},
{
glyphname = guillemetright;
kernLeft = "20";
kernRight = "20";
lastChange = "2024-04-18 14:55:36 +0000";
layers = (
{
layerId = "09B1AECD-0C97-4FC2-B876-53C5EBE935B2";
shapes = (
{
closed = 1;
nodes = (
(399,537,l),
(326,537,o),
(264,599,o),
(264,673,c),
(174,673,l),
(174,549,o),
(275,447,o),
(399,447,c)
);
},
{
closed = 1;
nodes = (
(125,314,l),
(125,383,o),
(154,447,o),
(200,493,c),
(116,534,l),
(65,474,o),
(35,398,o),
(35,314,c)
);
},
{
closed = 1;
nodes = (
(264,312,l),
(264,386,o),
(326,447,o),
(399,447,c),
(399,537,l),
(275,537,o),
(174,436,o),
(174,312,c)
);
},
{
closed = 1;
nodes = (
(200,493,l),
(154,540,o),
(125,601,o),
(125,673,c),
(35,673,l),
(35,588,o),
(65,510,o),
(117,450,c)
);
}
);
width = 434;
}
);
unicode = 187;
userData = {
KernOnSpecialSpacing = {
L = quotes;
R = quotes;
};
};
},
{
glyphname = guilsinglleft;
kernLeft = "20";
kernRight = "20";
lastChange = "2024-04-18 14:55:36 +0000";
layers = (
{
layerId = "09B1AECD-0C97-4FC2-B876-53C5EBE935B2";
shapes = (
{
closed = 1;
nodes = (
(159,447,o),
(261,549,o),
(261,673,c),
(171,673,l),
(171,599,o),
(109,537,o),
(35,537,c),
(35,447,l)
);
},
{
closed = 1;
nodes = (
(261,312,l),
(261,436,o),
(159,537,o),
(35,537,c),
(35,447,l),
(109,447,o),
(171,386,o),
(171,312,c)
);
}
);
width = 296;
}
);
unicode = 8249;
userData = {
KernOnSpecialSpacing = {
L = quotes;
R = quotes;
};
};
},
{
glyphname = guilsinglright;
kernLeft = "20";
kernRight = "20";
lastChange = "2024-04-18 14:55:36 +0000";
layers = (
{
layerId = "09B1AECD-0C97-4FC2-B876-53C5EBE935B2";
shapes = (
{
closed = 1;
nodes = (
(261,537,l),
(187,537,o),
(125,599,o),
(125,673,c),
(35,673,l),
(35,549,o),
(136,447,o),
(261,447,c)
);
},
{
closed = 1;
nodes = (
(125,312,l),
(125,386,o),
(187,447,o),
(261,447,c),
(261,537,l),
(136,537,o),
(35,436,o),
(35,312,c)
);
}
);
width = 296;
}
);
unicode = 8250;
userData = {
KernOnSpecialSpacing = {
L = quotes;
R = quotes;
};
};
},
{
glyphname = quotesingle;
kernLeft = "20";
kernRight = "20";
lastChange = "2024-04-18 14:55:36 +0000";
layers = (
{
layerId = "09B1AECD-0C97-4FC2-B876-53C5EBE935B2";
shapes = (
{
closed = 1;
nodes = (
(125,1256,l),
(125,1669,l),
(35,1669,l),
(35,1256,l)
);
}
);
width = 160;
}
);
unicode = 39;
userData = {
KernOnSpecialSpacing = {
L = quotes;
R = quotes;
};
};
},
{
glyphname = at;
kernLeft = "20";
kernRight = "20";
lastChange = "2024-04-18 14:55:36 +0000";
layers = (
{
layerId = "09B1AECD-0C97-4FC2-B876-53C5EBE935B2";
shapes = (
{
closed = 1;
nodes = (
(125,731,l),
(125,952,o),
(305,1132,o),
(527,1132,cs),
(749,1132,o),
(929,952,o),
(929,731,c),
(1019,731,l),
(1019,1000,o),
(797,1222,o),
(527,1222,cs),
(257,1222,o),
(35,1000,o),
(35,731,c)
);
},
{
closed = 1;
nodes = (
(527,-149,l),
(305,-149,o),
(125,31,o),
(125,253,c),
(35,253,l),
(35,-17,o),
(257,-239,o),
(527,-239,c)
);
},
{
closed = 1;
nodes = (
(125,253,l),
(125,731,l),
(35,731,l),
(35,253,l)
);
},
{
closed = 1;
nodes = (
(527,119,l),
(453,119,o),
(392,180,o),
(392,253,c),
(330,253,l),
(330,146,o),
(417,56,o),
(527,56,c)
);
},
{
closed = 1;
nodes = (
(392,253,l),
(392,731,l),
(330,731,l),
(330,253,l)
);
},
{
closed = 1;
nodes = (
(392,731,l),
(392,803,o),
(453,864,o),
(527,864,cs),
(600,864,o),
(661,803,o),
(661,731,c),
(724,731,l),
(724,837,o),
(634,927,o),
(527,927,cs),
(417,927,o),
(330,837,o),
(330,731,c)
);
},
{
closed = 1;
nodes = (
(1019,-239,l),
(1019,731,l),
(929,731,l),
(929,-239,l)
);
},
{
closed = 1;
nodes = (
(661,-239,l),
(724,-239,l),
(724,731,l),
(661,731,l)
);
}
);
width = 1054;
}
);
unicode = 64;
userData = {
KernOnSpecialSpacing = {
L = symbols;
R = symbols;
};
};
},
{
glyphname = ampersand;
kernLeft = "20";
kernRight = "20";
lastChange = "2024-04-18 14:55:36 +0000";
layers = (
{
layerId = "09B1AECD-0C97-4FC2-B876-53C5EBE935B2";
shapes = (
{
closed = 1;
nodes = (
(35,222,o),
(257,0,o),
(527,0,cs),
(797,0,o),
(1019,222,o),
(1019,492,c),
(929,492,l),
(929,270,o),
(749,90,o),
(527,90,cs),
(305,90,o),
(125,270,o),
(125,492,c),
(35,492,l)
);
},
{
closed = 1;
nodes = (
(925,0,l),
(1019,0,l),
(908,214,l),
(822,196,l)
);
},
{
closed = 1;
nodes = (
(257,986,o),
(32,764,o),
(35,495,cs),
(35,222,o),
(257,0,o),
(527,0,c),
(527,90,l),
(305,90,o),
(125,271,o),
(125,495,cs),
(125,716,o),
(305,896,o),
(527,896,c),
(527,986,l)
);
},
{
closed = 1;
nodes = (
(682,896,o),
(809,1024,o),
(809,1180,cs),
(809,1334,o),
(682,1461,o),
(527,1461,cs),
(371,1461,o),
(244,1334,o),
(244,1180,cs),
(244,1024,o),
(371,896,o),
(527,896,cs)
);
},
{
closed = 1;
nodes = (
(421,986,o),
(334,1073,o),
(334,1180,cs),
(334,1284,o),
(421,1371,o),
(527,1371,cs),
(631,1371,o),
(719,1284,o),
(719,1180,cs),
(719,1073,o),
(631,986,o),
(527,986,cs)
);
}
);
width = 1054;
}
);
unicode = 38;
userData = {
KernOnSpecialSpacing = {
L = symbols;
R = symbols;
};
};
},
{
glyphname = section;
kernLeft = "20";
kernRight = "20";
lastChange = "2024-04-18 14:55:36 +0000";
layers = (
{
layerId = "09B1AECD-0C97-4FC2-B876-53C5EBE935B2";
shapes = (
{
closed = 1;
nodes = (
(611,360,o),
(777,525,o),
(777,731,cs),
(777,936,o),
(611,1102,o),
(406,1102,cs),
(201,1102,o),
(35,936,o),
(35,731,cs),
(35,525,o),
(201,360,o),
(406,360,cs)
);
},
{
closed = 1;
nodes = (
(609,-104,o),
(772,59,o),
(772,261,cs),
(772,385,o),
(702,494,o),
(604,541,c),
(591,453,l),
(645,407,o),
(681,338,o),
(681,261,cs),
(681,112,o),
(556,-14,o),
(406,-14,cs),
(333,-14,o),
(264,18,o),
(214,66,c),
(148,3,l),
(215,-65,o),
(305,-104,o),
(406,-104,cs)
);
},
{
closed = 1;
nodes = (
(255,450,o),
(125,578,o),
(125,731,cs),
(125,883,o),
(255,1011,o),
(406,1011,cs),
(558,1011,o),
(687,883,o),
(687,731,cs),
(687,578,o),
(558,450,o),
(406,450,cs)
);
},
{
closed = 1;
nodes = (
(219,1012,l),
(166,1056,o),
(131,1124,o),
(131,1200,cs),
(131,1349,o),
(258,1475,o),
(406,1475,cs),
(479,1475,o),
(548,1443,o),
(599,1395,c),
(665,1458,l),
(597,1526,o),
(507,1565,o),
(406,1565,cs),
(204,1565,o),
(41,1402,o),
(41,1200,cs),
(41,1079,o),
(110,972,o),
(205,924,c)
);
}
);
width = 812;
}
);
unicode = 167;
userData = {
KernOnSpecialSpacing = {
R = symbols;
};
};
},
{
glyphname = copyright;
kernLeft = "20";
kernRight = "20";
lastChange = "2024-04-18 14:55:36 +0000";
layers = (
{
layerId = "09B1AECD-0C97-4FC2-B876-53C5EBE935B2";
shapes = (
{
closed = 1;
nodes = (
(125,731,l),
(125,952,o),
(305,1132,o),
(527,1132,cs),
(749,1132,o),
(929,952,o),
(929,731,c),
(1019,731,l),
(1019,1000,o),
(797,1222,o),
(527,1222,cs),
(257,1222,o),
(35,1000,o),
(35,731,c)
);
},
{
closed = 1;
nodes = (
(797,-239,o),
(1019,-17,o),
(1019,253,c),
(929,253,l),
(929,31,o),
(749,-149,o),
(527,-149,cs),
(305,-149,o),
(125,31,o),
(125,253,c),
(35,253,l),
(35,-17,o),
(257,-239,o),
(527,-239,cs)
);
},
{
closed = 1;
nodes = (
(125,253,l),
(125,731,l),
(35,731,l),
(35,253,l)
);
},
{
closed = 1;
nodes = (
(634,56,o),
(724,146,o),
(724,253,c),
(661,253,l),
(661,180,o),
(600,119,o),
(527,119,cs),
(453,119,o),
(392,180,o),
(392,253,c),
(330,253,l),
(330,146,o),
(417,56,o),
(527,56,cs)
);
},
{
closed = 1;
nodes = (
(392,253,l),
(392,731,l),
(330,731,l),
(330,253,l)
);
},
{
closed = 1;
nodes = (
(392,731,l),
(392,803,o),
(453,864,o),
(527,864,cs),
(600,864,o),
(661,803,o),
(661,731,c),
(724,731,l),
(724,837,o),
(634,927,o),
(527,927,cs),
(417,927,o),
(330,837,o),
(330,731,c)
);
},
{
closed = 1;
nodes = (
(1019,253,l),
(1019,731,l),
(929,731,l),
(929,253,l)
);
}
);
width = 1054;
}
);
unicode = 169;
userData = {
KernOnSpecialSpacing = {
R = symbols;
};
};
},
{
glyphname = registered;
kernLeft = "20";
kernRight = "20";
lastChange = "2024-04-18 14:55:36 +0000";
layers = (
{
layerId = "09B1AECD-0C97-4FC2-B876-53C5EBE935B2";
shapes = (
{
closed = 1;
nodes = (
(496,882,o),
(628,1014,o),
(628,1175,cs),
(628,1629,ls),
(628,1790,o),
(496,1922,o),
(335,1922,cs),
(169,1922,o),
(35,1790,o),
(35,1629,cs),
(35,1175,ls),
(35,1014,o),
(169,882,o),
(335,882,cs)
);
},
{
closed = 1;
nodes = (
(470,1133,l),
(470,1209,ls),
(470,1256,o),
(443,1299,o),
(405,1324,c),
(443,1346,o),
(470,1389,o),
(470,1437,c),
(422,1437,l),
(422,1389,o),
(381,1347,o),
(332,1347,c),
(332,1299,l),
(381,1299,o),
(422,1258,o),
(422,1209,cs),
(422,1133,l)
);
},
{
closed = 1;
nodes = (
(201,941,o),
(95,1048,o),
(95,1176,cs),
(95,1629,ls),
(95,1757,o),
(201,1862,o),
(334,1862,cs),
(463,1862,o),
(569,1757,o),
(569,1629,cs),
(569,1175,ls),
(569,1047,o),
(463,941,o),
(334,941,cs)
);
},
{
closed = 1;
nodes = (
(240,1133,l),
(240,1626,ls),
(240,1675,o),
(280,1716,o),
(332,1716,cs),
(381,1716,o),
(422,1675,o),
(422,1626,cs),
(422,1437,l),
(470,1437,l),
(470,1626,ls),
(470,1702,o),
(409,1763,o),
(332,1763,cs),
(254,1763,o),
(193,1702,o),
(193,1626,cs),
(193,1133,l)
);
}
);
width = 664;
}
);
unicode = 174;
userData = {
KernOnSpecialSpacing = {
L = superiors;
};
};
},
{
glyphname = degree;
kernLeft = "20";
kernRight = "20";
lastChange = "2024-04-18 14:55:36 +0000";
layers = (
{
layerId = "09B1AECD-0C97-4FC2-B876-53C5EBE935B2";
shapes = (
{
closed = 1;
nodes = (
(268,1161,o),
(335,1228,o),
(335,1310,cs),
(335,1615,ls),
(335,1697,o),
(268,1763,o),
(186,1763,cs),
(102,1763,o),
(35,1697,o),
(35,1615,cs),
(35,1310,ls),
(35,1228,o),
(102,1161,o),
(186,1161,cs)
);
},
{
closed = 1;
nodes = (
(129,1209,o),
(84,1255,o),
(84,1310,cs),
(84,1615,ls),
(84,1670,o),
(129,1715,o),
(186,1715,cs),
(241,1715,o),
(287,1670,o),
(287,1615,cs),
(287,1310,ls),
(287,1255,o),
(241,1209,o),
(186,1209,cs)
);
}
);
width = 370;
}
);
unicode = 176;
userData = {
KernOnSpecialSpacing = {
L = superiors;
R = superiors;
};
};
},
{
glyphname = bar;
kernLeft = "20";
kernRight = "20";
lastChange = "2024-04-18 14:55:36 +0000";
layers = (
{
layerId = "09B1AECD-0C97-4FC2-B876-53C5EBE935B2";
shapes = (
{
closed = 1;
nodes = (
(125,-183,l),
(125,1644,l),
(35,1644,l),
(35,-183,l)
);
}
);
width = 160;
}
);
unicode = 124;
userData = {
KernOnSpecialSpacing = {
L = NoKerning;
R = NoKerning;
};
};
},
{
glyphname = dagger;
lastChange = "2024-04-18 14:55:36 +0000";
layers = (
{
layerId = "09B1AECD-0C97-4FC2-B876-53C5EBE935B2";
shapes = (
{
closed = 1;
nodes = (
(250,745,l),
(250,1644,l),
(160,1644,l),
(160,745,l)
);
},
{
closed = 1;
nodes = (
(379,1287,l),
(379,1377,l),
(35,1377,l),
(35,1287,l)
);
}
);
width = 414;
}
);
unicode = 8224;
},
{
glyphname = cent;
kernLeft = "20";
kernRight = "20";
lastChange = "2024-04-18 14:55:36 +0000";
layers = (
{
layerId = "09B1AECD-0C97-4FC2-B876-53C5EBE935B2";
shapes = (
{
closed = 1;
nodes = (
(125,1032,l),
(125,1086,o),
(171,1131,o),
(226,1131,cs),
(279,1131,o),
(325,1086,o),
(325,1032,c),
(415,1032,l),
(415,1137,o),
(331,1221,o),
(226,1221,cs),
(120,1221,o),
(35,1137,o),
(35,1032,c)
);
},
{
closed = 1;
nodes = (
(272,0,l),
(272,260,l),
(182,260,l),
(182,0,l)
);
},
{
closed = 1;
nodes = (
(331,238,o),
(415,323,o),
(415,427,c),
(325,427,l),
(325,374,o),
(279,328,o),
(226,328,cs),
(171,328,o),
(125,374,o),
(125,427,c),
(35,427,l),
(35,323,o),
(120,238,o),
(226,238,cs)
);
},
{
closed = 1;
nodes = (
(125,427,l),
(125,1032,l),
(35,1032,l),
(35,427,l)
);
},
{
closed = 1;
nodes = (
(272,1201,l),
(272,1461,l),
(182,1461,l),
(182,1201,l)
);
}
);
width = 450;
}
);
unicode = 162;
userData = {
KernOnSpecialSpacing = {
L = symbols;
R = symbols;
};
};
},
{
glyphname = dollar;
kernLeft = "20";
kernRight = "20";
lastChange = "2024-04-18 14:55:36 +0000";
layers = (
{
layerId = "09B1AECD-0C97-4FC2-B876-53C5EBE935B2";
shapes = (
{
closed = 1;
nodes = (
(284,-183,l),
(284,6,l),
(375,26,o),
(441,107,o),
(441,201,cs),
(441,947,ls),
(441,1058,o),
(350,1148,o),
(239,1148,cs),
(176,1148,o),
(125,1199,o),
(125,1260,cs),
(125,1320,o),
(176,1371,o),
(239,1371,cs),
(300,1371,o),
(351,1320,o),
(351,1260,c),
(441,1260,l),
(441,1355,o),
(375,1435,o),
(284,1455,c),
(284,1644,l),
(194,1644,l),
(194,1455,l),
(102,1435,o),
(35,1355,o),
(35,1260,cs),
(35,1149,o),
(126,1058,o),
(239,1058,cs),
(300,1058,o),
(351,1008,o),
(351,947,cs),
(351,201,ls),
(351,141,o),
(300,90,o),
(239,90,cs),
(176,90,o),
(125,141,o),
(125,201,cs),
(125,947,l),
(35,947,l),
(35,201,ls),
(35,107,o),
(102,26,o),
(194,6,c),
(194,-183,l)
);
}
);
width = 476;
}
);
unicode = 36;
userData = {
KernOnSpecialSpacing = {
L = symbols;
R = symbols;
};
};
},
{
glyphname = euro;
kernLeft = "20";
kernRight = "20";
lastChange = "2024-04-18 14:55:36 +0000";
layers = (
{
layerId = "09B1AECD-0C97-4FC2-B876-53C5EBE935B2";
shapes = (
{
closed = 1;
nodes = (
(315,532,l),
(315,622,l),
(35,622,l),
(35,532,l)
);
},
{
closed = 1;
nodes = (
(315,839,l),
(315,929,l),
(35,929,l),
(35,839,l)
);
},
{
closed = 1;
nodes = (
(199,0,l),
(199,1260,l),
(109,1260,l),
(109,0,l)
);
},
{
closed = 1;
nodes = (
(313,0,l),
(313,90,l),
(116,90,l),
(116,0,l)
);
},
{
closed = 1;
nodes = (
(424,0,o),
(514,90,o),
(514,201,c),
(424,201,l),
(424,141,o),
(373,90,o),
(313,90,c),
(313,0,l)
);
},
{
closed = 1;
nodes = (
(199,1260,l),
(199,1320,o),
(250,1371,o),
(313,1371,cs),
(373,1371,o),
(424,1320,o),
(424,1260,c),
(514,1260,l),
(514,1371,o),
(424,1461,o),
(313,1461,cs),
(199,1461,o),
(109,1371,o),
(109,1260,c)
);
}
);
width = 549;
}
);
unicode = 8364;
userData = {
KernOnSpecialSpacing = {
L = symbols;
R = symbols;
};
};
},
{
glyphname = sterling;
kernLeft = "20";
kernRight = "20";
lastChange = "2024-04-18 14:55:36 +0000";
layers = (
{
layerId = "09B1AECD-0C97-4FC2-B876-53C5EBE935B2";
shapes = (
{
closed = 1;
nodes = (
(441,0,l),
(441,90,l),
(125,90,l),
(125,447,l),
(239,447,l),
(239,537,l),
(125,537,l),
(125,1260,ls),
(125,1320,o),
(176,1371,o),
(239,1371,cs),
(300,1371,o),
(351,1320,o),
(351,1260,c),
(441,1260,l),
(441,1371,o),
(350,1461,o),
(239,1461,cs),
(126,1461,o),
(35,1371,o),
(35,1260,cs),
(35,0,l)
);
}
);
width = 476;
}
);
unicode = 163;
userData = {
KernOnSpecialSpacing = {
L = symbols;
R = symbols;
};
};
},
{
glyphname = yen;
kernLeft = "20";
kernRight = "20";
lastChange = "2024-04-18 14:55:36 +0000";
layers = (
{
layerId = "09B1AECD-0C97-4FC2-B876-53C5EBE935B2";
shapes = (
{
closed = 1;
nodes = (
(441,219,l),
(441,309,l),
(35,309,l),
(35,219,l)
);
},
{
closed = 1;
nodes = (
(441,475,l),
(441,565,l),
(35,565,l),
(35,475,l)
);
},
{
closed = 1;
nodes = (
(284,0,l),
(284,552,l),
(195,552,l),
(195,0,l)
);
},
{
closed = 1;
nodes = (
(350,475,o),
(441,565,o),
(441,676,c),
(351,676,l),
(351,616,o),
(300,565,o),
(239,565,cs),
(176,565,o),
(125,616,o),
(125,676,c),
(35,676,l),
(35,565,o),
(126,475,o),
(239,475,cs)
);
},
{
closed = 1;
nodes = (
(125,676,l),
(125,1461,l),
(35,1461,l),
(35,676,l)
);
},
{
closed = 1;
nodes = (
(441,676,l),
(441,1461,l),
(351,1461,l),
(351,676,l)
);
}
);
width = 476;
}
);
unicode = 165;
userData = {
KernOnSpecialSpacing = {
L = symbols;
R = symbols;
};
};
},
{
glyphname = plus;
kernLeft = "20";
kernRight = "20";
lastChange = "2024-04-18 14:55:36 +0000";
layers = (
{
layerId = "09B1AECD-0C97-4FC2-B876-53C5EBE935B2";
shapes = (
{
closed = 1;
nodes = (
(288,524,l),
(288,939,l),
(198,939,l),
(198,524,l)
);
},
{
closed = 1;
nodes = (
(452,686,l),
(452,776,l),
(35,776,l),
(35,686,l)
);
}
);
width = 487;
}
);
unicode = 43;
userData = {
KernOnSpecialSpacing = {
L = math;
R = math;
};
};
},
{
glyphname = multiply;
kernLeft = "20";
kernRight = "20";
lastChange = "2024-04-18 14:55:36 +0000";
layers = (
{
layerId = "09B1AECD-0C97-4FC2-B876-53C5EBE935B2";
shapes = (
{
closed = 1;
nodes = (
(393,848,l),
(329,911,l),
(35,617,l),
(99,553,l)
);
},
{
closed = 1;
nodes = (
(393,615,l),
(99,910,l),
(35,846,l),
(329,553,l)
);
}
);
width = 428;
}
);
unicode = 215;
userData = {
KernOnSpecialSpacing = {
L = math;
R = math;
};
};
},
{
glyphname = equal;
kernLeft = "20";
kernRight = "20";
lastChange = "2024-04-18 14:55:36 +0000";
layers = (
{
layerId = "09B1AECD-0C97-4FC2-B876-53C5EBE935B2";
shapes = (
{
closed = 1;
nodes = (
(452,779,l),
(452,869,l),
(35,869,l),
(35,779,l)
);
},
{
closed = 1;
nodes = (
(452,593,l),
(452,683,l),
(35,683,l),
(35,593,l)
);
}
);
width = 487;
}
);
unicode = 61;
userData = {
KernOnSpecialSpacing = {
L = math;
R = math;
};
};
},
{
glyphname = percent;
kernLeft = "20";
kernRight = "20";
lastChange = "2024-04-18 14:55:36 +0000";
layers = (
{
layerId = "09B1AECD-0C97-4FC2-B876-53C5EBE935B2";
shapes = (
{
closed = 1;
nodes = (
(289,0,l),
(778,1461,l),
(703,1461,l),
(214,0,l)
);
},
{
closed = 1;
nodes = (
(293,697,o),
(368,772,o),
(368,862,cs),
(368,1296,ls),
(368,1386,o),
(293,1461,o),
(203,1461,cs),
(110,1461,o),
(35,1386,o),
(35,1296,cs),
(35,862,ls),
(35,772,o),
(110,697,o),
(203,697,cs)
);
},
{
closed = 1;
nodes = (
(883,0,o),
(958,75,o),
(958,165,cs),
(958,599,ls),
(958,689,o),
(883,764,o),
(793,764,cs),
(700,764,o),
(625,689,o),
(625,599,cs),
(625,165,ls),
(625,75,o),
(700,0,o),
(793,0,cs)
);
},
{
closed = 1;
nodes = (
(151,770,o),
(109,812,o),
(109,862,cs),
(109,1297,ls),
(109,1347,o),
(151,1389,o),
(203,1389,cs),
(252,1389,o),
(295,1347,o),
(295,1297,cs),
(295,862,ls),
(295,812,o),
(252,770,o),
(203,770,cs)
);
},
{
closed = 1;
nodes = (
(740,73,o),
(698,114,o),
(698,164,cs),
(698,599,ls),
(698,650,o),
(740,691,o),
(793,691,cs),
(842,691,o),
(885,650,o),
(885,599,cs),
(885,164,ls),
(885,114,o),
(842,73,o),
(793,73,cs)
);
}
);
width = 993;
}
);
unicode = 37;
userData = {
KernOnSpecialSpacing = {
L = "spaced-off";
};
};
},
{
glyphname = dieresiscomb;
kernLeft = "20";
kernRight = "20";
lastChange = "2024-04-18 14:55:36 +0000";
layers = (
{
anchors = (
{
name = _top;
pos = (157,984);
}
);
layerId = "09B1AECD-0C97-4FC2-B876-53C5EBE935B2";
shapes = (
{
closed = 1;
nodes = (
(259,1104,o),
(279,1124,o),
(279,1149,cs),
(279,1175,o),
(259,1194,o),
(234,1194,cs),
(208,1194,o),
(189,1175,o),
(189,1149,cs),
(189,1124,o),
(208,1104,o),
(234,1104,c)
);
},
{
closed = 1;
nodes = (
(105,1104,o),
(125,1124,o),
(125,1149,cs),
(125,1175,o),
(105,1194,o),
(80,1194,cs),
(55,1194,o),
(35,1175,o),
(35,1149,cs),
(35,1124,o),
(55,1104,o),
(80,1104,c)
);
}
);
width = 314;
}
);
unicode = 776;
userData = {
KernOnSpecialSpacing = {
L = NoKerning;
R = NoKerning;
};
};
},
{
glyphname = dotaccentcomb;
kernLeft = "20";
kernRight = "20";
lastChange = "2024-04-18 14:55:36 +0000";
layers = (
{
anchors = (
{
name = _top;
pos = (79,984);
}
);
layerId = "09B1AECD-0C97-4FC2-B876-53C5EBE935B2";
shapes = (
{
closed = 1;
nodes = (
(105,1104,o),
(124,1123,o),
(124,1148,cs),
(124,1175,o),
(105,1194,o),
(79,1194,cs),
(54,1194,o),
(35,1175,o),
(35,1148,cs),
(35,1123,o),
(54,1104,o),
(79,1104,c)
);
}
);
width = 160;
}
);
unicode = 775;
userData = {
KernOnSpecialSpacing = {
L = NoKerning;
R = NoKerning;
};
};
},
{
glyphname = gravecomb;
kernLeft = "20";
kernRight = "20";
lastChange = "2024-04-18 14:55:36 +0000";
layers = (
{
anchors = (
{
name = _top;
pos = (132,984);
}
);
layerId = "09B1AECD-0C97-4FC2-B876-53C5EBE935B2";
shapes = (
{
closed = 1;
nodes = (
(229,984,l),
(118,1321,l),
(35,1321,l),
(172,984,l)
);
}
);
width = 264;
}
);
unicode = 768;
userData = {
KernOnSpecialSpacing = {
L = NoKerning;
R = NoKerning;
};
};
},
{
glyphname = acutecomb;
kernLeft = "20";
kernRight = "20";
lastChange = "2024-04-18 14:55:36 +0000";
layers = (
{
anchors = (
{
name = _top;
pos = (132,984);
}
);
layerId = "09B1AECD-0C97-4FC2-B876-53C5EBE935B2";
shapes = (
{
closed = 1;
nodes = (
(92,984,l),
(229,1321,l),
(146,1321,l),
(35,984,l)
);
}
);
width = 264;
}
);
unicode = 769;
userData = {
KernOnSpecialSpacing = {
L = NoKerning;
R = NoKerning;
};
};
},
{
glyphname = circumflexcomb;
kernLeft = "20";
kernRight = "20";
lastChange = "2024-04-18 14:55:36 +0000";
layers = (
{
anchors = (
{
name = _top;
pos = (183,984);
}
);
layerId = "09B1AECD-0C97-4FC2-B876-53C5EBE935B2";
shapes = (
{
closed = 1;
nodes = (
(329,1141,l),
(275,1141,o),
(222,1164,o),
(183,1200,c),
(136,1144,l),
(190,1097,o),
(260,1073,o),
(329,1073,c)
);
},
{
closed = 1;
nodes = (
(105,1073,o),
(175,1097,o),
(228,1143,c),
(183,1200,l),
(144,1164,o),
(90,1141,o),
(35,1141,c),
(35,1073,l)
);
}
);
width = 365;
}
);
unicode = 770;
userData = {
KernOnSpecialSpacing = {
L = NoKerning;
R = NoKerning;
};
};
},
{
glyphname = ringcomb;
kernLeft = "20";
kernRight = "20";
lastChange = "2024-04-18 14:55:36 +0000";
layers = (
{
anchors = (
{
name = _top;
pos = (186,984);
}
);
layerId = "09B1AECD-0C97-4FC2-B876-53C5EBE935B2";
shapes = (
{
closed = 1;
nodes = (
(268,1038,o),
(335,1105,o),
(335,1187,cs),
(335,1268,o),
(268,1336,o),
(186,1336,cs),
(102,1336,o),
(35,1268,o),
(35,1187,cs),
(35,1105,o),
(102,1038,o),
(186,1038,cs)
);
},
{
closed = 1;
nodes = (
(134,1094,o),
(91,1136,o),
(91,1187,cs),
(91,1237,o),
(134,1280,o),
(186,1280,cs),
(237,1280,o),
(279,1237,o),
(279,1187,cs),
(279,1136,o),
(237,1094,o),
(186,1094,cs)
);
}
);
width = 370;
}
);
unicode = 778;
userData = {
KernOnSpecialSpacing = {
L = NoKerning;
R = NoKerning;
};
};
},
{
glyphname = tildecomb;
kernLeft = "20";
kernRight = "20";
lastChange = "2024-04-18 14:55:36 +0000";
layers = (
{
anchors = (
{
name = _top;
pos = (218,984);
}
);
layerId = "09B1AECD-0C97-4FC2-B876-53C5EBE935B2";
shapes = (
{
closed = 1;
nodes = (
(97,1142,o),
(119,1154,o),
(144,1157,cs),
(164,1158,o),
(185,1154,o),
(204,1140,cs),
(233,1121,o),
(271,1112,o),
(304,1120,cs),
(343,1125,o),
(378,1148,o),
(402,1179,c),
(353,1209,l),
(341,1189,o),
(318,1178,o),
(295,1175,cs),
(275,1172,o),
(252,1177,o),
(234,1190,cs),
(204,1210,o),
(168,1216,o),
(135,1210,cs),
(96,1206,o),
(59,1185,o),
(35,1151,c),
(84,1120,l)
);
}
);
width = 437;
}
);
unicode = 771;
userData = {
KernOnSpecialSpacing = {
L = NoKerning;
R = NoKerning;
};
};
},
{
glyphname = cedillacomb;
kernLeft = "20";
kernRight = "20";
lastChange = "2024-04-18 14:55:36 +0000";
layers = (
{
anchors = (
{
name = _bottom;
pos = (137,0);
}
);
layerId = "09B1AECD-0C97-4FC2-B876-53C5EBE935B2";
shapes = (
{
closed = 1;
nodes = (
(151,-378,o),
(218,-311,o),
(218,-227,cs),
(218,-145,o),
(151,-78,o),
(69,-78,c),
(69,-134,l),
(119,-134,o),
(162,-177,o),
(162,-227,cs),
(162,-279,o),
(119,-322,o),
(69,-322,c),
(69,-378,l)
);
},
{
closed = 1;
nodes = (
(69,-378,l),
(69,-322,l),
(35,-322,l),
(35,-378,l)
);
},
{
closed = 1;
nodes = (
(92,-134,l),
(92,14,l),
(35,14,l),
(35,-134,l)
);
}
);
width = 253;
}
);
unicode = 807;
userData = {
KernOnSpecialSpacing = {
L = NoKerning;
R = NoKerning;
};
};
},
{
glyphname = hungarumlaut;
kernLeft = "20";
kernRight = "20";
lastChange = "2024-04-18 14:55:36 +0000";
layers = (
{
anchors = (
{
name = _top;
pos = (304,984);
}
);
layerId = "09B1AECD-0C97-4FC2-B876-53C5EBE935B2";
shapes = (
{
closed = 1;
nodes = (
(436,984,l),
(573,1353,l),
(483,1353,l),
(346,984,l)
);
},
{
closed = 1;
nodes = (
(125,984,l),
(262,1353,l),
(172,1353,l),
(35,984,l)
);
}
);
width = 608;
}
);
unicode = 733;
},
{
glyphname = caron;
kernLeft = "20";
kernRight = "20";
lastChange = "2024-04-18 14:55:36 +0000";
layers = (
{
anchors = (
{
name = _top;
pos = (182,984);
}
);
layerId = "09B1AECD-0C97-4FC2-B876-53C5EBE935B2";
shapes = (
{
closed = 1;
nodes = (
(222,1110,o),
(275,1132,o),
(329,1132,c),
(329,1200,l),
(260,1200,o),
(190,1177,o),
(136,1130,c),
(183,1073,l)
);
},
{
closed = 1;
nodes = (
(228,1130,l),
(175,1177,o),
(105,1200,o),
(35,1200,c),
(35,1132,l),
(90,1132,o),
(144,1110,o),
(183,1073,c)
);
}
);
width = 365;
}
);
unicode = 711;
},
{
glyphname = breve;
kernLeft = "20";
kernRight = "20";
lastChange = "2024-04-18 14:55:36 +0000";
layers = (
{
anchors = (
{
name = _top;
pos = (179,984);
}
);
layerId = "09B1AECD-0C97-4FC2-B876-53C5EBE935B2";
shapes = (
{
closed = 1;
nodes = (
(255,1048,o),
(320,1112,o),
(320,1189,c),
(263,1189,l),
(263,1143,o),
(224,1105,o),
(179,1105,cs),
(131,1105,o),
(92,1143,o),
(92,1189,c),
(35,1189,l),
(35,1112,o),
(99,1048,o),
(179,1048,cs)
);
}
);
width = 355;
}
);
unicode = 728;
},
{
glyphname = macron;
kernLeft = "20";
kernRight = "20";
lastChange = "2024-04-18 14:55:36 +0000";
layers = (
{
anchors = (
{
name = _top;
pos = (217,984);
}
);
layerId = "09B1AECD-0C97-4FC2-B876-53C5EBE935B2";
shapes = (
{
closed = 1;
nodes = (
(401,1115,l),
(401,1190,l),
(35,1190,l),
(35,1115,l)
);
}
);
width = 436;
}
);
unicode = 175;
},
